ISO-10303-21;
HEADER;
/* Generated by software containing ST-Developer
 * from STEP Tools, Inc. (www.steptools.com) 
 */
/* OPTION: using custom renumber hook */

FILE_DESCRIPTION(
/* description */ ('STEP AP242 Edition 2',
'CAx-IF Rec.Pracs.---Representation and Presentation of Product Manufa
cturing Information (PMI)---4.0---2014-10-13',
'CAx-IF Rec.Pracs.---3D Tessellated Geometry---0.4---2014-09-14','2;1',
'CAx-IF Rec.Pracs.---User Defined Attributes---1.5---2016-08-15'),
/* implementation_level */ '2;1');

FILE_NAME(
/* name */ '6a7a9c6b3bbc436cf4424699',
/* time_stamp */ '2026-08-11T03:52:11Z',
/* author */ (''),
/* organization */ (''),
/* preprocessor_version */ 'ST-DEVELOPER v20',
/* originating_system */ 'ONSHAPE BY PTC INC, 1.219',
/* authorisation */ '  ');

FILE_SCHEMA (('AP242_MANAGED_MODEL_BASED_3D_ENGINEERING_MIM_LF { 1 0 10303 442 3 1 4 }'));
ENDSEC;

DATA;
#10=CIRCLE('',#796,0.005);
#11=CIRCLE('',#797,0.005);
#12=CIRCLE('',#799,0.004);
#13=CIRCLE('',#801,0.004);
#14=CIRCLE('',#805,0.004);
#15=CIRCLE('',#806,0.004);
#16=CYLINDRICAL_SURFACE('',#795,0.005);
#17=CYLINDRICAL_SURFACE('',#802,0.004);
#18=CYLINDRICAL_SURFACE('',#804,0.004);
#19=COLOUR_RGB('',0.917647058823529,0.917647058823529,0.917647058823529);
#20=CONTEXT_DEPENDENT_SHAPE_REPRESENTATION(#30,#1217);
#21=CONTEXT_DEPENDENT_SHAPE_REPRESENTATION(#31,#1219);
#22=CONTEXT_DEPENDENT_SHAPE_REPRESENTATION(#32,#1221);
#23=CONTEXT_DEPENDENT_SHAPE_REPRESENTATION(#33,#1223);
#24=CONTEXT_DEPENDENT_SHAPE_REPRESENTATION(#34,#1224);
#25=NEXT_ASSEMBLY_USAGE_OCCURRENCE('NAUO1','Part 1','Part 1',#1225,#1226,
'');
#26=NEXT_ASSEMBLY_USAGE_OCCURRENCE('NAUO2','Part 1','Part 1',#1225,#1227,
'');
#27=NEXT_ASSEMBLY_USAGE_OCCURRENCE('NAUO3','Part 1','Part 1',#1225,#1228,
'');
#28=NEXT_ASSEMBLY_USAGE_OCCURRENCE('NAUO4','Part 1','Part 1',#1225,#1229,
'');
#29=NEXT_ASSEMBLY_USAGE_OCCURRENCE('NAUO5','Part 1','Part 1',#1225,#1227,
'');
#30=(
REPRESENTATION_RELATIONSHIP(' ',' ',#763,#762)
REPRESENTATION_RELATIONSHIP_WITH_TRANSFORMATION(#35)
SHAPE_REPRESENTATION_RELATIONSHIP()
);
#31=(
REPRESENTATION_RELATIONSHIP(' ',' ',#764,#762)
REPRESENTATION_RELATIONSHIP_WITH_TRANSFORMATION(#36)
SHAPE_REPRESENTATION_RELATIONSHIP()
);
#32=(
REPRESENTATION_RELATIONSHIP(' ',' ',#765,#762)
REPRESENTATION_RELATIONSHIP_WITH_TRANSFORMATION(#37)
SHAPE_REPRESENTATION_RELATIONSHIP()
);
#33=(
REPRESENTATION_RELATIONSHIP(' ',' ',#766,#762)
REPRESENTATION_RELATIONSHIP_WITH_TRANSFORMATION(#38)
SHAPE_REPRESENTATION_RELATIONSHIP()
);
#34=(
REPRESENTATION_RELATIONSHIP(' ',' ',#764,#762)
REPRESENTATION_RELATIONSHIP_WITH_TRANSFORMATION(#39)
SHAPE_REPRESENTATION_RELATIONSHIP()
);
#35=ITEM_DEFINED_TRANSFORMATION(' ',' ',#767,#794);
#36=ITEM_DEFINED_TRANSFORMATION(' ',' ',#767,#803);
#37=ITEM_DEFINED_TRANSFORMATION(' ',' ',#767,#809);
#38=ITEM_DEFINED_TRANSFORMATION(' ',' ',#767,#816);
#39=ITEM_DEFINED_TRANSFORMATION(' ',' ',#767,#817);
#40=SHAPE_REPRESENTATION_RELATIONSHIP('','',#763,#44);
#41=SHAPE_REPRESENTATION_RELATIONSHIP('','',#764,#45);
#42=SHAPE_REPRESENTATION_RELATIONSHIP('','',#765,#46);
#43=SHAPE_REPRESENTATION_RELATIONSHIP('','',#766,#47);
#44=ADVANCED_BREP_SHAPE_REPRESENTATION('',(#753),#1203);
#45=ADVANCED_BREP_SHAPE_REPRESENTATION('',(#754),#1204);
#46=ADVANCED_BREP_SHAPE_REPRESENTATION('',(#755),#1205);
#47=ADVANCED_BREP_SHAPE_REPRESENTATION('',(#756),#1206);
#48=ORIENTED_EDGE('',*,*,#228,.T.);
#49=ORIENTED_EDGE('',*,*,#229,.F.);
#50=ORIENTED_EDGE('',*,*,#230,.F.);
#51=ORIENTED_EDGE('',*,*,#231,.T.);
#52=ORIENTED_EDGE('',*,*,#232,.F.);
#53=ORIENTED_EDGE('',*,*,#233,.T.);
#54=ORIENTED_EDGE('',*,*,#234,.T.);
#55=ORIENTED_EDGE('',*,*,#235,.F.);
#56=ORIENTED_EDGE('',*,*,#236,.F.);
#57=ORIENTED_EDGE('',*,*,#237,.T.);
#58=ORIENTED_EDGE('',*,*,#238,.T.);
#59=ORIENTED_EDGE('',*,*,#239,.F.);
#60=ORIENTED_EDGE('',*,*,#240,.F.);
#61=ORIENTED_EDGE('',*,*,#241,.T.);
#62=ORIENTED_EDGE('',*,*,#242,.T.);
#63=ORIENTED_EDGE('',*,*,#243,.F.);
#64=ORIENTED_EDGE('',*,*,#244,.F.);
#65=ORIENTED_EDGE('',*,*,#245,.F.);
#66=ORIENTED_EDGE('',*,*,#246,.T.);
#67=ORIENTED_EDGE('',*,*,#247,.T.);
#68=ORIENTED_EDGE('',*,*,#248,.F.);
#69=ORIENTED_EDGE('',*,*,#249,.T.);
#70=ORIENTED_EDGE('',*,*,#250,.T.);
#71=ORIENTED_EDGE('',*,*,#251,.F.);
#72=ORIENTED_EDGE('',*,*,#252,.T.);
#73=ORIENTED_EDGE('',*,*,#253,.T.);
#74=ORIENTED_EDGE('',*,*,#254,.T.);
#75=ORIENTED_EDGE('',*,*,#255,.F.);
#76=ORIENTED_EDGE('',*,*,#256,.F.);
#77=ORIENTED_EDGE('',*,*,#228,.F.);
#78=ORIENTED_EDGE('',*,*,#257,.T.);
#79=ORIENTED_EDGE('',*,*,#258,.F.);
#80=ORIENTED_EDGE('',*,*,#259,.F.);
#81=ORIENTED_EDGE('',*,*,#260,.F.);
#82=ORIENTED_EDGE('',*,*,#245,.T.);
#83=ORIENTED_EDGE('',*,*,#261,.T.);
#84=ORIENTED_EDGE('',*,*,#262,.F.);
#85=ORIENTED_EDGE('',*,*,#263,.T.);
#86=ORIENTED_EDGE('',*,*,#264,.F.);
#87=ORIENTED_EDGE('',*,*,#230,.T.);
#88=ORIENTED_EDGE('',*,*,#265,.T.);
#89=ORIENTED_EDGE('',*,*,#266,.T.);
#90=ORIENTED_EDGE('',*,*,#267,.F.);
#91=ORIENTED_EDGE('',*,*,#268,.F.);
#92=ORIENTED_EDGE('',*,*,#231,.F.);
#93=ORIENTED_EDGE('',*,*,#264,.T.);
#94=ORIENTED_EDGE('',*,*,#269,.T.);
#95=ORIENTED_EDGE('',*,*,#257,.F.);
#96=ORIENTED_EDGE('',*,*,#270,.F.);
#97=ORIENTED_EDGE('',*,*,#266,.F.);
#98=ORIENTED_EDGE('',*,*,#271,.T.);
#99=ORIENTED_EDGE('',*,*,#255,.T.);
#100=ORIENTED_EDGE('',*,*,#265,.F.);
#101=ORIENTED_EDGE('',*,*,#229,.T.);
#102=ORIENTED_EDGE('',*,*,#256,.T.);
#103=ORIENTED_EDGE('',*,*,#271,.F.);
#104=ORIENTED_EDGE('',*,*,#272,.F.);
#105=ORIENTED_EDGE('',*,*,#267,.T.);
#106=ORIENTED_EDGE('',*,*,#270,.T.);
#107=ORIENTED_EDGE('',*,*,#254,.F.);
#108=ORIENTED_EDGE('',*,*,#240,.T.);
#109=ORIENTED_EDGE('',*,*,#273,.T.);
#110=ORIENTED_EDGE('',*,*,#233,.F.);
#111=ORIENTED_EDGE('',*,*,#274,.F.);
#112=ORIENTED_EDGE('',*,*,#274,.T.);
#113=ORIENTED_EDGE('',*,*,#232,.T.);
#114=ORIENTED_EDGE('',*,*,#275,.F.);
#115=ORIENTED_EDGE('',*,*,#241,.F.);
#116=ORIENTED_EDGE('',*,*,#275,.T.);
#117=ORIENTED_EDGE('',*,*,#235,.T.);
#118=ORIENTED_EDGE('',*,*,#276,.F.);
#119=ORIENTED_EDGE('',*,*,#242,.F.);
#120=ORIENTED_EDGE('',*,*,#243,.T.);
#121=ORIENTED_EDGE('',*,*,#276,.T.);
#122=ORIENTED_EDGE('',*,*,#234,.F.);
#123=ORIENTED_EDGE('',*,*,#273,.F.);
#124=ORIENTED_EDGE('',*,*,#277,.F.);
#125=ORIENTED_EDGE('',*,*,#278,.T.);
#126=ORIENTED_EDGE('',*,*,#279,.T.);
#127=ORIENTED_EDGE('',*,*,#280,.F.);
#128=ORIENTED_EDGE('',*,*,#281,.F.);
#129=ORIENTED_EDGE('',*,*,#246,.F.);
#130=ORIENTED_EDGE('',*,*,#260,.T.);
#131=ORIENTED_EDGE('',*,*,#282,.T.);
#132=ORIENTED_EDGE('',*,*,#283,.F.);
#133=ORIENTED_EDGE('',*,*,#284,.T.);
#134=ORIENTED_EDGE('',*,*,#285,.F.);
#135=ORIENTED_EDGE('',*,*,#278,.F.);
#136=ORIENTED_EDGE('',*,*,#284,.F.);
#137=ORIENTED_EDGE('',*,*,#286,.T.);
#138=ORIENTED_EDGE('',*,*,#287,.F.);
#139=ORIENTED_EDGE('',*,*,#261,.F.);
#140=ORIENTED_EDGE('',*,*,#244,.T.);
#141=ORIENTED_EDGE('',*,*,#288,.T.);
#142=ORIENTED_EDGE('',*,*,#289,.T.);
#143=ORIENTED_EDGE('',*,*,#290,.F.);
#144=ORIENTED_EDGE('',*,*,#291,.T.);
#145=ORIENTED_EDGE('',*,*,#289,.F.);
#146=ORIENTED_EDGE('',*,*,#292,.F.);
#147=ORIENTED_EDGE('',*,*,#280,.T.);
#148=ORIENTED_EDGE('',*,*,#281,.T.);
#149=ORIENTED_EDGE('',*,*,#292,.T.);
#150=ORIENTED_EDGE('',*,*,#288,.F.);
#151=ORIENTED_EDGE('',*,*,#247,.F.);
#152=ORIENTED_EDGE('',*,*,#285,.T.);
#153=ORIENTED_EDGE('',*,*,#290,.T.);
#154=ORIENTED_EDGE('',*,*,#291,.F.);
#155=ORIENTED_EDGE('',*,*,#279,.F.);
#156=ORIENTED_EDGE('',*,*,#277,.T.);
#157=ORIENTED_EDGE('',*,*,#293,.F.);
#158=ORIENTED_EDGE('',*,*,#268,.T.);
#159=ORIENTED_EDGE('',*,*,#272,.T.);
#160=ORIENTED_EDGE('',*,*,#253,.F.);
#161=ORIENTED_EDGE('',*,*,#294,.F.);
#162=ORIENTED_EDGE('',*,*,#286,.F.);
#163=ORIENTED_EDGE('',*,*,#283,.T.);
#164=ORIENTED_EDGE('',*,*,#269,.F.);
#165=ORIENTED_EDGE('',*,*,#263,.F.);
#166=ORIENTED_EDGE('',*,*,#295,.T.);
#167=ORIENTED_EDGE('',*,*,#258,.T.);
#168=ORIENTED_EDGE('',*,*,#259,.T.);
#169=ORIENTED_EDGE('',*,*,#287,.T.);
#170=ORIENTED_EDGE('',*,*,#294,.T.);
#171=ORIENTED_EDGE('',*,*,#252,.F.);
#172=ORIENTED_EDGE('',*,*,#295,.F.);
#173=ORIENTED_EDGE('',*,*,#262,.T.);
#174=ORIENTED_EDGE('',*,*,#293,.T.);
#175=ORIENTED_EDGE('',*,*,#282,.F.);
#176=ORIENTED_EDGE('',*,*,#248,.T.);
#177=ORIENTED_EDGE('',*,*,#296,.T.);
#178=ORIENTED_EDGE('',*,*,#237,.F.);
#179=ORIENTED_EDGE('',*,*,#297,.F.);
#180=ORIENTED_EDGE('',*,*,#297,.T.);
#181=ORIENTED_EDGE('',*,*,#236,.T.);
#182=ORIENTED_EDGE('',*,*,#298,.F.);
#183=ORIENTED_EDGE('',*,*,#249,.F.);
#184=ORIENTED_EDGE('',*,*,#298,.T.);
#185=ORIENTED_EDGE('',*,*,#239,.T.);
#186=ORIENTED_EDGE('',*,*,#299,.F.);
#187=ORIENTED_EDGE('',*,*,#250,.F.);
#188=ORIENTED_EDGE('',*,*,#251,.T.);
#189=ORIENTED_EDGE('',*,*,#299,.T.);
#190=ORIENTED_EDGE('',*,*,#238,.F.);
#191=ORIENTED_EDGE('',*,*,#296,.F.);
#192=ORIENTED_EDGE('',*,*,#300,.F.);
#193=ORIENTED_EDGE('',*,*,#301,.T.);
#194=ORIENTED_EDGE('',*,*,#302,.F.);
#195=ORIENTED_EDGE('',*,*,#300,.T.);
#196=ORIENTED_EDGE('',*,*,#303,.T.);
#197=ORIENTED_EDGE('',*,*,#301,.F.);
#198=ORIENTED_EDGE('',*,*,#303,.F.);
#199=ORIENTED_EDGE('',*,*,#302,.T.);
#200=ORIENTED_EDGE('',*,*,#304,.F.);
#201=ORIENTED_EDGE('',*,*,#305,.T.);
#202=ORIENTED_EDGE('',*,*,#304,.T.);
#203=ORIENTED_EDGE('',*,*,#305,.F.);
#204=ORIENTED_EDGE('',*,*,#306,.F.);
#205=ORIENTED_EDGE('',*,*,#307,.F.);
#206=ORIENTED_EDGE('',*,*,#308,.T.);
#207=ORIENTED_EDGE('',*,*,#309,.T.);
#208=ORIENTED_EDGE('',*,*,#310,.T.);
#209=ORIENTED_EDGE('',*,*,#311,.F.);
#210=ORIENTED_EDGE('',*,*,#312,.F.);
#211=ORIENTED_EDGE('',*,*,#307,.T.);
#212=ORIENTED_EDGE('',*,*,#313,.T.);
#213=ORIENTED_EDGE('',*,*,#314,.F.);
#214=ORIENTED_EDGE('',*,*,#315,.F.);
#215=ORIENTED_EDGE('',*,*,#311,.T.);
#216=ORIENTED_EDGE('',*,*,#316,.F.);
#217=ORIENTED_EDGE('',*,*,#309,.F.);
#218=ORIENTED_EDGE('',*,*,#317,.T.);
#219=ORIENTED_EDGE('',*,*,#314,.T.);
#220=ORIENTED_EDGE('',*,*,#308,.F.);
#221=ORIENTED_EDGE('',*,*,#312,.T.);
#222=ORIENTED_EDGE('',*,*,#315,.T.);
#223=ORIENTED_EDGE('',*,*,#317,.F.);
#224=ORIENTED_EDGE('',*,*,#306,.T.);
#225=ORIENTED_EDGE('',*,*,#316,.T.);
#226=ORIENTED_EDGE('',*,*,#313,.F.);
#227=ORIENTED_EDGE('',*,*,#310,.F.);
#228=EDGE_CURVE('',#318,#319,#380,.T.);
#229=EDGE_CURVE('',#320,#319,#381,.T.);
#230=EDGE_CURVE('',#321,#320,#382,.T.);
#231=EDGE_CURVE('',#321,#318,#383,.T.);
#232=EDGE_CURVE('',#322,#323,#384,.T.);
#233=EDGE_CURVE('',#322,#324,#385,.T.);
#234=EDGE_CURVE('',#324,#325,#386,.T.);
#235=EDGE_CURVE('',#323,#325,#387,.T.);
#236=EDGE_CURVE('',#326,#327,#388,.T.);
#237=EDGE_CURVE('',#326,#328,#389,.T.);
#238=EDGE_CURVE('',#328,#329,#390,.T.);
#239=EDGE_CURVE('',#327,#329,#391,.T.);
#240=EDGE_CURVE('',#330,#331,#392,.T.);
#241=EDGE_CURVE('',#330,#332,#393,.T.);
#242=EDGE_CURVE('',#332,#333,#394,.T.);
#243=EDGE_CURVE('',#331,#333,#395,.T.);
#244=EDGE_CURVE('',#334,#335,#396,.T.);
#245=EDGE_CURVE('',#336,#334,#397,.T.);
#246=EDGE_CURVE('',#336,#337,#398,.T.);
#247=EDGE_CURVE('',#337,#335,#399,.T.);
#248=EDGE_CURVE('',#338,#339,#400,.T.);
#249=EDGE_CURVE('',#338,#340,#401,.T.);
#250=EDGE_CURVE('',#340,#341,#402,.T.);
#251=EDGE_CURVE('',#339,#341,#403,.T.);
#252=EDGE_CURVE('',#342,#343,#404,.F.);
#253=EDGE_CURVE('',#343,#344,#405,.T.);
#254=EDGE_CURVE('',#344,#345,#406,.T.);
#255=EDGE_CURVE('',#346,#345,#407,.T.);
#256=EDGE_CURVE('',#319,#346,#408,.T.);
#257=EDGE_CURVE('',#318,#347,#409,.T.);
#258=EDGE_CURVE('',#342,#347,#410,.T.);
#259=EDGE_CURVE('',#348,#349,#411,.T.);
#260=EDGE_CURVE('',#336,#348,#412,.T.);
#261=EDGE_CURVE('',#334,#349,#413,.T.);
#262=EDGE_CURVE('',#350,#351,#414,.F.);
#263=EDGE_CURVE('',#350,#352,#415,.T.);
#264=EDGE_CURVE('',#321,#352,#416,.T.);
#265=EDGE_CURVE('',#320,#353,#417,.T.);
#266=EDGE_CURVE('',#353,#354,#418,.T.);
#267=EDGE_CURVE('',#355,#354,#419,.T.);
#268=EDGE_CURVE('',#351,#355,#420,.T.);
#269=EDGE_CURVE('',#352,#347,#421,.F.);
#270=EDGE_CURVE('',#354,#345,#422,.T.);
#271=EDGE_CURVE('',#353,#346,#423,.T.);
#272=EDGE_CURVE('',#355,#344,#424,.F.);
#273=EDGE_CURVE('',#331,#324,#425,.T.);
#274=EDGE_CURVE('',#330,#322,#426,.T.);
#275=EDGE_CURVE('',#332,#323,#427,.T.);
#276=EDGE_CURVE('',#333,#325,#428,.T.);
#277=EDGE_CURVE('',#356,#357,#429,.T.);
#278=EDGE_CURVE('',#356,#358,#430,.F.);
#279=EDGE_CURVE('',#358,#359,#431,.T.);
#280=EDGE_CURVE('',#360,#359,#432,.T.);
#281=EDGE_CURVE('',#337,#360,#433,.T.);
#282=EDGE_CURVE('',#348,#357,#434,.T.);
#283=EDGE_CURVE('',#361,#356,#435,.F.);
#284=EDGE_CURVE('',#361,#362,#436,.F.);
#285=EDGE_CURVE('',#358,#362,#437,.F.);
#286=EDGE_CURVE('',#361,#363,#438,.T.);
#287=EDGE_CURVE('',#349,#363,#439,.T.);
#288=EDGE_CURVE('',#335,#364,#440,.T.);
#289=EDGE_CURVE('',#364,#365,#441,.T.);
#290=EDGE_CURVE('',#362,#365,#442,.T.);
#291=EDGE_CURVE('',#359,#365,#443,.T.);
#292=EDGE_CURVE('',#360,#364,#444,.T.);
#293=EDGE_CURVE('',#351,#357,#445,.F.);
#294=EDGE_CURVE('',#363,#343,#446,.F.);
#295=EDGE_CURVE('',#350,#342,#447,.F.);
#296=EDGE_CURVE('',#339,#328,#448,.T.);
#297=EDGE_CURVE('',#338,#326,#449,.T.);
#298=EDGE_CURVE('',#340,#327,#450,.T.);
#299=EDGE_CURVE('',#341,#329,#451,.T.);
#300=EDGE_CURVE('',#366,#366,#10,.T.);
#301=EDGE_CURVE('',#367,#367,#11,.T.);
#302=EDGE_CURVE('',#368,#368,#12,.T.);
#303=EDGE_CURVE('',#369,#369,#13,.T.);
#304=EDGE_CURVE('',#370,#370,#14,.T.);
#305=EDGE_CURVE('',#371,#371,#15,.T.);
#306=EDGE_CURVE('',#372,#373,#452,.T.);
#307=EDGE_CURVE('',#374,#372,#453,.T.);
#308=EDGE_CURVE('',#374,#375,#454,.T.);
#309=EDGE_CURVE('',#375,#373,#455,.T.);
#310=EDGE_CURVE('',#372,#376,#456,.T.);
#311=EDGE_CURVE('',#377,#376,#457,.T.);
#312=EDGE_CURVE('',#374,#377,#458,.T.);
#313=EDGE_CURVE('',#376,#378,#459,.T.);
#314=EDGE_CURVE('',#379,#378,#460,.T.);
#315=EDGE_CURVE('',#377,#379,#461,.T.);
#316=EDGE_CURVE('',#373,#378,#462,.T.);
#317=EDGE_CURVE('',#375,#379,#463,.T.);
#318=VERTEX_POINT('',#1007);
#319=VERTEX_POINT('',#1008);
#320=VERTEX_POINT('',#1010);
#321=VERTEX_POINT('',#1012);
#322=VERTEX_POINT('',#1015);
#323=VERTEX_POINT('',#1016);
#324=VERTEX_POINT('',#1018);
#325=VERTEX_POINT('',#1020);
#326=VERTEX_POINT('',#1023);
#327=VERTEX_POINT('',#1024);
#328=VERTEX_POINT('',#1026);
#329=VERTEX_POINT('',#1028);
#330=VERTEX_POINT('',#1032);
#331=VERTEX_POINT('',#1033);
#332=VERTEX_POINT('',#1035);
#333=VERTEX_POINT('',#1037);
#334=VERTEX_POINT('',#1040);
#335=VERTEX_POINT('',#1041);
#336=VERTEX_POINT('',#1043);
#337=VERTEX_POINT('',#1045);
#338=VERTEX_POINT('',#1048);
#339=VERTEX_POINT('',#1049);
#340=VERTEX_POINT('',#1051);
#341=VERTEX_POINT('',#1053);
#342=VERTEX_POINT('',#1057);
#343=VERTEX_POINT('',#1058);
#344=VERTEX_POINT('',#1060);
#345=VERTEX_POINT('',#1062);
#346=VERTEX_POINT('',#1064);
#347=VERTEX_POINT('',#1067);
#348=VERTEX_POINT('',#1071);
#349=VERTEX_POINT('',#1072);
#350=VERTEX_POINT('',#1077);
#351=VERTEX_POINT('',#1078);
#352=VERTEX_POINT('',#1080);
#353=VERTEX_POINT('',#1083);
#354=VERTEX_POINT('',#1085);
#355=VERTEX_POINT('',#1087);
#356=VERTEX_POINT('',#1107);
#357=VERTEX_POINT('',#1108);
#358=VERTEX_POINT('',#1110);
#359=VERTEX_POINT('',#1112);
#360=VERTEX_POINT('',#1114);
#361=VERTEX_POINT('',#1119);
#362=VERTEX_POINT('',#1121);
#363=VERTEX_POINT('',#1125);
#364=VERTEX_POINT('',#1128);
#365=VERTEX_POINT('',#1130);
#366=VERTEX_POINT('',#1154);
#367=VERTEX_POINT('',#1156);
#368=VERTEX_POINT('',#1159);
#369=VERTEX_POINT('',#1162);
#370=VERTEX_POINT('',#1167);
#371=VERTEX_POINT('',#1169);
#372=VERTEX_POINT('',#1175);
#373=VERTEX_POINT('',#1176);
#374=VERTEX_POINT('',#1178);
#375=VERTEX_POINT('',#1180);
#376=VERTEX_POINT('',#1184);
#377=VERTEX_POINT('',#1186);
#378=VERTEX_POINT('',#1190);
#379=VERTEX_POINT('',#1192);
#380=LINE('',#1006,#464);
#381=LINE('',#1009,#465);
#382=LINE('',#1011,#466);
#383=LINE('',#1013,#467);
#384=LINE('',#1014,#468);
#385=LINE('',#1017,#469);
#386=LINE('',#1019,#470);
#387=LINE('',#1021,#471);
#388=LINE('',#1022,#472);
#389=LINE('',#1025,#473);
#390=LINE('',#1027,#474);
#391=LINE('',#1029,#475);
#392=LINE('',#1031,#476);
#393=LINE('',#1034,#477);
#394=LINE('',#1036,#478);
#395=LINE('',#1038,#479);
#396=LINE('',#1039,#480);
#397=LINE('',#1042,#481);
#398=LINE('',#1044,#482);
#399=LINE('',#1046,#483);
#400=LINE('',#1047,#484);
#401=LINE('',#1050,#485);
#402=LINE('',#1052,#486);
#403=LINE('',#1054,#487);
#404=LINE('',#1056,#488);
#405=LINE('',#1059,#489);
#406=LINE('',#1061,#490);
#407=LINE('',#1063,#491);
#408=LINE('',#1065,#492);
#409=LINE('',#1066,#493);
#410=LINE('',#1068,#494);
#411=LINE('',#1070,#495);
#412=LINE('',#1073,#496);
#413=LINE('',#1074,#497);
#414=LINE('',#1076,#498);
#415=LINE('',#1079,#499);
#416=LINE('',#1081,#500);
#417=LINE('',#1082,#501);
#418=LINE('',#1084,#502);
#419=LINE('',#1086,#503);
#420=LINE('',#1088,#504);
#421=LINE('',#1090,#505);
#422=LINE('',#1092,#506);
#423=LINE('',#1093,#507);
#424=LINE('',#1096,#508);
#425=LINE('',#1098,#509);
#426=LINE('',#1099,#510);
#427=LINE('',#1101,#511);
#428=LINE('',#1103,#512);
#429=LINE('',#1106,#513);
#430=LINE('',#1109,#514);
#431=LINE('',#1111,#515);
#432=LINE('',#1113,#516);
#433=LINE('',#1115,#517);
#434=LINE('',#1116,#518);
#435=LINE('',#1118,#519);
#436=LINE('',#1120,#520);
#437=LINE('',#1122,#521);
#438=LINE('',#1124,#522);
#439=LINE('',#1126,#523);
#440=LINE('',#1127,#524);
#441=LINE('',#1129,#525);
#442=LINE('',#1131,#526);
#443=LINE('',#1133,#527);
#444=LINE('',#1134,#528);
#445=LINE('',#1138,#529);
#446=LINE('',#1139,#530);
#447=LINE('',#1141,#531);
#448=LINE('',#1144,#532);
#449=LINE('',#1145,#533);
#450=LINE('',#1147,#534);
#451=LINE('',#1149,#535);
#452=LINE('',#1174,#536);
#453=LINE('',#1177,#537);
#454=LINE('',#1179,#538);
#455=LINE('',#1181,#539);
#456=LINE('',#1183,#540);
#457=LINE('',#1185,#541);
#458=LINE('',#1187,#542);
#459=LINE('',#1189,#543);
#460=LINE('',#1191,#544);
#461=LINE('',#1193,#545);
#462=LINE('',#1195,#546);
#463=LINE('',#1196,#547);
#464=VECTOR('',#822,1.);
#465=VECTOR('',#823,1.);
#466=VECTOR('',#824,1.);
#467=VECTOR('',#825,1.);
#468=VECTOR('',#826,1.);
#469=VECTOR('',#827,1.);
#470=VECTOR('',#828,1.);
#471=VECTOR('',#829,1.);
#472=VECTOR('',#830,1.);
#473=VECTOR('',#831,1.);
#474=VECTOR('',#832,1.);
#475=VECTOR('',#833,1.);
#476=VECTOR('',#836,1.);
#477=VECTOR('',#837,1.);
#478=VECTOR('',#838,1.);
#479=VECTOR('',#839,1.);
#480=VECTOR('',#840,1.);
#481=VECTOR('',#841,1.);
#482=VECTOR('',#842,1.);
#483=VECTOR('',#843,1.);
#484=VECTOR('',#844,1.);
#485=VECTOR('',#845,1.);
#486=VECTOR('',#846,1.);
#487=VECTOR('',#847,1.);
#488=VECTOR('',#850,1.);
#489=VECTOR('',#851,1.);
#490=VECTOR('',#852,1.);
#491=VECTOR('',#853,1.);
#492=VECTOR('',#854,1.);
#493=VECTOR('',#855,1.);
#494=VECTOR('',#856,1.);
#495=VECTOR('',#859,1.);
#496=VECTOR('',#860,1.);
#497=VECTOR('',#861,1.);
#498=VECTOR('',#864,1.);
#499=VECTOR('',#865,1.);
#500=VECTOR('',#866,1.);
#501=VECTOR('',#867,1.);
#502=VECTOR('',#868,1.);
#503=VECTOR('',#869,1.);
#504=VECTOR('',#870,1.);
#505=VECTOR('',#873,1.);
#506=VECTOR('',#876,1.);
#507=VECTOR('',#877,1.);
#508=VECTOR('',#882,1.);
#509=VECTOR('',#885,1.);
#510=VECTOR('',#886,1.);
#511=VECTOR('',#889,1.);
#512=VECTOR('',#892,1.);
#513=VECTOR('',#897,1.);
#514=VECTOR('',#898,1.);
#515=VECTOR('',#899,1.);
#516=VECTOR('',#900,1.);
#517=VECTOR('',#901,1.);
#518=VECTOR('',#902,1.);
#519=VECTOR('',#905,1.);
#520=VECTOR('',#906,1.);
#521=VECTOR('',#907,1.);
#522=VECTOR('',#910,1.);
#523=VECTOR('',#911,1.);
#524=VECTOR('',#912,1.);
#525=VECTOR('',#913,1.);
#526=VECTOR('',#914,1.);
#527=VECTOR('',#917,1.);
#528=VECTOR('',#918,1.);
#529=VECTOR('',#925,1.);
#530=VECTOR('',#926,1.);
#531=VECTOR('',#929,1.);
#532=VECTOR('',#934,1.);
#533=VECTOR('',#935,1.);
#534=VECTOR('',#938,1.);
#535=VECTOR('',#941,1.);
#536=VECTOR('',#978,1.);
#537=VECTOR('',#979,1.);
#538=VECTOR('',#980,1.);
#539=VECTOR('',#981,1.);
#540=VECTOR('',#984,1.);
#541=VECTOR('',#985,1.);
#542=VECTOR('',#986,1.);
#543=VECTOR('',#989,1.);
#544=VECTOR('',#990,1.);
#545=VECTOR('',#991,1.);
#546=VECTOR('',#994,1.);
#547=VECTOR('',#995,1.);
#548=EDGE_LOOP('',(#48,#49,#50,#51));
#549=EDGE_LOOP('',(#52,#53,#54,#55));
#550=EDGE_LOOP('',(#56,#57,#58,#59));
#551=EDGE_LOOP('',(#60,#61,#62,#63));
#552=EDGE_LOOP('',(#64,#65,#66,#67));
#553=EDGE_LOOP('',(#68,#69,#70,#71));
#554=EDGE_LOOP('',(#72,#73,#74,#75,#76,#77,#78,#79));
#555=EDGE_LOOP('',(#80,#81,#82,#83));
#556=EDGE_LOOP('',(#84,#85,#86,#87,#88,#89,#90,#91));
#557=EDGE_LOOP('',(#92,#93,#94,#95));
#558=EDGE_LOOP('',(#96,#97,#98,#99));
#559=EDGE_LOOP('',(#100,#101,#102,#103));
#560=EDGE_LOOP('',(#104,#105,#106,#107));
#561=EDGE_LOOP('',(#108,#109,#110,#111));
#562=EDGE_LOOP('',(#112,#113,#114,#115));
#563=EDGE_LOOP('',(#116,#117,#118,#119));
#564=EDGE_LOOP('',(#120,#121,#122,#123));
#565=EDGE_LOOP('',(#124,#125,#126,#127,#128,#129,#130,#131));
#566=EDGE_LOOP('',(#132,#133,#134,#135));
#567=EDGE_LOOP('',(#136,#137,#138,#139,#140,#141,#142,#143));
#568=EDGE_LOOP('',(#144,#145,#146,#147));
#569=EDGE_LOOP('',(#148,#149,#150,#151));
#570=EDGE_LOOP('',(#152,#153,#154,#155));
#571=EDGE_LOOP('',(#156,#157,#158,#159,#160,#161,#162,#163));
#572=EDGE_LOOP('',(#164,#165,#166,#167));
#573=EDGE_LOOP('',(#168,#169,#170,#171,#172,#173,#174,#175));
#574=EDGE_LOOP('',(#176,#177,#178,#179));
#575=EDGE_LOOP('',(#180,#181,#182,#183));
#576=EDGE_LOOP('',(#184,#185,#186,#187));
#577=EDGE_LOOP('',(#188,#189,#190,#191));
#578=EDGE_LOOP('',(#192));
#579=EDGE_LOOP('',(#193));
#580=EDGE_LOOP('',(#194));
#581=EDGE_LOOP('',(#195));
#582=EDGE_LOOP('',(#196));
#583=EDGE_LOOP('',(#197));
#584=EDGE_LOOP('',(#198));
#585=EDGE_LOOP('',(#199));
#586=EDGE_LOOP('',(#200));
#587=EDGE_LOOP('',(#201));
#588=EDGE_LOOP('',(#202));
#589=EDGE_LOOP('',(#203));
#590=EDGE_LOOP('',(#204,#205,#206,#207));
#591=EDGE_LOOP('',(#208,#209,#210,#211));
#592=EDGE_LOOP('',(#212,#213,#214,#215));
#593=EDGE_LOOP('',(#216,#217,#218,#219));
#594=EDGE_LOOP('',(#220,#221,#222,#223));
#595=EDGE_LOOP('',(#224,#225,#226,#227));
#596=FACE_BOUND('',#548,.T.);
#597=FACE_BOUND('',#549,.T.);
#598=FACE_BOUND('',#550,.T.);
#599=FACE_BOUND('',#551,.T.);
#600=FACE_BOUND('',#552,.T.);
#601=FACE_BOUND('',#553,.T.);
#602=FACE_BOUND('',#554,.T.);
#603=FACE_BOUND('',#555,.T.);
#604=FACE_BOUND('',#556,.T.);
#605=FACE_BOUND('',#557,.T.);
#606=FACE_BOUND('',#558,.T.);
#607=FACE_BOUND('',#559,.T.);
#608=FACE_BOUND('',#560,.T.);
#609=FACE_BOUND('',#561,.T.);
#610=FACE_BOUND('',#562,.T.);
#611=FACE_BOUND('',#563,.T.);
#612=FACE_BOUND('',#564,.T.);
#613=FACE_BOUND('',#565,.T.);
#614=FACE_BOUND('',#566,.T.);
#615=FACE_BOUND('',#567,.T.);
#616=FACE_BOUND('',#568,.T.);
#617=FACE_BOUND('',#569,.T.);
#618=FACE_BOUND('',#570,.T.);
#619=FACE_BOUND('',#571,.T.);
#620=FACE_BOUND('',#572,.T.);
#621=FACE_BOUND('',#573,.T.);
#622=FACE_BOUND('',#574,.T.);
#623=FACE_BOUND('',#575,.T.);
#624=FACE_BOUND('',#576,.T.);
#625=FACE_BOUND('',#577,.T.);
#626=FACE_BOUND('',#578,.T.);
#627=FACE_BOUND('',#579,.T.);
#628=FACE_BOUND('',#580,.T.);
#629=FACE_BOUND('',#581,.T.);
#630=FACE_BOUND('',#582,.T.);
#631=FACE_BOUND('',#583,.T.);
#632=FACE_BOUND('',#584,.T.);
#633=FACE_BOUND('',#585,.T.);
#634=FACE_BOUND('',#586,.T.);
#635=FACE_BOUND('',#587,.T.);
#636=FACE_BOUND('',#588,.T.);
#637=FACE_BOUND('',#589,.T.);
#638=FACE_BOUND('',#590,.T.);
#639=FACE_BOUND('',#591,.T.);
#640=FACE_BOUND('',#592,.T.);
#641=FACE_BOUND('',#593,.T.);
#642=FACE_BOUND('',#594,.T.);
#643=FACE_BOUND('',#595,.T.);
#644=PLANE('',#768);
#645=PLANE('',#769);
#646=PLANE('',#770);
#647=PLANE('',#771);
#648=PLANE('',#772);
#649=PLANE('',#773);
#650=PLANE('',#774);
#651=PLANE('',#775);
#652=PLANE('',#776);
#653=PLANE('',#777);
#654=PLANE('',#778);
#655=PLANE('',#779);
#656=PLANE('',#780);
#657=PLANE('',#781);
#658=PLANE('',#782);
#659=PLANE('',#783);
#660=PLANE('',#784);
#661=PLANE('',#785);
#662=PLANE('',#786);
#663=PLANE('',#787);
#664=PLANE('',#788);
#665=PLANE('',#789);
#666=PLANE('',#790);
#667=PLANE('',#791);
#668=PLANE('',#792);
#669=PLANE('',#793);
#670=PLANE('',#798);
#671=PLANE('',#800);
#672=PLANE('',#807);
#673=PLANE('',#808);
#674=PLANE('',#810);
#675=PLANE('',#811);
#676=PLANE('',#812);
#677=PLANE('',#813);
#678=PLANE('',#814);
#679=PLANE('',#815);
#680=ADVANCED_FACE('',(#596,#597,#598),#644,.T.);
#681=ADVANCED_FACE('',(#599,#600,#601),#645,.F.);
#682=ADVANCED_FACE('',(#602),#646,.T.);
#683=ADVANCED_FACE('',(#603),#647,.F.);
#684=ADVANCED_FACE('',(#604),#648,.F.);
#685=ADVANCED_FACE('',(#605),#649,.T.);
#686=ADVANCED_FACE('',(#606),#650,.T.);
#687=ADVANCED_FACE('',(#607),#651,.T.);
#688=ADVANCED_FACE('',(#608),#652,.F.);
#689=ADVANCED_FACE('',(#609),#653,.T.);
#690=ADVANCED_FACE('',(#610),#654,.F.);
#691=ADVANCED_FACE('',(#611),#655,.F.);
#692=ADVANCED_FACE('',(#612),#656,.T.);
#693=ADVANCED_FACE('',(#613),#657,.T.);
#694=ADVANCED_FACE('',(#614),#658,.F.);
#695=ADVANCED_FACE('',(#615),#659,.F.);
#696=ADVANCED_FACE('',(#616),#660,.F.);
#697=ADVANCED_FACE('',(#617),#661,.F.);
#698=ADVANCED_FACE('',(#618),#662,.T.);
#699=ADVANCED_FACE('',(#619),#663,.F.);
#700=ADVANCED_FACE('',(#620),#664,.T.);
#701=ADVANCED_FACE('',(#621),#665,.T.);
#702=ADVANCED_FACE('',(#622),#666,.T.);
#703=ADVANCED_FACE('',(#623),#667,.F.);
#704=ADVANCED_FACE('',(#624),#668,.F.);
#705=ADVANCED_FACE('',(#625),#669,.T.);
#706=ADVANCED_FACE('',(#626,#627),#16,.T.);
#707=ADVANCED_FACE('',(#628,#629),#670,.T.);
#708=ADVANCED_FACE('',(#630,#631),#671,.F.);
#709=ADVANCED_FACE('',(#632,#633),#17,.F.);
#710=ADVANCED_FACE('',(#634,#635),#18,.T.);
#711=ADVANCED_FACE('',(#636),#672,.T.);
#712=ADVANCED_FACE('',(#637),#673,.F.);
#713=ADVANCED_FACE('',(#638),#674,.T.);
#714=ADVANCED_FACE('',(#639),#675,.F.);
#715=ADVANCED_FACE('',(#640),#676,.F.);
#716=ADVANCED_FACE('',(#641),#677,.T.);
#717=ADVANCED_FACE('',(#642),#678,.T.);
#718=ADVANCED_FACE('',(#643),#679,.F.);
#719=CLOSED_SHELL('',(#680,#681,#682,#683,#684,#685,#686,#687,#688,#689,
#690,#691,#692,#693,#694,#695,#696,#697,#698,#699,#700,#701,#702,#703,#704,
#705));
#720=CLOSED_SHELL('',(#706,#707,#708,#709));
#721=CLOSED_SHELL('',(#710,#711,#712));
#722=CLOSED_SHELL('',(#713,#714,#715,#716,#717,#718));
#723=STYLED_ITEM('',(#727),#753);
#724=STYLED_ITEM('',(#728),#754);
#725=STYLED_ITEM('',(#729),#755);
#726=STYLED_ITEM('',(#730),#756);
#727=PRESENTATION_STYLE_ASSIGNMENT((#731));
#728=PRESENTATION_STYLE_ASSIGNMENT((#732));
#729=PRESENTATION_STYLE_ASSIGNMENT((#733));
#730=PRESENTATION_STYLE_ASSIGNMENT((#734));
#731=SURFACE_STYLE_USAGE(.BOTH.,#735);
#732=SURFACE_STYLE_USAGE(.BOTH.,#736);
#733=SURFACE_STYLE_USAGE(.BOTH.,#737);
#734=SURFACE_STYLE_USAGE(.BOTH.,#738);
#735=SURFACE_SIDE_STYLE('',(#739));
#736=SURFACE_SIDE_STYLE('',(#740));
#737=SURFACE_SIDE_STYLE('',(#741));
#738=SURFACE_SIDE_STYLE('',(#742));
#739=SURFACE_STYLE_FILL_AREA(#743);
#740=SURFACE_STYLE_FILL_AREA(#744);
#741=SURFACE_STYLE_FILL_AREA(#745);
#742=SURFACE_STYLE_FILL_AREA(#746);
#743=FILL_AREA_STYLE('',(#747));
#744=FILL_AREA_STYLE('',(#748));
#745=FILL_AREA_STYLE('',(#749));
#746=FILL_AREA_STYLE('',(#750));
#747=FILL_AREA_STYLE_COLOUR('',#751);
#748=FILL_AREA_STYLE_COLOUR('',#19);
#749=FILL_AREA_STYLE_COLOUR('',#752);
#750=FILL_AREA_STYLE_COLOUR('',#751);
#751=DRAUGHTING_PRE_DEFINED_COLOUR('black');
#752=DRAUGHTING_PRE_DEFINED_COLOUR('red');
#753=MANIFOLD_SOLID_BREP('Part 1',#719);
#754=MANIFOLD_SOLID_BREP('Part 1',#720);
#755=MANIFOLD_SOLID_BREP('Part 1',#721);
#756=MANIFOLD_SOLID_BREP('Part 1',#722);
#757=SHAPE_DEFINITION_REPRESENTATION(#1215,#762);
#758=SHAPE_DEFINITION_REPRESENTATION(#1216,#763);
#759=SHAPE_DEFINITION_REPRESENTATION(#1218,#764);
#760=SHAPE_DEFINITION_REPRESENTATION(#1220,#765);
#761=SHAPE_DEFINITION_REPRESENTATION(#1222,#766);
#762=SHAPE_REPRESENTATION('Case',(#767,#794,#803,#809,#816,#817),#1202);
#763=SHAPE_REPRESENTATION('Part 1',(#767),#1203);
#764=SHAPE_REPRESENTATION('Part 1',(#767),#1204);
#765=SHAPE_REPRESENTATION('Part 1',(#767),#1205);
#766=SHAPE_REPRESENTATION('Part 1',(#767),#1206);
#767=AXIS2_PLACEMENT_3D('',#1004,#818,#819);
#768=AXIS2_PLACEMENT_3D('',#1005,#820,#821);
#769=AXIS2_PLACEMENT_3D('',#1030,#834,#835);
#770=AXIS2_PLACEMENT_3D('',#1055,#848,#849);
#771=AXIS2_PLACEMENT_3D('',#1069,#857,#858);
#772=AXIS2_PLACEMENT_3D('',#1075,#862,#863);
#773=AXIS2_PLACEMENT_3D('',#1089,#871,#872);
#774=AXIS2_PLACEMENT_3D('',#1091,#874,#875);
#775=AXIS2_PLACEMENT_3D('',#1094,#878,#879);
#776=AXIS2_PLACEMENT_3D('',#1095,#880,#881);
#777=AXIS2_PLACEMENT_3D('',#1097,#883,#884);
#778=AXIS2_PLACEMENT_3D('',#1100,#887,#888);
#779=AXIS2_PLACEMENT_3D('',#1102,#890,#891);
#780=AXIS2_PLACEMENT_3D('',#1104,#893,#894);
#781=AXIS2_PLACEMENT_3D('',#1105,#895,#896);
#782=AXIS2_PLACEMENT_3D('',#1117,#903,#904);
#783=AXIS2_PLACEMENT_3D('',#1123,#908,#909);
#784=AXIS2_PLACEMENT_3D('',#1132,#915,#916);
#785=AXIS2_PLACEMENT_3D('',#1135,#919,#920);
#786=AXIS2_PLACEMENT_3D('',#1136,#921,#922);
#787=AXIS2_PLACEMENT_3D('',#1137,#923,#924);
#788=AXIS2_PLACEMENT_3D('',#1140,#927,#928);
#789=AXIS2_PLACEMENT_3D('',#1142,#930,#931);
#790=AXIS2_PLACEMENT_3D('',#1143,#932,#933);
#791=AXIS2_PLACEMENT_3D('',#1146,#936,#937);
#792=AXIS2_PLACEMENT_3D('',#1148,#939,#940);
#793=AXIS2_PLACEMENT_3D('',#1150,#942,#943);
#794=AXIS2_PLACEMENT_3D('',#1151,#944,#945);
#795=AXIS2_PLACEMENT_3D('',#1152,#946,#947);
#796=AXIS2_PLACEMENT_3D('',#1153,#948,#949);
#797=AXIS2_PLACEMENT_3D('',#1155,#950,#951);
#798=AXIS2_PLACEMENT_3D('',#1157,#952,#953);
#799=AXIS2_PLACEMENT_3D('',#1158,#954,#955);
#800=AXIS2_PLACEMENT_3D('',#1160,#956,#957);
#801=AXIS2_PLACEMENT_3D('',#1161,#958,#959);
#802=AXIS2_PLACEMENT_3D('',#1163,#960,#961);
#803=AXIS2_PLACEMENT_3D('',#1164,#962,#963);
#804=AXIS2_PLACEMENT_3D('',#1165,#964,#965);
#805=AXIS2_PLACEMENT_3D('',#1166,#966,#967);
#806=AXIS2_PLACEMENT_3D('',#1168,#968,#969);
#807=AXIS2_PLACEMENT_3D('',#1170,#970,#971);
#808=AXIS2_PLACEMENT_3D('',#1171,#972,#973);
#809=AXIS2_PLACEMENT_3D('',#1172,#974,#975);
#810=AXIS2_PLACEMENT_3D('',#1173,#976,#977);
#811=AXIS2_PLACEMENT_3D('',#1182,#982,#983);
#812=AXIS2_PLACEMENT_3D('',#1188,#987,#988);
#813=AXIS2_PLACEMENT_3D('',#1194,#992,#993);
#814=AXIS2_PLACEMENT_3D('',#1197,#996,#997);
#815=AXIS2_PLACEMENT_3D('',#1198,#998,#999);
#816=AXIS2_PLACEMENT_3D('',#1199,#1000,#1001);
#817=AXIS2_PLACEMENT_3D('',#1200,#1002,#1003);
#818=DIRECTION('',(0.,0.,1.));
#819=DIRECTION('',(1.,0.,0.));
#820=DIRECTION('',(0.,1.,0.));
#821=DIRECTION('',(0.,0.,1.));
#822=DIRECTION('',(0.,0.,-1.));
#823=DIRECTION('',(1.,0.,0.));
#824=DIRECTION('',(0.,0.,-1.));
#825=DIRECTION('',(1.,0.,0.));
#826=DIRECTION('',(-1.26161707343768E-16,0.,-1.));
#827=DIRECTION('',(-1.,0.,0.));
#828=DIRECTION('',(0.,0.,-1.));
#829=DIRECTION('',(-1.,0.,0.));
#830=DIRECTION('',(0.,0.,-1.));
#831=DIRECTION('',(-1.,0.,0.));
#832=DIRECTION('',(0.,0.,-1.));
#833=DIRECTION('',(-1.,0.,0.));
#834=DIRECTION('',(0.,1.,0.));
#835=DIRECTION('',(0.,0.,1.));
#836=DIRECTION('',(-1.,0.,0.));
#837=DIRECTION('',(-1.26161707343768E-16,0.,-1.));
#838=DIRECTION('',(-1.,0.,0.));
#839=DIRECTION('',(0.,0.,-1.));
#840=DIRECTION('',(0.,0.,-1.));
#841=DIRECTION('',(1.,0.,0.));
#842=DIRECTION('',(0.,0.,-1.));
#843=DIRECTION('',(1.,0.,0.));
#844=DIRECTION('',(-1.,0.,0.));
#845=DIRECTION('',(0.,0.,-1.));
#846=DIRECTION('',(-1.,0.,0.));
#847=DIRECTION('',(0.,0.,-1.));
#848=DIRECTION('',(1.,0.,0.));
#849=DIRECTION('',(0.,0.,-1.));
#850=DIRECTION('',(0.,0.342020143325668,0.939692620785908));
#851=DIRECTION('',(0.,-0.939692620785908,0.342020143325668));
#852=DIRECTION('',(0.,-1.,0.));
#853=DIRECTION('',(0.,0.,1.));
#854=DIRECTION('',(0.,-1.,0.));
#855=DIRECTION('',(0.,-1.,0.));
#856=DIRECTION('',(0.,-0.939692620785908,0.342020143325668));
#857=DIRECTION('',(0.,0.,1.));
#858=DIRECTION('',(1.,0.,0.));
#859=DIRECTION('',(1.,0.,0.));
#860=DIRECTION('',(0.,-1.,0.));
#861=DIRECTION('',(0.,-1.,0.));
#862=DIRECTION('',(1.,0.,0.));
#863=DIRECTION('',(0.,0.,-1.));
#864=DIRECTION('',(0.,0.342020143325668,0.939692620785908));
#865=DIRECTION('',(0.,-0.939692620785908,0.342020143325668));
#866=DIRECTION('',(0.,-1.,0.));
#867=DIRECTION('',(0.,-1.,0.));
#868=DIRECTION('',(0.,0.,1.));
#869=DIRECTION('',(0.,-1.,0.));
#870=DIRECTION('',(0.,-0.939692620785908,0.342020143325668));
#871=DIRECTION('',(0.,0.,1.));
#872=DIRECTION('',(1.,0.,0.));
#873=DIRECTION('',(-1.,0.,0.));
#874=DIRECTION('',(0.,-1.,0.));
#875=DIRECTION('',(0.,0.,-1.));
#876=DIRECTION('',(1.,0.,0.));
#877=DIRECTION('',(1.,0.,0.));
#878=DIRECTION('',(0.,0.,-1.));
#879=DIRECTION('',(1.,0.,0.));
#880=DIRECTION('',(0.,0.,-1.));
#881=DIRECTION('',(1.,0.,0.));
#882=DIRECTION('',(-1.,0.,0.));
#883=DIRECTION('',(0.,0.,-1.));
#884=DIRECTION('',(-1.,0.,0.));
#885=DIRECTION('',(0.,1.,0.));
#886=DIRECTION('',(0.,1.,0.));
#887=DIRECTION('',(1.,0.,-1.26161707343768E-16));
#888=DIRECTION('',(-1.26161707343768E-16,0.,-1.));
#889=DIRECTION('',(0.,1.,0.));
#890=DIRECTION('',(0.,0.,-1.));
#891=DIRECTION('',(-1.,0.,0.));
#892=DIRECTION('',(0.,1.,0.));
#893=DIRECTION('',(1.,0.,0.));
#894=DIRECTION('',(0.,0.,-1.));
#895=DIRECTION('',(1.,0.,0.));
#896=DIRECTION('',(0.,0.,-1.));
#897=DIRECTION('',(0.,0.939692620785908,-0.342020143325668));
#898=DIRECTION('',(0.,0.342020143325668,0.939692620785908));
#899=DIRECTION('',(0.,-1.,0.));
#900=DIRECTION('',(0.,0.,1.));
#901=DIRECTION('',(0.,-1.,0.));
#902=DIRECTION('',(0.,-0.342020143325668,-0.939692620785908));
#903=DIRECTION('',(0.,-0.939692620785908,0.342020143325668));
#904=DIRECTION('',(0.,0.342020143325668,0.939692620785908));
#905=DIRECTION('',(1.,0.,0.));
#906=DIRECTION('',(0.,0.342020143325668,0.939692620785908));
#907=DIRECTION('',(-1.,0.,0.));
#908=DIRECTION('',(1.,0.,0.));
#909=DIRECTION('',(0.,0.,-1.));
#910=DIRECTION('',(0.,0.939692620785908,-0.342020143325668));
#911=DIRECTION('',(0.,-0.342020143325668,-0.939692620785908));
#912=DIRECTION('',(0.,-1.,0.));
#913=DIRECTION('',(0.,0.,1.));
#914=DIRECTION('',(0.,-1.,0.));
#915=DIRECTION('',(0.,-1.,0.));
#916=DIRECTION('',(0.,0.,-1.));
#917=DIRECTION('',(1.,0.,0.));
#918=DIRECTION('',(1.,0.,0.));
#919=DIRECTION('',(0.,0.,-1.));
#920=DIRECTION('',(1.,0.,0.));
#921=DIRECTION('',(0.,0.,-1.));
#922=DIRECTION('',(1.,0.,0.));
#923=DIRECTION('',(0.,-0.342020143325668,-0.939692620785908));
#924=DIRECTION('',(0.,0.939692620785908,-0.342020143325668));
#925=DIRECTION('',(-1.,0.,0.));
#926=DIRECTION('',(-1.,0.,0.));
#927=DIRECTION('',(0.,-0.342020143325668,-0.939692620785908));
#928=DIRECTION('',(0.,0.939692620785908,-0.342020143325668));
#929=DIRECTION('',(-1.,0.,0.));
#930=DIRECTION('',(0.,-0.939692620785908,0.342020143325668));
#931=DIRECTION('',(1.,0.,0.));
#932=DIRECTION('',(0.,0.,-1.));
#933=DIRECTION('',(-1.,0.,0.));
#934=DIRECTION('',(0.,1.,0.));
#935=DIRECTION('',(0.,1.,0.));
#936=DIRECTION('',(1.,0.,0.));
#937=DIRECTION('',(0.,0.,-1.));
#938=DIRECTION('',(0.,1.,0.));
#939=DIRECTION('',(0.,0.,-1.));
#940=DIRECTION('',(-1.,0.,0.));
#941=DIRECTION('',(0.,1.,0.));
#942=DIRECTION('',(1.,0.,0.));
#943=DIRECTION('',(0.,0.,-1.));
#944=DIRECTION('',(0.,0.,1.));
#945=DIRECTION('',(1.,0.,0.));
#946=DIRECTION('',(0.,0.,-1.));
#947=DIRECTION('',(-1.,0.,0.));
#948=DIRECTION('',(0.,0.,1.));
#949=DIRECTION('',(1.,0.,0.));
#950=DIRECTION('',(0.,0.,1.));
#951=DIRECTION('',(1.,0.,0.));
#952=DIRECTION('',(0.,0.,1.));
#953=DIRECTION('',(1.,0.,0.));
#954=DIRECTION('',(0.,0.,1.));
#955=DIRECTION('',(1.,0.,0.));
#956=DIRECTION('',(0.,0.,1.));
#957=DIRECTION('',(1.,0.,0.));
#958=DIRECTION('',(0.,0.,1.));
#959=DIRECTION('',(1.,0.,0.));
#960=DIRECTION('',(0.,0.,1.));
#961=DIRECTION('',(1.,0.,0.));
#962=DIRECTION('',(0.,0.342020143325668,0.939692620785909));
#963=DIRECTION('',(1.,0.,0.));
#964=DIRECTION('',(0.,0.,-1.));
#965=DIRECTION('',(-1.,0.,0.));
#966=DIRECTION('',(0.,0.,1.));
#967=DIRECTION('',(1.,0.,0.));
#968=DIRECTION('',(0.,0.,1.));
#969=DIRECTION('',(1.,0.,0.));
#970=DIRECTION('',(0.,0.,1.));
#971=DIRECTION('',(1.,0.,0.));
#972=DIRECTION('',(0.,0.,1.));
#973=DIRECTION('',(1.,0.,0.));
#974=DIRECTION('',(0.,0.342020143325668,0.939692620785909));
#975=DIRECTION('',(1.,0.,0.));
#976=DIRECTION('',(1.,0.,4.33680868994202E-16));
#977=DIRECTION('',(4.33680868994202E-16,0.,-1.));
#978=DIRECTION('',(4.33680868994202E-16,0.,-1.));
#979=DIRECTION('',(0.,1.,0.));
#980=DIRECTION('',(4.33680868994202E-16,0.,-1.));
#981=DIRECTION('',(0.,1.,0.));
#982=DIRECTION('',(1.0842021724855E-16,0.,-1.));
#983=DIRECTION('',(-1.,0.,-1.0842021724855E-16));
#984=DIRECTION('',(-1.,0.,-1.0842021724855E-16));
#985=DIRECTION('',(0.,1.,0.));
#986=DIRECTION('',(-1.,0.,-1.0842021724855E-16));
#987=DIRECTION('',(1.,0.,0.));
#988=DIRECTION('',(0.,0.,-1.));
#989=DIRECTION('',(0.,0.,-1.));
#990=DIRECTION('',(0.,1.,0.));
#991=DIRECTION('',(0.,0.,-1.));
#992=DIRECTION('',(0.,0.,-1.));
#993=DIRECTION('',(-1.,0.,0.));
#994=DIRECTION('',(-1.,0.,0.));
#995=DIRECTION('',(-1.,0.,0.));
#996=DIRECTION('',(0.,-1.,0.));
#997=DIRECTION('',(1.,0.,0.));
#998=DIRECTION('',(0.,-1.,0.));
#999=DIRECTION('',(1.,0.,0.));
#1000=DIRECTION('',(0.,0.342020143325668,0.939692620785909));
#1001=DIRECTION('',(1.,0.,0.));
#1002=DIRECTION('',(0.,0.342020143325668,0.939692620785909));
#1003=DIRECTION('',(1.,0.,0.));
#1004=CARTESIAN_POINT('',(0.,0.,0.));
#1005=CARTESIAN_POINT('',(0.,0.075,0.256));
#1006=CARTESIAN_POINT('',(0.128,0.075,0.256));
#1007=CARTESIAN_POINT('',(0.128,0.075,0.256));
#1008=CARTESIAN_POINT('',(0.128,0.075,-0.01));
#1009=CARTESIAN_POINT('',(0.,0.075,-0.01));
#1010=CARTESIAN_POINT('',(-0.128,0.075,-0.01));
#1011=CARTESIAN_POINT('',(-0.128,0.075,0.256));
#1012=CARTESIAN_POINT('',(-0.128,0.075,0.256));
#1013=CARTESIAN_POINT('',(0.,0.075,0.256));
#1014=CARTESIAN_POINT('',(0.0995136044858401,0.075,0.183));
#1015=CARTESIAN_POINT('',(0.0995136044858401,0.075,0.238));
#1016=CARTESIAN_POINT('',(0.0995136044858401,0.075,0.128));
#1017=CARTESIAN_POINT('',(0.00251360448584009,0.075,0.238));
#1018=CARTESIAN_POINT('',(-0.0944863955141599,0.075,0.238));
#1019=CARTESIAN_POINT('',(-0.0944863955141599,0.075,0.183));
#1020=CARTESIAN_POINT('',(-0.0944863955141599,0.075,0.128));
#1021=CARTESIAN_POINT('',(0.00251360448584008,0.075,0.128));
#1022=CARTESIAN_POINT('',(0.110946527105781,0.075,0.0880393183861218));
#1023=CARTESIAN_POINT('',(0.110946527105781,0.075,0.0994393183861218));
#1024=CARTESIAN_POINT('',(0.110946527105781,0.075,0.0766393183861218));
#1025=CARTESIAN_POINT('',(0.0909465271057809,0.075,0.0994393183861218));
#1026=CARTESIAN_POINT('',(0.0709465271057809,0.075,0.0994393183861218));
#1027=CARTESIAN_POINT('',(0.0709465271057809,0.075,0.0880393183861218));
#1028=CARTESIAN_POINT('',(0.0709465271057809,0.075,0.0766393183861218));
#1029=CARTESIAN_POINT('',(0.0909465271057809,0.075,0.0766393183861218));
#1030=CARTESIAN_POINT('',(0.,0.0725,0.256));
#1031=CARTESIAN_POINT('',(0.,0.0725,0.238));
#1032=CARTESIAN_POINT('',(0.0995136044858401,0.0725,0.238));
#1033=CARTESIAN_POINT('',(-0.0944863955141599,0.0725,0.238));
#1034=CARTESIAN_POINT('',(0.0995136044858401,0.0725,0.256));
#1035=CARTESIAN_POINT('',(0.0995136044858401,0.0725,0.128));
#1036=CARTESIAN_POINT('',(0.,0.0725,0.128));
#1037=CARTESIAN_POINT('',(-0.0944863955141599,0.0725,0.128));
#1038=CARTESIAN_POINT('',(-0.0944863955141599,0.0725,0.256));
#1039=CARTESIAN_POINT('',(0.1255,0.0725,0.256));
#1040=CARTESIAN_POINT('',(0.1255,0.0725,0.2535));
#1041=CARTESIAN_POINT('',(0.1255,0.0725,-0.0075));
#1042=CARTESIAN_POINT('',(0.,0.0725,0.2535));
#1043=CARTESIAN_POINT('',(-0.1255,0.0725,0.2535));
#1044=CARTESIAN_POINT('',(-0.1255,0.0725,0.256));
#1045=CARTESIAN_POINT('',(-0.1255,0.0725,-0.0075));
#1046=CARTESIAN_POINT('',(0.,0.0725,-0.0075));
#1047=CARTESIAN_POINT('',(0.,0.0725,0.0994393183861218));
#1048=CARTESIAN_POINT('',(0.110946527105781,0.0725,0.0994393183861218));
#1049=CARTESIAN_POINT('',(0.0709465271057809,0.0725,0.0994393183861218));
#1050=CARTESIAN_POINT('',(0.110946527105781,0.0725,0.256));
#1051=CARTESIAN_POINT('',(0.110946527105781,0.0725,0.0766393183861218));
#1052=CARTESIAN_POINT('',(0.,0.0725,0.0766393183861218));
#1053=CARTESIAN_POINT('',(0.0709465271057809,0.0725,0.0766393183861218));
#1054=CARTESIAN_POINT('',(0.0709465271057809,0.0725,0.256));
#1055=CARTESIAN_POINT('',(0.128,1.38777878078145E-17,0.256));
#1056=CARTESIAN_POINT('',(0.128,-0.0703015368960704,-0.00171010071662834));
#1057=CARTESIAN_POINT('',(0.128,0.0228748430760774,0.254289899283371));
#1058=CARTESIAN_POINT('',(0.128,-0.0703015368960704,-0.00171010071662839));
#1059=CARTESIAN_POINT('',(0.128,-0.0703015368960704,-0.00171010071662834));
#1060=CARTESIAN_POINT('',(0.128,-0.075,0.));
#1061=CARTESIAN_POINT('',(0.128,1.38777878078145E-17,0.));
#1062=CARTESIAN_POINT('',(0.128,-0.181,0.));
#1063=CARTESIAN_POINT('',(0.128,-0.181,-0.01));
#1064=CARTESIAN_POINT('',(0.128,-0.181,-0.01));
#1065=CARTESIAN_POINT('',(0.128,1.38777878078145E-17,-0.01));
#1066=CARTESIAN_POINT('',(0.128,1.38777878078145E-17,0.256));
#1067=CARTESIAN_POINT('',(0.128,0.0181763799721479,0.256));
#1068=CARTESIAN_POINT('',(0.128,0.0228748430760774,0.254289899283371));
#1069=CARTESIAN_POINT('',(0.,1.38777878078145E-17,0.2535));
#1070=CARTESIAN_POINT('',(0.,0.0225873432488619,0.2535));
#1071=CARTESIAN_POINT('',(-0.1255,0.0225873432488619,0.2535));
#1072=CARTESIAN_POINT('',(0.1255,0.0225873432488619,0.2535));
#1073=CARTESIAN_POINT('',(-0.1255,1.38777878078145E-17,0.2535));
#1074=CARTESIAN_POINT('',(0.1255,1.38777878078145E-17,0.2535));
#1075=CARTESIAN_POINT('',(-0.128,1.38777878078145E-17,0.256));
#1076=CARTESIAN_POINT('',(-0.128,-0.0703015368960704,-0.00171010071662834));
#1077=CARTESIAN_POINT('',(-0.128,0.0228748430760774,0.254289899283371));
#1078=CARTESIAN_POINT('',(-0.128,-0.0703015368960704,-0.00171010071662834));
#1079=CARTESIAN_POINT('',(-0.128,0.0228748430760774,0.254289899283371));
#1080=CARTESIAN_POINT('',(-0.128,0.0181763799721479,0.256));
#1081=CARTESIAN_POINT('',(-0.128,1.38777878078145E-17,0.256));
#1082=CARTESIAN_POINT('',(-0.128,1.38777878078145E-17,-0.01));
#1083=CARTESIAN_POINT('',(-0.128,-0.181,-0.01));
#1084=CARTESIAN_POINT('',(-0.128,-0.181,-0.01));
#1085=CARTESIAN_POINT('',(-0.128,-0.181,0.));
#1086=CARTESIAN_POINT('',(-0.128,1.38777878078145E-17,0.));
#1087=CARTESIAN_POINT('',(-0.128,-0.075,0.));
#1088=CARTESIAN_POINT('',(-0.128,-0.0703015368960704,-0.00171010071662834));
#1089=CARTESIAN_POINT('',(0.,1.38777878078145E-17,0.256));
#1090=CARTESIAN_POINT('',(0.,0.0181763799721479,0.256));
#1091=CARTESIAN_POINT('',(-5.55111512312578E-17,-0.181,-0.01));
#1092=CARTESIAN_POINT('',(-5.55111512312578E-17,-0.181,0.));
#1093=CARTESIAN_POINT('',(-5.55111512312578E-17,-0.181,-0.01));
#1094=CARTESIAN_POINT('',(0.,-0.053,-0.01));
#1095=CARTESIAN_POINT('',(0.,-0.053,0.));
#1096=CARTESIAN_POINT('',(0.,-0.075,0.));
#1097=CARTESIAN_POINT('',(0.00251360448584009,0.07,0.238));
#1098=CARTESIAN_POINT('',(-0.0944863955141599,0.07,0.238));
#1099=CARTESIAN_POINT('',(0.0995136044858401,0.07,0.238));
#1100=CARTESIAN_POINT('',(0.0995136044858401,0.07,0.183));
#1101=CARTESIAN_POINT('',(0.0995136044858401,0.07,0.128));
#1102=CARTESIAN_POINT('',(0.00251360448584008,0.07,0.128));
#1103=CARTESIAN_POINT('',(-0.0944863955141599,0.07,0.128));
#1104=CARTESIAN_POINT('',(-0.0944863955141599,0.07,0.183));
#1105=CARTESIAN_POINT('',(-0.1255,1.38777878078145E-17,0.256));
#1106=CARTESIAN_POINT('',(-0.1255,-0.0910501474229153,0.00584177591752555));
#1107=CARTESIAN_POINT('',(-0.1255,-0.0726507684480352,-0.000855050358314171));
#1108=CARTESIAN_POINT('',(-0.1255,-0.0703015368960704,-0.00171010071662834));
#1109=CARTESIAN_POINT('',(-0.1255,-0.0726507684480352,-0.000855050358314172));
#1110=CARTESIAN_POINT('',(-0.1255,-0.0732494811544757,-0.0025));
#1111=CARTESIAN_POINT('',(-0.1255,-0.053,-0.0025));
#1112=CARTESIAN_POINT('',(-0.1255,-0.1785,-0.0025));
#1113=CARTESIAN_POINT('',(-0.1255,-0.1785,-0.01));
#1114=CARTESIAN_POINT('',(-0.1255,-0.1785,-0.0075));
#1115=CARTESIAN_POINT('',(-0.1255,-0.053,-0.0075));
#1116=CARTESIAN_POINT('',(-0.1255,0.0207486105268449,0.248448123365846));
#1117=CARTESIAN_POINT('',(0.,-0.0726507684480352,-0.000855050358314172));
#1118=CARTESIAN_POINT('',(0.,-0.0726507684480352,-0.000855050358314171));
#1119=CARTESIAN_POINT('',(0.1255,-0.0726507684480352,-0.000855050358314203));
#1120=CARTESIAN_POINT('',(0.1255,-0.0726507684480352,-0.000855050358314172));
#1121=CARTESIAN_POINT('',(0.1255,-0.0732494811544757,-0.0025));
#1122=CARTESIAN_POINT('',(0.,-0.0732494811544757,-0.0025));
#1123=CARTESIAN_POINT('',(0.1255,1.38777878078145E-17,0.256));
#1124=CARTESIAN_POINT('',(0.1255,-0.0910501474229153,0.00584177591752555));
#1125=CARTESIAN_POINT('',(0.1255,-0.0703015368960704,-0.00171010071662834));
#1126=CARTESIAN_POINT('',(0.1255,0.0207486105268449,0.248448123365846));
#1127=CARTESIAN_POINT('',(0.1255,-0.053,-0.0075));
#1128=CARTESIAN_POINT('',(0.1255,-0.1785,-0.0075));
#1129=CARTESIAN_POINT('',(0.1255,-0.1785,-0.01));
#1130=CARTESIAN_POINT('',(0.1255,-0.1785,-0.0025));
#1131=CARTESIAN_POINT('',(0.1255,-0.053,-0.0025));
#1132=CARTESIAN_POINT('',(-5.55111512312578E-17,-0.1785,-0.01));
#1133=CARTESIAN_POINT('',(-5.55111512312578E-17,-0.1785,-0.0025));
#1134=CARTESIAN_POINT('',(-5.55111512312578E-17,-0.1785,-0.0075));
#1135=CARTESIAN_POINT('',(0.,-0.053,-0.0075));
#1136=CARTESIAN_POINT('',(0.,-0.053,-0.0025));
#1137=CARTESIAN_POINT('',(0.,-0.0703015368960704,-0.00171010071662834));
#1138=CARTESIAN_POINT('',(0.,-0.0703015368960704,-0.00171010071662834));
#1139=CARTESIAN_POINT('',(0.,-0.0703015368960704,-0.00171010071662834));
#1140=CARTESIAN_POINT('',(0.,0.0228748430760773,0.254289899283371));
#1141=CARTESIAN_POINT('',(0.,0.0228748430760773,0.254289899283371));
#1142=CARTESIAN_POINT('',(0.,-0.0237133469099966,0.126289899283372));
#1143=CARTESIAN_POINT('',(0.0909465271057809,0.025,0.0994393183861218));
#1144=CARTESIAN_POINT('',(0.0709465271057809,0.025,0.0994393183861218));
#1145=CARTESIAN_POINT('',(0.110946527105781,0.025,0.0994393183861218));
#1146=CARTESIAN_POINT('',(0.110946527105781,0.025,0.0880393183861218));
#1147=CARTESIAN_POINT('',(0.110946527105781,0.025,0.0766393183861218));
#1148=CARTESIAN_POINT('',(0.0909465271057809,0.025,0.0766393183861218));
#1149=CARTESIAN_POINT('',(0.0709465271057809,0.025,0.0766393183861218));
#1150=CARTESIAN_POINT('',(0.0709465271057809,0.025,0.0880393183861218));
#1151=CARTESIAN_POINT('',(0.,0.,0.));
#1152=CARTESIAN_POINT('',(0.,3.06161699786838E-19,0.025));
#1153=CARTESIAN_POINT('',(0.,3.06161699786838E-19,0.025));
#1154=CARTESIAN_POINT('',(0.005,3.06161699786838E-19,0.025));
#1155=CARTESIAN_POINT('',(0.,3.06161699786838E-19,0.));
#1156=CARTESIAN_POINT('',(0.005,3.06161699786838E-19,0.));
#1157=CARTESIAN_POINT('',(0.,0.,0.025));
#1158=CARTESIAN_POINT('',(0.,2.4492935982947E-19,0.025));
#1159=CARTESIAN_POINT('',(0.004,2.4492935982947E-19,0.025));
#1160=CARTESIAN_POINT('',(0.,0.,0.));
#1161=CARTESIAN_POINT('',(0.,2.4492935982947E-19,0.));
#1162=CARTESIAN_POINT('',(0.004,2.4492935982947E-19,0.));
#1163=CARTESIAN_POINT('',(0.,2.4492935982947E-19,0.));
#1164=CARTESIAN_POINT('',(-0.122992494820279,-0.0130075261750928,0.141988623897765));
#1165=CARTESIAN_POINT('',(0.,2.4492935982947E-19,0.05));
#1166=CARTESIAN_POINT('',(0.,2.4492935982947E-19,0.05));
#1167=CARTESIAN_POINT('',(0.004,2.4492935982947E-19,0.05));
#1168=CARTESIAN_POINT('',(0.,2.4492935982947E-19,0.));
#1169=CARTESIAN_POINT('',(0.004,2.4492935982947E-19,0.));
#1170=CARTESIAN_POINT('',(0.,0.,0.05));
#1171=CARTESIAN_POINT('',(0.,0.,0.));
#1172=CARTESIAN_POINT('',(-0.122610882279127,-0.0103607488589908,0.14656727783496));
#1173=CARTESIAN_POINT('',(-0.328585385146575,-0.005,0.00935887090030903));
#1174=CARTESIAN_POINT('',(-0.328585385146575,0.,0.00935887090030903));
#1175=CARTESIAN_POINT('',(-0.328585385146575,0.,0.137358870900309));
#1176=CARTESIAN_POINT('',(-0.328585385146575,0.,-0.118641129099691));
#1177=CARTESIAN_POINT('',(-0.328585385146575,-0.005,0.137358870900309));
#1178=CARTESIAN_POINT('',(-0.328585385146575,-0.005,0.137358870900309));
#1179=CARTESIAN_POINT('',(-0.328585385146575,-0.005,0.00935887090030903));
#1180=CARTESIAN_POINT('',(-0.328585385146575,-0.005,-0.118641129099691));
#1181=CARTESIAN_POINT('',(-0.328585385146575,-0.005,-0.118641129099691));
#1182=CARTESIAN_POINT('',(-0.456585385146575,-0.005,0.137358870900309));
#1183=CARTESIAN_POINT('',(-0.456585385146575,0.,0.137358870900309));
#1184=CARTESIAN_POINT('',(-0.584585385146575,0.,0.137358870900309));
#1185=CARTESIAN_POINT('',(-0.584585385146575,-0.005,0.137358870900309));
#1186=CARTESIAN_POINT('',(-0.584585385146575,-0.005,0.137358870900309));
#1187=CARTESIAN_POINT('',(-0.456585385146575,-0.005,0.137358870900309));
#1188=CARTESIAN_POINT('',(-0.584585385146575,-0.005,0.00935887090030896));
#1189=CARTESIAN_POINT('',(-0.584585385146575,0.,0.00935887090030896));
#1190=CARTESIAN_POINT('',(-0.584585385146575,0.,-0.118641129099691));
#1191=CARTESIAN_POINT('',(-0.584585385146575,-0.005,-0.118641129099691));
#1192=CARTESIAN_POINT('',(-0.584585385146575,-0.005,-0.118641129099691));
#1193=CARTESIAN_POINT('',(-0.584585385146575,-0.005,0.00935887090030896));
#1194=CARTESIAN_POINT('',(-0.456585385146575,-0.005,-0.118641129099691));
#1195=CARTESIAN_POINT('',(-0.456585385146575,0.,-0.118641129099691));
#1196=CARTESIAN_POINT('',(-0.456585385146575,-0.005,-0.118641129099691));
#1197=CARTESIAN_POINT('',(-0.456585385146575,-0.005,0.00935887090030896));
#1198=CARTESIAN_POINT('',(-0.456585385146575,0.,0.00935887090030896));
#1199=CARTESIAN_POINT('',(0.453504966116137,-0.0212442143802097,0.120023736134374));
#1200=CARTESIAN_POINT('',(-0.122610882279127,-0.00181024527584914,0.170059593354608));
#1201=MECHANICAL_DESIGN_GEOMETRIC_PRESENTATION_REPRESENTATION('',(#723,
#724,#725,#726),#1202);
#1202=(
GEOMETRIC_REPRESENTATION_CONTEXT(3)
GLOBAL_UNCERTAINTY_ASSIGNED_CONTEXT((#1207))
GLOBAL_UNIT_ASSIGNED_CONTEXT((#1214,#1213,#1212))
REPRESENTATION_CONTEXT('Case','TOP_LEVEL_ASSEMBLY_PART')
);
#1203=(
GEOMETRIC_REPRESENTATION_CONTEXT(3)
GLOBAL_UNCERTAINTY_ASSIGNED_CONTEXT((#1208))
GLOBAL_UNIT_ASSIGNED_CONTEXT((#1214,#1213,#1212))
REPRESENTATION_CONTEXT('Part 1','COMPONENT_PART')
);
#1204=(
GEOMETRIC_REPRESENTATION_CONTEXT(3)
GLOBAL_UNCERTAINTY_ASSIGNED_CONTEXT((#1209))
GLOBAL_UNIT_ASSIGNED_CONTEXT((#1214,#1213,#1212))
REPRESENTATION_CONTEXT('Part 1','COMPONENT_PART')
);
#1205=(
GEOMETRIC_REPRESENTATION_CONTEXT(3)
GLOBAL_UNCERTAINTY_ASSIGNED_CONTEXT((#1210))
GLOBAL_UNIT_ASSIGNED_CONTEXT((#1214,#1213,#1212))
REPRESENTATION_CONTEXT('Part 1','COMPONENT_PART')
);
#1206=(
GEOMETRIC_REPRESENTATION_CONTEXT(3)
GLOBAL_UNCERTAINTY_ASSIGNED_CONTEXT((#1211))
GLOBAL_UNIT_ASSIGNED_CONTEXT((#1214,#1213,#1212))
REPRESENTATION_CONTEXT('Part 1','COMPONENT_PART')
);
#1207=UNCERTAINTY_MEASURE_WITH_UNIT(LENGTH_MEASURE(1.E-8),#1214,
'DISTANCE_ACCURACY_VALUE','Maximum Tolerance applied to model');
#1208=UNCERTAINTY_MEASURE_WITH_UNIT(LENGTH_MEASURE(1.E-8),#1214,
'DISTANCE_ACCURACY_VALUE','Maximum Tolerance applied to model');
#1209=UNCERTAINTY_MEASURE_WITH_UNIT(LENGTH_MEASURE(1.E-8),#1214,
'DISTANCE_ACCURACY_VALUE','Maximum Tolerance applied to model');
#1210=UNCERTAINTY_MEASURE_WITH_UNIT(LENGTH_MEASURE(1.E-8),#1214,
'DISTANCE_ACCURACY_VALUE','Maximum Tolerance applied to model');
#1211=UNCERTAINTY_MEASURE_WITH_UNIT(LENGTH_MEASURE(1.E-8),#1214,
'DISTANCE_ACCURACY_VALUE','Maximum Tolerance applied to model');
#1212=(
NAMED_UNIT(*)
SI_UNIT($,.STERADIAN.)
SOLID_ANGLE_UNIT()
);
#1213=(
NAMED_UNIT(*)
PLANE_ANGLE_UNIT()
SI_UNIT($,.RADIAN.)
);
#1214=(
LENGTH_UNIT()
NAMED_UNIT(*)
SI_UNIT($,.METRE.)
);
#1215=PRODUCT_DEFINITION_SHAPE('','',#1225);
#1216=PRODUCT_DEFINITION_SHAPE('','',#1226);
#1217=PRODUCT_DEFINITION_SHAPE(' ','NAUO PRDDFN',#25);
#1218=PRODUCT_DEFINITION_SHAPE('','',#1227);
#1219=PRODUCT_DEFINITION_SHAPE(' ','NAUO PRDDFN',#26);
#1220=PRODUCT_DEFINITION_SHAPE('','',#1228);
#1221=PRODUCT_DEFINITION_SHAPE(' ','NAUO PRDDFN',#27);
#1222=PRODUCT_DEFINITION_SHAPE('','',#1229);
#1223=PRODUCT_DEFINITION_SHAPE(' ','NAUO PRDDFN',#28);
#1224=PRODUCT_DEFINITION_SHAPE(' ','NAUO PRDDFN',#29);
#1225=PRODUCT_DEFINITION('','',#1235,#1230);
#1226=PRODUCT_DEFINITION('','',#1236,#1231);
#1227=PRODUCT_DEFINITION('','',#1237,#1232);
#1228=PRODUCT_DEFINITION('','',#1238,#1233);
#1229=PRODUCT_DEFINITION('','',#1239,#1234);
#1230=PRODUCT_DEFINITION_CONTEXT('',#1261,'design');
#1231=PRODUCT_DEFINITION_CONTEXT('',#1261,'design');
#1232=PRODUCT_DEFINITION_CONTEXT('',#1261,'design');
#1233=PRODUCT_DEFINITION_CONTEXT('',#1261,'design');
#1234=PRODUCT_DEFINITION_CONTEXT('',#1261,'design');
#1235=PRODUCT_DEFINITION_FORMATION_WITH_SPECIFIED_SOURCE('','',#1245,
 .NOT_KNOWN.);
#1236=PRODUCT_DEFINITION_FORMATION_WITH_SPECIFIED_SOURCE('','',#1246,
 .NOT_KNOWN.);
#1237=PRODUCT_DEFINITION_FORMATION_WITH_SPECIFIED_SOURCE('','',#1247,
 .NOT_KNOWN.);
#1238=PRODUCT_DEFINITION_FORMATION_WITH_SPECIFIED_SOURCE('','',#1248,
 .NOT_KNOWN.);
#1239=PRODUCT_DEFINITION_FORMATION_WITH_SPECIFIED_SOURCE('','',#1249,
 .NOT_KNOWN.);
#1240=PRODUCT_RELATED_PRODUCT_CATEGORY('','',(#1245));
#1241=PRODUCT_RELATED_PRODUCT_CATEGORY('','',(#1246));
#1242=PRODUCT_RELATED_PRODUCT_CATEGORY('','',(#1247));
#1243=PRODUCT_RELATED_PRODUCT_CATEGORY('','',(#1248));
#1244=PRODUCT_RELATED_PRODUCT_CATEGORY('','',(#1249));
#1245=PRODUCT('Case','Case','Case',(#1255));
#1246=PRODUCT('Part 1','Part 1','Part 1',(#1256));
#1247=PRODUCT('Part 1','Part 1','Part 1',(#1257));
#1248=PRODUCT('Part 1','Part 1','Part 1',(#1258));
#1249=PRODUCT('Part 1','Part 1','Part 1',(#1259));
#1250=PRODUCT_CATEGORY('','');
#1251=PRODUCT_CATEGORY('','');
#1252=PRODUCT_CATEGORY('','');
#1253=PRODUCT_CATEGORY('','');
#1254=PRODUCT_CATEGORY('','');
#1255=PRODUCT_CONTEXT('',#1261,'mechanical');
#1256=PRODUCT_CONTEXT('',#1261,'mechanical');
#1257=PRODUCT_CONTEXT('',#1261,'mechanical');
#1258=PRODUCT_CONTEXT('',#1261,'mechanical');
#1259=PRODUCT_CONTEXT('',#1261,'mechanical');
#1260=APPLICATION_PROTOCOL_DEFINITION('international standard',
'ap242_managed_model_based_3d_engineering',2020,#1261);
#1261=APPLICATION_CONTEXT('managed model based 3d engineering');
ENDSEC;
END-ISO-10303-21;
