ISO-10303-21;
HEADER;
/* Generated by software containing ST-Developer
 * from STEP Tools, Inc. (www.steptools.com) 
 */
/* OPTION: using custom renumber hook */

FILE_DESCRIPTION(
/* description */ ('STEP AP242 Edition 2',
'CAx-IF Rec.Pracs.---Representation and Presentation of Product Manufa
cturing Information (PMI)---4.0---2014-10-13',
'CAx-IF Rec.Pracs.---3D Tessellated Geometry---0.4---2014-09-14','2;1',
'CAx-IF Rec.Pracs.---User Defined Attributes---1.5---2016-08-15'),
/* implementation_level */ '2;1');

FILE_NAME(
/* name */ '6a7a9c1a3bbc436cf44245c8',
/* time_stamp */ '2026-08-11T03:50:50Z',
/* author */ (''),
/* organization */ (''),
/* preprocessor_version */ 'ST-DEVELOPER v20',
/* originating_system */ 'ONSHAPE BY PTC INC, 1.219',
/* authorisation */ '  ');

FILE_SCHEMA (('AP242_MANAGED_MODEL_BASED_3D_ENGINEERING_MIM_LF { 1 0 10303 442 3 1 4 }'));
ENDSEC;

DATA;
#10=CIRCLE('',#704,0.005);
#11=CIRCLE('',#705,0.005);
#12=CIRCLE('',#707,0.004);
#13=CIRCLE('',#709,0.004);
#14=CIRCLE('',#713,0.004);
#15=CIRCLE('',#714,0.004);
#16=CYLINDRICAL_SURFACE('',#703,0.005);
#17=CYLINDRICAL_SURFACE('',#710,0.004);
#18=CYLINDRICAL_SURFACE('',#712,0.004);
#19=COLOUR_RGB('',0.917647058823529,0.917647058823529,0.917647058823529);
#20=CONTEXT_DEPENDENT_SHAPE_REPRESENTATION(#30,#1081);
#21=CONTEXT_DEPENDENT_SHAPE_REPRESENTATION(#31,#1083);
#22=CONTEXT_DEPENDENT_SHAPE_REPRESENTATION(#32,#1085);
#23=CONTEXT_DEPENDENT_SHAPE_REPRESENTATION(#33,#1087);
#24=CONTEXT_DEPENDENT_SHAPE_REPRESENTATION(#34,#1088);
#25=NEXT_ASSEMBLY_USAGE_OCCURRENCE('NAUO1','Part 1','Part 1',#1089,#1090,
'');
#26=NEXT_ASSEMBLY_USAGE_OCCURRENCE('NAUO2','Part 1','Part 1',#1089,#1091,
'');
#27=NEXT_ASSEMBLY_USAGE_OCCURRENCE('NAUO3','Part 1','Part 1',#1089,#1092,
'');
#28=NEXT_ASSEMBLY_USAGE_OCCURRENCE('NAUO4','Part 1','Part 1',#1089,#1093,
'');
#29=NEXT_ASSEMBLY_USAGE_OCCURRENCE('NAUO5','Part 1','Part 1',#1089,#1091,
'');
#30=(
REPRESENTATION_RELATIONSHIP(' ',' ',#675,#674)
REPRESENTATION_RELATIONSHIP_WITH_TRANSFORMATION(#35)
SHAPE_REPRESENTATION_RELATIONSHIP()
);
#31=(
REPRESENTATION_RELATIONSHIP(' ',' ',#676,#674)
REPRESENTATION_RELATIONSHIP_WITH_TRANSFORMATION(#36)
SHAPE_REPRESENTATION_RELATIONSHIP()
);
#32=(
REPRESENTATION_RELATIONSHIP(' ',' ',#677,#674)
REPRESENTATION_RELATIONSHIP_WITH_TRANSFORMATION(#37)
SHAPE_REPRESENTATION_RELATIONSHIP()
);
#33=(
REPRESENTATION_RELATIONSHIP(' ',' ',#678,#674)
REPRESENTATION_RELATIONSHIP_WITH_TRANSFORMATION(#38)
SHAPE_REPRESENTATION_RELATIONSHIP()
);
#34=(
REPRESENTATION_RELATIONSHIP(' ',' ',#676,#674)
REPRESENTATION_RELATIONSHIP_WITH_TRANSFORMATION(#39)
SHAPE_REPRESENTATION_RELATIONSHIP()
);
#35=ITEM_DEFINED_TRANSFORMATION(' ',' ',#679,#702);
#36=ITEM_DEFINED_TRANSFORMATION(' ',' ',#679,#711);
#37=ITEM_DEFINED_TRANSFORMATION(' ',' ',#679,#717);
#38=ITEM_DEFINED_TRANSFORMATION(' ',' ',#679,#724);
#39=ITEM_DEFINED_TRANSFORMATION(' ',' ',#679,#725);
#40=SHAPE_REPRESENTATION_RELATIONSHIP('','',#675,#44);
#41=SHAPE_REPRESENTATION_RELATIONSHIP('','',#676,#45);
#42=SHAPE_REPRESENTATION_RELATIONSHIP('','',#677,#46);
#43=SHAPE_REPRESENTATION_RELATIONSHIP('','',#678,#47);
#44=ADVANCED_BREP_SHAPE_REPRESENTATION('',(#665),#1067);
#45=ADVANCED_BREP_SHAPE_REPRESENTATION('',(#666),#1068);
#46=ADVANCED_BREP_SHAPE_REPRESENTATION('',(#667),#1069);
#47=ADVANCED_BREP_SHAPE_REPRESENTATION('',(#668),#1070);
#48=ORIENTED_EDGE('',*,*,#204,.T.);
#49=ORIENTED_EDGE('',*,*,#205,.T.);
#50=ORIENTED_EDGE('',*,*,#206,.T.);
#51=ORIENTED_EDGE('',*,*,#207,.F.);
#52=ORIENTED_EDGE('',*,*,#208,.F.);
#53=ORIENTED_EDGE('',*,*,#209,.F.);
#54=ORIENTED_EDGE('',*,*,#210,.T.);
#55=ORIENTED_EDGE('',*,*,#211,.F.);
#56=ORIENTED_EDGE('',*,*,#212,.F.);
#57=ORIENTED_EDGE('',*,*,#213,.F.);
#58=ORIENTED_EDGE('',*,*,#214,.T.);
#59=ORIENTED_EDGE('',*,*,#215,.T.);
#60=ORIENTED_EDGE('',*,*,#209,.T.);
#61=ORIENTED_EDGE('',*,*,#216,.F.);
#62=ORIENTED_EDGE('',*,*,#217,.F.);
#63=ORIENTED_EDGE('',*,*,#218,.T.);
#64=ORIENTED_EDGE('',*,*,#219,.F.);
#65=ORIENTED_EDGE('',*,*,#220,.T.);
#66=ORIENTED_EDGE('',*,*,#221,.T.);
#67=ORIENTED_EDGE('',*,*,#222,.F.);
#68=ORIENTED_EDGE('',*,*,#223,.F.);
#69=ORIENTED_EDGE('',*,*,#224,.T.);
#70=ORIENTED_EDGE('',*,*,#225,.F.);
#71=ORIENTED_EDGE('',*,*,#217,.T.);
#72=ORIENTED_EDGE('',*,*,#226,.T.);
#73=ORIENTED_EDGE('',*,*,#227,.T.);
#74=ORIENTED_EDGE('',*,*,#228,.F.);
#75=ORIENTED_EDGE('',*,*,#229,.F.);
#76=ORIENTED_EDGE('',*,*,#218,.F.);
#77=ORIENTED_EDGE('',*,*,#225,.T.);
#78=ORIENTED_EDGE('',*,*,#230,.T.);
#79=ORIENTED_EDGE('',*,*,#210,.F.);
#80=ORIENTED_EDGE('',*,*,#231,.F.);
#81=ORIENTED_EDGE('',*,*,#227,.F.);
#82=ORIENTED_EDGE('',*,*,#232,.T.);
#83=ORIENTED_EDGE('',*,*,#207,.T.);
#84=ORIENTED_EDGE('',*,*,#226,.F.);
#85=ORIENTED_EDGE('',*,*,#216,.T.);
#86=ORIENTED_EDGE('',*,*,#208,.T.);
#87=ORIENTED_EDGE('',*,*,#232,.F.);
#88=ORIENTED_EDGE('',*,*,#233,.F.);
#89=ORIENTED_EDGE('',*,*,#228,.T.);
#90=ORIENTED_EDGE('',*,*,#231,.T.);
#91=ORIENTED_EDGE('',*,*,#206,.F.);
#92=ORIENTED_EDGE('',*,*,#234,.T.);
#93=ORIENTED_EDGE('',*,*,#235,.T.);
#94=ORIENTED_EDGE('',*,*,#220,.F.);
#95=ORIENTED_EDGE('',*,*,#236,.F.);
#96=ORIENTED_EDGE('',*,*,#236,.T.);
#97=ORIENTED_EDGE('',*,*,#219,.T.);
#98=ORIENTED_EDGE('',*,*,#237,.F.);
#99=ORIENTED_EDGE('',*,*,#238,.F.);
#100=ORIENTED_EDGE('',*,*,#237,.T.);
#101=ORIENTED_EDGE('',*,*,#222,.T.);
#102=ORIENTED_EDGE('',*,*,#239,.F.);
#103=ORIENTED_EDGE('',*,*,#240,.F.);
#104=ORIENTED_EDGE('',*,*,#241,.T.);
#105=ORIENTED_EDGE('',*,*,#239,.T.);
#106=ORIENTED_EDGE('',*,*,#221,.F.);
#107=ORIENTED_EDGE('',*,*,#235,.F.);
#108=ORIENTED_EDGE('',*,*,#242,.F.);
#109=ORIENTED_EDGE('',*,*,#214,.F.);
#110=ORIENTED_EDGE('',*,*,#243,.T.);
#111=ORIENTED_EDGE('',*,*,#244,.T.);
#112=ORIENTED_EDGE('',*,*,#234,.F.);
#113=ORIENTED_EDGE('',*,*,#238,.T.);
#114=ORIENTED_EDGE('',*,*,#240,.T.);
#115=ORIENTED_EDGE('',*,*,#241,.F.);
#116=ORIENTED_EDGE('',*,*,#245,.F.);
#117=ORIENTED_EDGE('',*,*,#246,.T.);
#118=ORIENTED_EDGE('',*,*,#247,.T.);
#119=ORIENTED_EDGE('',*,*,#248,.F.);
#120=ORIENTED_EDGE('',*,*,#249,.F.);
#121=ORIENTED_EDGE('',*,*,#243,.F.);
#122=ORIENTED_EDGE('',*,*,#213,.T.);
#123=ORIENTED_EDGE('',*,*,#250,.T.);
#124=ORIENTED_EDGE('',*,*,#251,.F.);
#125=ORIENTED_EDGE('',*,*,#252,.T.);
#126=ORIENTED_EDGE('',*,*,#253,.F.);
#127=ORIENTED_EDGE('',*,*,#246,.F.);
#128=ORIENTED_EDGE('',*,*,#252,.F.);
#129=ORIENTED_EDGE('',*,*,#254,.T.);
#130=ORIENTED_EDGE('',*,*,#255,.F.);
#131=ORIENTED_EDGE('',*,*,#215,.F.);
#132=ORIENTED_EDGE('',*,*,#242,.T.);
#133=ORIENTED_EDGE('',*,*,#256,.T.);
#134=ORIENTED_EDGE('',*,*,#257,.T.);
#135=ORIENTED_EDGE('',*,*,#258,.F.);
#136=ORIENTED_EDGE('',*,*,#259,.T.);
#137=ORIENTED_EDGE('',*,*,#257,.F.);
#138=ORIENTED_EDGE('',*,*,#260,.F.);
#139=ORIENTED_EDGE('',*,*,#248,.T.);
#140=ORIENTED_EDGE('',*,*,#249,.T.);
#141=ORIENTED_EDGE('',*,*,#260,.T.);
#142=ORIENTED_EDGE('',*,*,#256,.F.);
#143=ORIENTED_EDGE('',*,*,#244,.F.);
#144=ORIENTED_EDGE('',*,*,#253,.T.);
#145=ORIENTED_EDGE('',*,*,#258,.T.);
#146=ORIENTED_EDGE('',*,*,#259,.F.);
#147=ORIENTED_EDGE('',*,*,#247,.F.);
#148=ORIENTED_EDGE('',*,*,#245,.T.);
#149=ORIENTED_EDGE('',*,*,#261,.F.);
#150=ORIENTED_EDGE('',*,*,#229,.T.);
#151=ORIENTED_EDGE('',*,*,#233,.T.);
#152=ORIENTED_EDGE('',*,*,#205,.F.);
#153=ORIENTED_EDGE('',*,*,#262,.F.);
#154=ORIENTED_EDGE('',*,*,#254,.F.);
#155=ORIENTED_EDGE('',*,*,#251,.T.);
#156=ORIENTED_EDGE('',*,*,#230,.F.);
#157=ORIENTED_EDGE('',*,*,#224,.F.);
#158=ORIENTED_EDGE('',*,*,#263,.T.);
#159=ORIENTED_EDGE('',*,*,#211,.T.);
#160=ORIENTED_EDGE('',*,*,#212,.T.);
#161=ORIENTED_EDGE('',*,*,#255,.T.);
#162=ORIENTED_EDGE('',*,*,#262,.T.);
#163=ORIENTED_EDGE('',*,*,#204,.F.);
#164=ORIENTED_EDGE('',*,*,#263,.F.);
#165=ORIENTED_EDGE('',*,*,#223,.T.);
#166=ORIENTED_EDGE('',*,*,#261,.T.);
#167=ORIENTED_EDGE('',*,*,#250,.F.);
#168=ORIENTED_EDGE('',*,*,#264,.F.);
#169=ORIENTED_EDGE('',*,*,#265,.T.);
#170=ORIENTED_EDGE('',*,*,#266,.F.);
#171=ORIENTED_EDGE('',*,*,#264,.T.);
#172=ORIENTED_EDGE('',*,*,#267,.T.);
#173=ORIENTED_EDGE('',*,*,#265,.F.);
#174=ORIENTED_EDGE('',*,*,#267,.F.);
#175=ORIENTED_EDGE('',*,*,#266,.T.);
#176=ORIENTED_EDGE('',*,*,#268,.F.);
#177=ORIENTED_EDGE('',*,*,#269,.T.);
#178=ORIENTED_EDGE('',*,*,#268,.T.);
#179=ORIENTED_EDGE('',*,*,#269,.F.);
#180=ORIENTED_EDGE('',*,*,#270,.F.);
#181=ORIENTED_EDGE('',*,*,#271,.F.);
#182=ORIENTED_EDGE('',*,*,#272,.T.);
#183=ORIENTED_EDGE('',*,*,#273,.T.);
#184=ORIENTED_EDGE('',*,*,#274,.T.);
#185=ORIENTED_EDGE('',*,*,#275,.F.);
#186=ORIENTED_EDGE('',*,*,#276,.F.);
#187=ORIENTED_EDGE('',*,*,#271,.T.);
#188=ORIENTED_EDGE('',*,*,#277,.T.);
#189=ORIENTED_EDGE('',*,*,#278,.F.);
#190=ORIENTED_EDGE('',*,*,#279,.F.);
#191=ORIENTED_EDGE('',*,*,#275,.T.);
#192=ORIENTED_EDGE('',*,*,#280,.F.);
#193=ORIENTED_EDGE('',*,*,#273,.F.);
#194=ORIENTED_EDGE('',*,*,#281,.T.);
#195=ORIENTED_EDGE('',*,*,#278,.T.);
#196=ORIENTED_EDGE('',*,*,#272,.F.);
#197=ORIENTED_EDGE('',*,*,#276,.T.);
#198=ORIENTED_EDGE('',*,*,#279,.T.);
#199=ORIENTED_EDGE('',*,*,#281,.F.);
#200=ORIENTED_EDGE('',*,*,#270,.T.);
#201=ORIENTED_EDGE('',*,*,#280,.T.);
#202=ORIENTED_EDGE('',*,*,#277,.F.);
#203=ORIENTED_EDGE('',*,*,#274,.F.);
#204=EDGE_CURVE('',#282,#283,#336,.F.);
#205=EDGE_CURVE('',#283,#284,#337,.T.);
#206=EDGE_CURVE('',#284,#285,#338,.T.);
#207=EDGE_CURVE('',#286,#285,#339,.T.);
#208=EDGE_CURVE('',#287,#286,#340,.T.);
#209=EDGE_CURVE('',#288,#287,#341,.T.);
#210=EDGE_CURVE('',#288,#289,#342,.T.);
#211=EDGE_CURVE('',#282,#289,#343,.T.);
#212=EDGE_CURVE('',#290,#291,#344,.T.);
#213=EDGE_CURVE('',#292,#290,#345,.T.);
#214=EDGE_CURVE('',#292,#293,#346,.T.);
#215=EDGE_CURVE('',#293,#291,#347,.T.);
#216=EDGE_CURVE('',#294,#287,#348,.T.);
#217=EDGE_CURVE('',#295,#294,#349,.T.);
#218=EDGE_CURVE('',#295,#288,#350,.T.);
#219=EDGE_CURVE('',#296,#297,#351,.T.);
#220=EDGE_CURVE('',#296,#298,#352,.T.);
#221=EDGE_CURVE('',#298,#299,#353,.T.);
#222=EDGE_CURVE('',#297,#299,#354,.T.);
#223=EDGE_CURVE('',#300,#301,#355,.F.);
#224=EDGE_CURVE('',#300,#302,#356,.T.);
#225=EDGE_CURVE('',#295,#302,#357,.T.);
#226=EDGE_CURVE('',#294,#303,#358,.T.);
#227=EDGE_CURVE('',#303,#304,#359,.T.);
#228=EDGE_CURVE('',#305,#304,#360,.T.);
#229=EDGE_CURVE('',#301,#305,#361,.T.);
#230=EDGE_CURVE('',#302,#289,#362,.F.);
#231=EDGE_CURVE('',#304,#285,#363,.T.);
#232=EDGE_CURVE('',#303,#286,#364,.T.);
#233=EDGE_CURVE('',#305,#284,#365,.F.);
#234=EDGE_CURVE('',#306,#307,#366,.T.);
#235=EDGE_CURVE('',#307,#298,#367,.T.);
#236=EDGE_CURVE('',#306,#296,#368,.T.);
#237=EDGE_CURVE('',#308,#297,#369,.T.);
#238=EDGE_CURVE('',#306,#308,#370,.T.);
#239=EDGE_CURVE('',#309,#299,#371,.T.);
#240=EDGE_CURVE('',#308,#309,#372,.T.);
#241=EDGE_CURVE('',#307,#309,#373,.T.);
#242=EDGE_CURVE('',#293,#310,#374,.T.);
#243=EDGE_CURVE('',#292,#311,#375,.T.);
#244=EDGE_CURVE('',#311,#310,#376,.T.);
#245=EDGE_CURVE('',#312,#313,#377,.T.);
#246=EDGE_CURVE('',#312,#314,#378,.F.);
#247=EDGE_CURVE('',#314,#315,#379,.T.);
#248=EDGE_CURVE('',#316,#315,#380,.T.);
#249=EDGE_CURVE('',#311,#316,#381,.T.);
#250=EDGE_CURVE('',#290,#313,#382,.T.);
#251=EDGE_CURVE('',#317,#312,#383,.F.);
#252=EDGE_CURVE('',#317,#318,#384,.F.);
#253=EDGE_CURVE('',#314,#318,#385,.F.);
#254=EDGE_CURVE('',#317,#319,#386,.T.);
#255=EDGE_CURVE('',#291,#319,#387,.T.);
#256=EDGE_CURVE('',#310,#320,#388,.T.);
#257=EDGE_CURVE('',#320,#321,#389,.T.);
#258=EDGE_CURVE('',#318,#321,#390,.T.);
#259=EDGE_CURVE('',#315,#321,#391,.T.);
#260=EDGE_CURVE('',#316,#320,#392,.T.);
#261=EDGE_CURVE('',#301,#313,#393,.F.);
#262=EDGE_CURVE('',#319,#283,#394,.F.);
#263=EDGE_CURVE('',#300,#282,#395,.F.);
#264=EDGE_CURVE('',#322,#322,#10,.T.);
#265=EDGE_CURVE('',#323,#323,#11,.T.);
#266=EDGE_CURVE('',#324,#324,#12,.T.);
#267=EDGE_CURVE('',#325,#325,#13,.T.);
#268=EDGE_CURVE('',#326,#326,#14,.T.);
#269=EDGE_CURVE('',#327,#327,#15,.T.);
#270=EDGE_CURVE('',#328,#329,#396,.T.);
#271=EDGE_CURVE('',#330,#328,#397,.T.);
#272=EDGE_CURVE('',#330,#331,#398,.T.);
#273=EDGE_CURVE('',#331,#329,#399,.T.);
#274=EDGE_CURVE('',#328,#332,#400,.T.);
#275=EDGE_CURVE('',#333,#332,#401,.T.);
#276=EDGE_CURVE('',#330,#333,#402,.T.);
#277=EDGE_CURVE('',#332,#334,#403,.T.);
#278=EDGE_CURVE('',#335,#334,#404,.T.);
#279=EDGE_CURVE('',#333,#335,#405,.T.);
#280=EDGE_CURVE('',#329,#334,#406,.T.);
#281=EDGE_CURVE('',#331,#335,#407,.T.);
#282=VERTEX_POINT('',#895);
#283=VERTEX_POINT('',#896);
#284=VERTEX_POINT('',#898);
#285=VERTEX_POINT('',#900);
#286=VERTEX_POINT('',#902);
#287=VERTEX_POINT('',#904);
#288=VERTEX_POINT('',#906);
#289=VERTEX_POINT('',#908);
#290=VERTEX_POINT('',#912);
#291=VERTEX_POINT('',#913);
#292=VERTEX_POINT('',#915);
#293=VERTEX_POINT('',#917);
#294=VERTEX_POINT('',#921);
#295=VERTEX_POINT('',#923);
#296=VERTEX_POINT('',#926);
#297=VERTEX_POINT('',#927);
#298=VERTEX_POINT('',#929);
#299=VERTEX_POINT('',#931);
#300=VERTEX_POINT('',#935);
#301=VERTEX_POINT('',#936);
#302=VERTEX_POINT('',#938);
#303=VERTEX_POINT('',#941);
#304=VERTEX_POINT('',#943);
#305=VERTEX_POINT('',#945);
#306=VERTEX_POINT('',#957);
#307=VERTEX_POINT('',#958);
#308=VERTEX_POINT('',#963);
#309=VERTEX_POINT('',#967);
#310=VERTEX_POINT('',#973);
#311=VERTEX_POINT('',#975);
#312=VERTEX_POINT('',#979);
#313=VERTEX_POINT('',#980);
#314=VERTEX_POINT('',#982);
#315=VERTEX_POINT('',#984);
#316=VERTEX_POINT('',#986);
#317=VERTEX_POINT('',#991);
#318=VERTEX_POINT('',#993);
#319=VERTEX_POINT('',#997);
#320=VERTEX_POINT('',#1000);
#321=VERTEX_POINT('',#1002);
#322=VERTEX_POINT('',#1018);
#323=VERTEX_POINT('',#1020);
#324=VERTEX_POINT('',#1023);
#325=VERTEX_POINT('',#1026);
#326=VERTEX_POINT('',#1031);
#327=VERTEX_POINT('',#1033);
#328=VERTEX_POINT('',#1039);
#329=VERTEX_POINT('',#1040);
#330=VERTEX_POINT('',#1042);
#331=VERTEX_POINT('',#1044);
#332=VERTEX_POINT('',#1048);
#333=VERTEX_POINT('',#1050);
#334=VERTEX_POINT('',#1054);
#335=VERTEX_POINT('',#1056);
#336=LINE('',#894,#408);
#337=LINE('',#897,#409);
#338=LINE('',#899,#410);
#339=LINE('',#901,#411);
#340=LINE('',#903,#412);
#341=LINE('',#905,#413);
#342=LINE('',#907,#414);
#343=LINE('',#909,#415);
#344=LINE('',#911,#416);
#345=LINE('',#914,#417);
#346=LINE('',#916,#418);
#347=LINE('',#918,#419);
#348=LINE('',#920,#420);
#349=LINE('',#922,#421);
#350=LINE('',#924,#422);
#351=LINE('',#925,#423);
#352=LINE('',#928,#424);
#353=LINE('',#930,#425);
#354=LINE('',#932,#426);
#355=LINE('',#934,#427);
#356=LINE('',#937,#428);
#357=LINE('',#939,#429);
#358=LINE('',#940,#430);
#359=LINE('',#942,#431);
#360=LINE('',#944,#432);
#361=LINE('',#946,#433);
#362=LINE('',#948,#434);
#363=LINE('',#950,#435);
#364=LINE('',#951,#436);
#365=LINE('',#954,#437);
#366=LINE('',#956,#438);
#367=LINE('',#959,#439);
#368=LINE('',#960,#440);
#369=LINE('',#962,#441);
#370=LINE('',#964,#442);
#371=LINE('',#966,#443);
#372=LINE('',#968,#444);
#373=LINE('',#970,#445);
#374=LINE('',#972,#446);
#375=LINE('',#974,#447);
#376=LINE('',#976,#448);
#377=LINE('',#978,#449);
#378=LINE('',#981,#450);
#379=LINE('',#983,#451);
#380=LINE('',#985,#452);
#381=LINE('',#987,#453);
#382=LINE('',#988,#454);
#383=LINE('',#990,#455);
#384=LINE('',#992,#456);
#385=LINE('',#994,#457);
#386=LINE('',#996,#458);
#387=LINE('',#998,#459);
#388=LINE('',#999,#460);
#389=LINE('',#1001,#461);
#390=LINE('',#1003,#462);
#391=LINE('',#1005,#463);
#392=LINE('',#1006,#464);
#393=LINE('',#1010,#465);
#394=LINE('',#1011,#466);
#395=LINE('',#1013,#467);
#396=LINE('',#1038,#468);
#397=LINE('',#1041,#469);
#398=LINE('',#1043,#470);
#399=LINE('',#1045,#471);
#400=LINE('',#1047,#472);
#401=LINE('',#1049,#473);
#402=LINE('',#1051,#474);
#403=LINE('',#1053,#475);
#404=LINE('',#1055,#476);
#405=LINE('',#1057,#477);
#406=LINE('',#1059,#478);
#407=LINE('',#1060,#479);
#408=VECTOR('',#730,1.);
#409=VECTOR('',#731,1.);
#410=VECTOR('',#732,1.);
#411=VECTOR('',#733,1.);
#412=VECTOR('',#734,1.);
#413=VECTOR('',#735,1.);
#414=VECTOR('',#736,1.);
#415=VECTOR('',#737,1.);
#416=VECTOR('',#740,1.);
#417=VECTOR('',#741,1.);
#418=VECTOR('',#742,1.);
#419=VECTOR('',#743,1.);
#420=VECTOR('',#746,1.);
#421=VECTOR('',#747,1.);
#422=VECTOR('',#748,1.);
#423=VECTOR('',#749,1.);
#424=VECTOR('',#750,1.);
#425=VECTOR('',#751,1.);
#426=VECTOR('',#752,1.);
#427=VECTOR('',#755,1.);
#428=VECTOR('',#756,1.);
#429=VECTOR('',#757,1.);
#430=VECTOR('',#758,1.);
#431=VECTOR('',#759,1.);
#432=VECTOR('',#760,1.);
#433=VECTOR('',#761,1.);
#434=VECTOR('',#764,1.);
#435=VECTOR('',#767,1.);
#436=VECTOR('',#768,1.);
#437=VECTOR('',#773,1.);
#438=VECTOR('',#776,1.);
#439=VECTOR('',#777,1.);
#440=VECTOR('',#778,1.);
#441=VECTOR('',#781,1.);
#442=VECTOR('',#782,1.);
#443=VECTOR('',#785,1.);
#444=VECTOR('',#786,1.);
#445=VECTOR('',#789,1.);
#446=VECTOR('',#792,1.);
#447=VECTOR('',#793,1.);
#448=VECTOR('',#794,1.);
#449=VECTOR('',#797,1.);
#450=VECTOR('',#798,1.);
#451=VECTOR('',#799,1.);
#452=VECTOR('',#800,1.);
#453=VECTOR('',#801,1.);
#454=VECTOR('',#802,1.);
#455=VECTOR('',#805,1.);
#456=VECTOR('',#806,1.);
#457=VECTOR('',#807,1.);
#458=VECTOR('',#810,1.);
#459=VECTOR('',#811,1.);
#460=VECTOR('',#812,1.);
#461=VECTOR('',#813,1.);
#462=VECTOR('',#814,1.);
#463=VECTOR('',#817,1.);
#464=VECTOR('',#818,1.);
#465=VECTOR('',#825,1.);
#466=VECTOR('',#826,1.);
#467=VECTOR('',#829,1.);
#468=VECTOR('',#866,1.);
#469=VECTOR('',#867,1.);
#470=VECTOR('',#868,1.);
#471=VECTOR('',#869,1.);
#472=VECTOR('',#872,1.);
#473=VECTOR('',#873,1.);
#474=VECTOR('',#874,1.);
#475=VECTOR('',#877,1.);
#476=VECTOR('',#878,1.);
#477=VECTOR('',#879,1.);
#478=VECTOR('',#882,1.);
#479=VECTOR('',#883,1.);
#480=EDGE_LOOP('',(#48,#49,#50,#51,#52,#53,#54,#55));
#481=EDGE_LOOP('',(#56,#57,#58,#59));
#482=EDGE_LOOP('',(#60,#61,#62,#63));
#483=EDGE_LOOP('',(#64,#65,#66,#67));
#484=EDGE_LOOP('',(#68,#69,#70,#71,#72,#73,#74,#75));
#485=EDGE_LOOP('',(#76,#77,#78,#79));
#486=EDGE_LOOP('',(#80,#81,#82,#83));
#487=EDGE_LOOP('',(#84,#85,#86,#87));
#488=EDGE_LOOP('',(#88,#89,#90,#91));
#489=EDGE_LOOP('',(#92,#93,#94,#95));
#490=EDGE_LOOP('',(#96,#97,#98,#99));
#491=EDGE_LOOP('',(#100,#101,#102,#103));
#492=EDGE_LOOP('',(#104,#105,#106,#107));
#493=EDGE_LOOP('',(#108,#109,#110,#111));
#494=EDGE_LOOP('',(#112,#113,#114,#115));
#495=EDGE_LOOP('',(#116,#117,#118,#119,#120,#121,#122,#123));
#496=EDGE_LOOP('',(#124,#125,#126,#127));
#497=EDGE_LOOP('',(#128,#129,#130,#131,#132,#133,#134,#135));
#498=EDGE_LOOP('',(#136,#137,#138,#139));
#499=EDGE_LOOP('',(#140,#141,#142,#143));
#500=EDGE_LOOP('',(#144,#145,#146,#147));
#501=EDGE_LOOP('',(#148,#149,#150,#151,#152,#153,#154,#155));
#502=EDGE_LOOP('',(#156,#157,#158,#159));
#503=EDGE_LOOP('',(#160,#161,#162,#163,#164,#165,#166,#167));
#504=EDGE_LOOP('',(#168));
#505=EDGE_LOOP('',(#169));
#506=EDGE_LOOP('',(#170));
#507=EDGE_LOOP('',(#171));
#508=EDGE_LOOP('',(#172));
#509=EDGE_LOOP('',(#173));
#510=EDGE_LOOP('',(#174));
#511=EDGE_LOOP('',(#175));
#512=EDGE_LOOP('',(#176));
#513=EDGE_LOOP('',(#177));
#514=EDGE_LOOP('',(#178));
#515=EDGE_LOOP('',(#179));
#516=EDGE_LOOP('',(#180,#181,#182,#183));
#517=EDGE_LOOP('',(#184,#185,#186,#187));
#518=EDGE_LOOP('',(#188,#189,#190,#191));
#519=EDGE_LOOP('',(#192,#193,#194,#195));
#520=EDGE_LOOP('',(#196,#197,#198,#199));
#521=EDGE_LOOP('',(#200,#201,#202,#203));
#522=FACE_BOUND('',#480,.T.);
#523=FACE_BOUND('',#481,.T.);
#524=FACE_BOUND('',#482,.T.);
#525=FACE_BOUND('',#483,.T.);
#526=FACE_BOUND('',#484,.T.);
#527=FACE_BOUND('',#485,.T.);
#528=FACE_BOUND('',#486,.T.);
#529=FACE_BOUND('',#487,.T.);
#530=FACE_BOUND('',#488,.T.);
#531=FACE_BOUND('',#489,.T.);
#532=FACE_BOUND('',#490,.T.);
#533=FACE_BOUND('',#491,.T.);
#534=FACE_BOUND('',#492,.T.);
#535=FACE_BOUND('',#493,.T.);
#536=FACE_BOUND('',#494,.T.);
#537=FACE_BOUND('',#495,.T.);
#538=FACE_BOUND('',#496,.T.);
#539=FACE_BOUND('',#497,.T.);
#540=FACE_BOUND('',#498,.T.);
#541=FACE_BOUND('',#499,.T.);
#542=FACE_BOUND('',#500,.T.);
#543=FACE_BOUND('',#501,.T.);
#544=FACE_BOUND('',#502,.T.);
#545=FACE_BOUND('',#503,.T.);
#546=FACE_BOUND('',#504,.T.);
#547=FACE_BOUND('',#505,.T.);
#548=FACE_BOUND('',#506,.T.);
#549=FACE_BOUND('',#507,.T.);
#550=FACE_BOUND('',#508,.T.);
#551=FACE_BOUND('',#509,.T.);
#552=FACE_BOUND('',#510,.T.);
#553=FACE_BOUND('',#511,.T.);
#554=FACE_BOUND('',#512,.T.);
#555=FACE_BOUND('',#513,.T.);
#556=FACE_BOUND('',#514,.T.);
#557=FACE_BOUND('',#515,.T.);
#558=FACE_BOUND('',#516,.T.);
#559=FACE_BOUND('',#517,.T.);
#560=FACE_BOUND('',#518,.T.);
#561=FACE_BOUND('',#519,.T.);
#562=FACE_BOUND('',#520,.T.);
#563=FACE_BOUND('',#521,.T.);
#564=PLANE('',#680);
#565=PLANE('',#681);
#566=PLANE('',#682);
#567=PLANE('',#683);
#568=PLANE('',#684);
#569=PLANE('',#685);
#570=PLANE('',#686);
#571=PLANE('',#687);
#572=PLANE('',#688);
#573=PLANE('',#689);
#574=PLANE('',#690);
#575=PLANE('',#691);
#576=PLANE('',#692);
#577=PLANE('',#693);
#578=PLANE('',#694);
#579=PLANE('',#695);
#580=PLANE('',#696);
#581=PLANE('',#697);
#582=PLANE('',#698);
#583=PLANE('',#699);
#584=PLANE('',#700);
#585=PLANE('',#701);
#586=PLANE('',#706);
#587=PLANE('',#708);
#588=PLANE('',#715);
#589=PLANE('',#716);
#590=PLANE('',#718);
#591=PLANE('',#719);
#592=PLANE('',#720);
#593=PLANE('',#721);
#594=PLANE('',#722);
#595=PLANE('',#723);
#596=ADVANCED_FACE('',(#522),#564,.T.);
#597=ADVANCED_FACE('',(#523),#565,.F.);
#598=ADVANCED_FACE('',(#524,#525),#566,.T.);
#599=ADVANCED_FACE('',(#526),#567,.F.);
#600=ADVANCED_FACE('',(#527),#568,.T.);
#601=ADVANCED_FACE('',(#528),#569,.T.);
#602=ADVANCED_FACE('',(#529),#570,.T.);
#603=ADVANCED_FACE('',(#530),#571,.F.);
#604=ADVANCED_FACE('',(#531),#572,.T.);
#605=ADVANCED_FACE('',(#532),#573,.F.);
#606=ADVANCED_FACE('',(#533),#574,.F.);
#607=ADVANCED_FACE('',(#534),#575,.T.);
#608=ADVANCED_FACE('',(#535,#536),#576,.F.);
#609=ADVANCED_FACE('',(#537),#577,.T.);
#610=ADVANCED_FACE('',(#538),#578,.F.);
#611=ADVANCED_FACE('',(#539),#579,.F.);
#612=ADVANCED_FACE('',(#540),#580,.F.);
#613=ADVANCED_FACE('',(#541),#581,.F.);
#614=ADVANCED_FACE('',(#542),#582,.T.);
#615=ADVANCED_FACE('',(#543),#583,.F.);
#616=ADVANCED_FACE('',(#544),#584,.T.);
#617=ADVANCED_FACE('',(#545),#585,.T.);
#618=ADVANCED_FACE('',(#546,#547),#16,.T.);
#619=ADVANCED_FACE('',(#548,#549),#586,.T.);
#620=ADVANCED_FACE('',(#550,#551),#587,.F.);
#621=ADVANCED_FACE('',(#552,#553),#17,.F.);
#622=ADVANCED_FACE('',(#554,#555),#18,.T.);
#623=ADVANCED_FACE('',(#556),#588,.T.);
#624=ADVANCED_FACE('',(#557),#589,.F.);
#625=ADVANCED_FACE('',(#558),#590,.T.);
#626=ADVANCED_FACE('',(#559),#591,.F.);
#627=ADVANCED_FACE('',(#560),#592,.F.);
#628=ADVANCED_FACE('',(#561),#593,.T.);
#629=ADVANCED_FACE('',(#562),#594,.T.);
#630=ADVANCED_FACE('',(#563),#595,.F.);
#631=CLOSED_SHELL('',(#596,#597,#598,#599,#600,#601,#602,#603,#604,#605,
#606,#607,#608,#609,#610,#611,#612,#613,#614,#615,#616,#617));
#632=CLOSED_SHELL('',(#618,#619,#620,#621));
#633=CLOSED_SHELL('',(#622,#623,#624));
#634=CLOSED_SHELL('',(#625,#626,#627,#628,#629,#630));
#635=STYLED_ITEM('',(#639),#665);
#636=STYLED_ITEM('',(#640),#666);
#637=STYLED_ITEM('',(#641),#667);
#638=STYLED_ITEM('',(#642),#668);
#639=PRESENTATION_STYLE_ASSIGNMENT((#643));
#640=PRESENTATION_STYLE_ASSIGNMENT((#644));
#641=PRESENTATION_STYLE_ASSIGNMENT((#645));
#642=PRESENTATION_STYLE_ASSIGNMENT((#646));
#643=SURFACE_STYLE_USAGE(.BOTH.,#647);
#644=SURFACE_STYLE_USAGE(.BOTH.,#648);
#645=SURFACE_STYLE_USAGE(.BOTH.,#649);
#646=SURFACE_STYLE_USAGE(.BOTH.,#650);
#647=SURFACE_SIDE_STYLE('',(#651));
#648=SURFACE_SIDE_STYLE('',(#652));
#649=SURFACE_SIDE_STYLE('',(#653));
#650=SURFACE_SIDE_STYLE('',(#654));
#651=SURFACE_STYLE_FILL_AREA(#655);
#652=SURFACE_STYLE_FILL_AREA(#656);
#653=SURFACE_STYLE_FILL_AREA(#657);
#654=SURFACE_STYLE_FILL_AREA(#658);
#655=FILL_AREA_STYLE('',(#659));
#656=FILL_AREA_STYLE('',(#660));
#657=FILL_AREA_STYLE('',(#661));
#658=FILL_AREA_STYLE('',(#662));
#659=FILL_AREA_STYLE_COLOUR('',#663);
#660=FILL_AREA_STYLE_COLOUR('',#19);
#661=FILL_AREA_STYLE_COLOUR('',#664);
#662=FILL_AREA_STYLE_COLOUR('',#663);
#663=DRAUGHTING_PRE_DEFINED_COLOUR('black');
#664=DRAUGHTING_PRE_DEFINED_COLOUR('red');
#665=MANIFOLD_SOLID_BREP('Part 1',#631);
#666=MANIFOLD_SOLID_BREP('Part 1',#632);
#667=MANIFOLD_SOLID_BREP('Part 1',#633);
#668=MANIFOLD_SOLID_BREP('Part 1',#634);
#669=SHAPE_DEFINITION_REPRESENTATION(#1079,#674);
#670=SHAPE_DEFINITION_REPRESENTATION(#1080,#675);
#671=SHAPE_DEFINITION_REPRESENTATION(#1082,#676);
#672=SHAPE_DEFINITION_REPRESENTATION(#1084,#677);
#673=SHAPE_DEFINITION_REPRESENTATION(#1086,#678);
#674=SHAPE_REPRESENTATION('Case',(#679,#702,#711,#717,#724,#725),#1066);
#675=SHAPE_REPRESENTATION('Part 1',(#679),#1067);
#676=SHAPE_REPRESENTATION('Part 1',(#679),#1068);
#677=SHAPE_REPRESENTATION('Part 1',(#679),#1069);
#678=SHAPE_REPRESENTATION('Part 1',(#679),#1070);
#679=AXIS2_PLACEMENT_3D('',#892,#726,#727);
#680=AXIS2_PLACEMENT_3D('',#893,#728,#729);
#681=AXIS2_PLACEMENT_3D('',#910,#738,#739);
#682=AXIS2_PLACEMENT_3D('',#919,#744,#745);
#683=AXIS2_PLACEMENT_3D('',#933,#753,#754);
#684=AXIS2_PLACEMENT_3D('',#947,#762,#763);
#685=AXIS2_PLACEMENT_3D('',#949,#765,#766);
#686=AXIS2_PLACEMENT_3D('',#952,#769,#770);
#687=AXIS2_PLACEMENT_3D('',#953,#771,#772);
#688=AXIS2_PLACEMENT_3D('',#955,#774,#775);
#689=AXIS2_PLACEMENT_3D('',#961,#779,#780);
#690=AXIS2_PLACEMENT_3D('',#965,#783,#784);
#691=AXIS2_PLACEMENT_3D('',#969,#787,#788);
#692=AXIS2_PLACEMENT_3D('',#971,#790,#791);
#693=AXIS2_PLACEMENT_3D('',#977,#795,#796);
#694=AXIS2_PLACEMENT_3D('',#989,#803,#804);
#695=AXIS2_PLACEMENT_3D('',#995,#808,#809);
#696=AXIS2_PLACEMENT_3D('',#1004,#815,#816);
#697=AXIS2_PLACEMENT_3D('',#1007,#819,#820);
#698=AXIS2_PLACEMENT_3D('',#1008,#821,#822);
#699=AXIS2_PLACEMENT_3D('',#1009,#823,#824);
#700=AXIS2_PLACEMENT_3D('',#1012,#827,#828);
#701=AXIS2_PLACEMENT_3D('',#1014,#830,#831);
#702=AXIS2_PLACEMENT_3D('',#1015,#832,#833);
#703=AXIS2_PLACEMENT_3D('',#1016,#834,#835);
#704=AXIS2_PLACEMENT_3D('',#1017,#836,#837);
#705=AXIS2_PLACEMENT_3D('',#1019,#838,#839);
#706=AXIS2_PLACEMENT_3D('',#1021,#840,#841);
#707=AXIS2_PLACEMENT_3D('',#1022,#842,#843);
#708=AXIS2_PLACEMENT_3D('',#1024,#844,#845);
#709=AXIS2_PLACEMENT_3D('',#1025,#846,#847);
#710=AXIS2_PLACEMENT_3D('',#1027,#848,#849);
#711=AXIS2_PLACEMENT_3D('',#1028,#850,#851);
#712=AXIS2_PLACEMENT_3D('',#1029,#852,#853);
#713=AXIS2_PLACEMENT_3D('',#1030,#854,#855);
#714=AXIS2_PLACEMENT_3D('',#1032,#856,#857);
#715=AXIS2_PLACEMENT_3D('',#1034,#858,#859);
#716=AXIS2_PLACEMENT_3D('',#1035,#860,#861);
#717=AXIS2_PLACEMENT_3D('',#1036,#862,#863);
#718=AXIS2_PLACEMENT_3D('',#1037,#864,#865);
#719=AXIS2_PLACEMENT_3D('',#1046,#870,#871);
#720=AXIS2_PLACEMENT_3D('',#1052,#875,#876);
#721=AXIS2_PLACEMENT_3D('',#1058,#880,#881);
#722=AXIS2_PLACEMENT_3D('',#1061,#884,#885);
#723=AXIS2_PLACEMENT_3D('',#1062,#886,#887);
#724=AXIS2_PLACEMENT_3D('',#1063,#888,#889);
#725=AXIS2_PLACEMENT_3D('',#1064,#890,#891);
#726=DIRECTION('',(0.,0.,1.));
#727=DIRECTION('',(1.,0.,0.));
#728=DIRECTION('',(1.,0.,0.));
#729=DIRECTION('',(0.,0.,-1.));
#730=DIRECTION('',(0.,0.342020143325668,0.939692620785908));
#731=DIRECTION('',(0.,-0.939692620785908,0.342020143325668));
#732=DIRECTION('',(0.,-1.,0.));
#733=DIRECTION('',(0.,0.,1.));
#734=DIRECTION('',(0.,-1.,0.));
#735=DIRECTION('',(0.,0.,-1.));
#736=DIRECTION('',(0.,-1.,0.));
#737=DIRECTION('',(0.,-0.939692620785908,0.342020143325668));
#738=DIRECTION('',(0.,0.,1.));
#739=DIRECTION('',(1.,0.,0.));
#740=DIRECTION('',(1.,0.,0.));
#741=DIRECTION('',(0.,-1.,0.));
#742=DIRECTION('',(1.,0.,0.));
#743=DIRECTION('',(0.,-1.,0.));
#744=DIRECTION('',(0.,1.,0.));
#745=DIRECTION('',(0.,0.,1.));
#746=DIRECTION('',(1.,0.,0.));
#747=DIRECTION('',(0.,0.,-1.));
#748=DIRECTION('',(1.,0.,0.));
#749=DIRECTION('',(-1.26161707343768E-16,0.,-1.));
#750=DIRECTION('',(-1.,0.,0.));
#751=DIRECTION('',(0.,0.,-1.));
#752=DIRECTION('',(-1.,0.,0.));
#753=DIRECTION('',(1.,0.,0.));
#754=DIRECTION('',(0.,0.,-1.));
#755=DIRECTION('',(0.,0.342020143325668,0.939692620785908));
#756=DIRECTION('',(0.,-0.939692620785908,0.342020143325668));
#757=DIRECTION('',(0.,-1.,0.));
#758=DIRECTION('',(0.,-1.,0.));
#759=DIRECTION('',(0.,0.,1.));
#760=DIRECTION('',(0.,-1.,0.));
#761=DIRECTION('',(0.,-0.939692620785908,0.342020143325668));
#762=DIRECTION('',(0.,0.,1.));
#763=DIRECTION('',(1.,0.,0.));
#764=DIRECTION('',(-1.,0.,0.));
#765=DIRECTION('',(0.,-1.,0.));
#766=DIRECTION('',(0.,0.,-1.));
#767=DIRECTION('',(1.,0.,0.));
#768=DIRECTION('',(1.,0.,0.));
#769=DIRECTION('',(0.,0.,-1.));
#770=DIRECTION('',(1.,0.,0.));
#771=DIRECTION('',(0.,0.,-1.));
#772=DIRECTION('',(1.,0.,0.));
#773=DIRECTION('',(-1.,0.,0.));
#774=DIRECTION('',(0.,0.,-1.));
#775=DIRECTION('',(-1.,0.,0.));
#776=DIRECTION('',(-1.,0.,0.));
#777=DIRECTION('',(0.,1.,0.));
#778=DIRECTION('',(0.,1.,0.));
#779=DIRECTION('',(1.,0.,-1.26161707343768E-16));
#780=DIRECTION('',(-1.26161707343768E-16,0.,-1.));
#781=DIRECTION('',(0.,1.,0.));
#782=DIRECTION('',(-1.26161707343768E-16,0.,-1.));
#783=DIRECTION('',(0.,0.,-1.));
#784=DIRECTION('',(-1.,0.,0.));
#785=DIRECTION('',(0.,1.,0.));
#786=DIRECTION('',(-1.,0.,0.));
#787=DIRECTION('',(1.,0.,0.));
#788=DIRECTION('',(0.,0.,-1.));
#789=DIRECTION('',(0.,0.,-1.));
#790=DIRECTION('',(0.,1.,0.));
#791=DIRECTION('',(0.,0.,1.));
#792=DIRECTION('',(0.,0.,-1.));
#793=DIRECTION('',(0.,0.,-1.));
#794=DIRECTION('',(1.,0.,0.));
#795=DIRECTION('',(1.,0.,0.));
#796=DIRECTION('',(0.,0.,-1.));
#797=DIRECTION('',(0.,0.939692620785908,-0.342020143325668));
#798=DIRECTION('',(0.,0.342020143325668,0.939692620785908));
#799=DIRECTION('',(0.,-1.,0.));
#800=DIRECTION('',(0.,0.,1.));
#801=DIRECTION('',(0.,-1.,0.));
#802=DIRECTION('',(0.,-0.342020143325668,-0.939692620785908));
#803=DIRECTION('',(0.,-0.939692620785908,0.342020143325668));
#804=DIRECTION('',(0.,0.342020143325668,0.939692620785908));
#805=DIRECTION('',(1.,0.,0.));
#806=DIRECTION('',(0.,0.342020143325668,0.939692620785908));
#807=DIRECTION('',(-1.,0.,0.));
#808=DIRECTION('',(1.,0.,0.));
#809=DIRECTION('',(0.,0.,-1.));
#810=DIRECTION('',(0.,0.939692620785908,-0.342020143325668));
#811=DIRECTION('',(0.,-0.342020143325668,-0.939692620785908));
#812=DIRECTION('',(0.,-1.,0.));
#813=DIRECTION('',(0.,0.,1.));
#814=DIRECTION('',(0.,-1.,0.));
#815=DIRECTION('',(0.,-1.,0.));
#816=DIRECTION('',(0.,0.,-1.));
#817=DIRECTION('',(1.,0.,0.));
#818=DIRECTION('',(1.,0.,0.));
#819=DIRECTION('',(0.,0.,-1.));
#820=DIRECTION('',(1.,0.,0.));
#821=DIRECTION('',(0.,0.,-1.));
#822=DIRECTION('',(1.,0.,0.));
#823=DIRECTION('',(0.,-0.342020143325668,-0.939692620785908));
#824=DIRECTION('',(0.,0.939692620785908,-0.342020143325668));
#825=DIRECTION('',(-1.,0.,0.));
#826=DIRECTION('',(-1.,0.,0.));
#827=DIRECTION('',(0.,-0.342020143325668,-0.939692620785908));
#828=DIRECTION('',(0.,0.939692620785908,-0.342020143325668));
#829=DIRECTION('',(-1.,0.,0.));
#830=DIRECTION('',(0.,-0.939692620785908,0.342020143325668));
#831=DIRECTION('',(1.,0.,0.));
#832=DIRECTION('',(0.,0.,1.));
#833=DIRECTION('',(1.,0.,0.));
#834=DIRECTION('',(0.,0.,-1.));
#835=DIRECTION('',(-1.,0.,0.));
#836=DIRECTION('',(0.,0.,1.));
#837=DIRECTION('',(1.,0.,0.));
#838=DIRECTION('',(0.,0.,1.));
#839=DIRECTION('',(1.,0.,0.));
#840=DIRECTION('',(0.,0.,1.));
#841=DIRECTION('',(1.,0.,0.));
#842=DIRECTION('',(0.,0.,1.));
#843=DIRECTION('',(1.,0.,0.));
#844=DIRECTION('',(0.,0.,1.));
#845=DIRECTION('',(1.,0.,0.));
#846=DIRECTION('',(0.,0.,1.));
#847=DIRECTION('',(1.,0.,0.));
#848=DIRECTION('',(0.,0.,1.));
#849=DIRECTION('',(1.,0.,0.));
#850=DIRECTION('',(0.,0.342020143325668,0.939692620785909));
#851=DIRECTION('',(1.,0.,0.));
#852=DIRECTION('',(0.,0.,-1.));
#853=DIRECTION('',(-1.,0.,0.));
#854=DIRECTION('',(0.,0.,1.));
#855=DIRECTION('',(1.,0.,0.));
#856=DIRECTION('',(0.,0.,1.));
#857=DIRECTION('',(1.,0.,0.));
#858=DIRECTION('',(0.,0.,1.));
#859=DIRECTION('',(1.,0.,0.));
#860=DIRECTION('',(0.,0.,1.));
#861=DIRECTION('',(1.,0.,0.));
#862=DIRECTION('',(0.,0.342020143325668,0.939692620785909));
#863=DIRECTION('',(1.,0.,0.));
#864=DIRECTION('',(1.,0.,4.33680868994202E-16));
#865=DIRECTION('',(4.33680868994202E-16,0.,-1.));
#866=DIRECTION('',(4.33680868994202E-16,0.,-1.));
#867=DIRECTION('',(0.,1.,0.));
#868=DIRECTION('',(4.33680868994202E-16,0.,-1.));
#869=DIRECTION('',(0.,1.,0.));
#870=DIRECTION('',(1.0842021724855E-16,0.,-1.));
#871=DIRECTION('',(-1.,0.,-1.0842021724855E-16));
#872=DIRECTION('',(-1.,0.,-1.0842021724855E-16));
#873=DIRECTION('',(0.,1.,0.));
#874=DIRECTION('',(-1.,0.,-1.0842021724855E-16));
#875=DIRECTION('',(1.,0.,0.));
#876=DIRECTION('',(0.,0.,-1.));
#877=DIRECTION('',(0.,0.,-1.));
#878=DIRECTION('',(0.,1.,0.));
#879=DIRECTION('',(0.,0.,-1.));
#880=DIRECTION('',(0.,0.,-1.));
#881=DIRECTION('',(-1.,0.,0.));
#882=DIRECTION('',(-1.,0.,0.));
#883=DIRECTION('',(-1.,0.,0.));
#884=DIRECTION('',(0.,-1.,0.));
#885=DIRECTION('',(1.,0.,0.));
#886=DIRECTION('',(0.,-1.,0.));
#887=DIRECTION('',(1.,0.,0.));
#888=DIRECTION('',(0.,0.342020143325668,0.939692620785909));
#889=DIRECTION('',(1.,0.,0.));
#890=DIRECTION('',(0.,0.342020143325668,0.939692620785909));
#891=DIRECTION('',(1.,0.,0.));
#892=CARTESIAN_POINT('',(0.,0.,0.));
#893=CARTESIAN_POINT('',(0.128,1.38777878078145E-17,0.256));
#894=CARTESIAN_POINT('',(0.128,-0.0703015368960704,-0.00171010071662834));
#895=CARTESIAN_POINT('',(0.128,0.0228748430760774,0.254289899283371));
#896=CARTESIAN_POINT('',(0.128,-0.0703015368960704,-0.00171010071662839));
#897=CARTESIAN_POINT('',(0.128,-0.0703015368960704,-0.00171010071662834));
#898=CARTESIAN_POINT('',(0.128,-0.075,0.));
#899=CARTESIAN_POINT('',(0.128,1.38777878078145E-17,0.));
#900=CARTESIAN_POINT('',(0.128,-0.181,0.));
#901=CARTESIAN_POINT('',(0.128,-0.181,-0.01));
#902=CARTESIAN_POINT('',(0.128,-0.181,-0.01));
#903=CARTESIAN_POINT('',(0.128,1.38777878078145E-17,-0.01));
#904=CARTESIAN_POINT('',(0.128,0.075,-0.01));
#905=CARTESIAN_POINT('',(0.128,0.075,0.256));
#906=CARTESIAN_POINT('',(0.128,0.075,0.256));
#907=CARTESIAN_POINT('',(0.128,1.38777878078145E-17,0.256));
#908=CARTESIAN_POINT('',(0.128,0.0181763799721479,0.256));
#909=CARTESIAN_POINT('',(0.128,0.0228748430760774,0.254289899283371));
#910=CARTESIAN_POINT('',(0.,1.38777878078145E-17,0.2535));
#911=CARTESIAN_POINT('',(0.,0.0225873432488619,0.2535));
#912=CARTESIAN_POINT('',(-0.1255,0.0225873432488619,0.2535));
#913=CARTESIAN_POINT('',(0.1255,0.0225873432488619,0.2535));
#914=CARTESIAN_POINT('',(-0.1255,1.38777878078145E-17,0.2535));
#915=CARTESIAN_POINT('',(-0.1255,0.0725,0.2535));
#916=CARTESIAN_POINT('',(0.,0.0725,0.2535));
#917=CARTESIAN_POINT('',(0.1255,0.0725,0.2535));
#918=CARTESIAN_POINT('',(0.1255,1.38777878078145E-17,0.2535));
#919=CARTESIAN_POINT('',(0.,0.075,0.256));
#920=CARTESIAN_POINT('',(0.,0.075,-0.01));
#921=CARTESIAN_POINT('',(-0.128,0.075,-0.01));
#922=CARTESIAN_POINT('',(-0.128,0.075,0.256));
#923=CARTESIAN_POINT('',(-0.128,0.075,0.256));
#924=CARTESIAN_POINT('',(0.,0.075,0.256));
#925=CARTESIAN_POINT('',(0.0995136044858401,0.075,0.183));
#926=CARTESIAN_POINT('',(0.0995136044858401,0.075,0.238));
#927=CARTESIAN_POINT('',(0.0995136044858401,0.075,0.128));
#928=CARTESIAN_POINT('',(0.00251360448584009,0.075,0.238));
#929=CARTESIAN_POINT('',(-0.0944863955141599,0.075,0.238));
#930=CARTESIAN_POINT('',(-0.0944863955141599,0.075,0.183));
#931=CARTESIAN_POINT('',(-0.0944863955141599,0.075,0.128));
#932=CARTESIAN_POINT('',(0.00251360448584008,0.075,0.128));
#933=CARTESIAN_POINT('',(-0.128,1.38777878078145E-17,0.256));
#934=CARTESIAN_POINT('',(-0.128,-0.0703015368960704,-0.00171010071662834));
#935=CARTESIAN_POINT('',(-0.128,0.0228748430760774,0.254289899283371));
#936=CARTESIAN_POINT('',(-0.128,-0.0703015368960704,-0.00171010071662834));
#937=CARTESIAN_POINT('',(-0.128,0.0228748430760774,0.254289899283371));
#938=CARTESIAN_POINT('',(-0.128,0.0181763799721479,0.256));
#939=CARTESIAN_POINT('',(-0.128,1.38777878078145E-17,0.256));
#940=CARTESIAN_POINT('',(-0.128,1.38777878078145E-17,-0.01));
#941=CARTESIAN_POINT('',(-0.128,-0.181,-0.01));
#942=CARTESIAN_POINT('',(-0.128,-0.181,-0.01));
#943=CARTESIAN_POINT('',(-0.128,-0.181,0.));
#944=CARTESIAN_POINT('',(-0.128,1.38777878078145E-17,0.));
#945=CARTESIAN_POINT('',(-0.128,-0.075,0.));
#946=CARTESIAN_POINT('',(-0.128,-0.0703015368960704,-0.00171010071662834));
#947=CARTESIAN_POINT('',(0.,1.38777878078145E-17,0.256));
#948=CARTESIAN_POINT('',(0.,0.0181763799721479,0.256));
#949=CARTESIAN_POINT('',(-5.55111512312578E-17,-0.181,-0.01));
#950=CARTESIAN_POINT('',(-5.55111512312578E-17,-0.181,0.));
#951=CARTESIAN_POINT('',(-5.55111512312578E-17,-0.181,-0.01));
#952=CARTESIAN_POINT('',(0.,-0.053,-0.01));
#953=CARTESIAN_POINT('',(0.,-0.053,0.));
#954=CARTESIAN_POINT('',(0.,-0.075,0.));
#955=CARTESIAN_POINT('',(0.00251360448584009,0.07,0.238));
#956=CARTESIAN_POINT('',(0.,0.0725,0.238));
#957=CARTESIAN_POINT('',(0.0995136044858401,0.0725,0.238));
#958=CARTESIAN_POINT('',(-0.0944863955141599,0.0725,0.238));
#959=CARTESIAN_POINT('',(-0.0944863955141599,0.07,0.238));
#960=CARTESIAN_POINT('',(0.0995136044858401,0.07,0.238));
#961=CARTESIAN_POINT('',(0.0995136044858401,0.07,0.183));
#962=CARTESIAN_POINT('',(0.0995136044858401,0.07,0.128));
#963=CARTESIAN_POINT('',(0.0995136044858401,0.0725,0.128));
#964=CARTESIAN_POINT('',(0.0995136044858401,0.0725,0.256));
#965=CARTESIAN_POINT('',(0.00251360448584008,0.07,0.128));
#966=CARTESIAN_POINT('',(-0.0944863955141599,0.07,0.128));
#967=CARTESIAN_POINT('',(-0.0944863955141599,0.0725,0.128));
#968=CARTESIAN_POINT('',(0.,0.0725,0.128));
#969=CARTESIAN_POINT('',(-0.0944863955141599,0.07,0.183));
#970=CARTESIAN_POINT('',(-0.0944863955141599,0.0725,0.256));
#971=CARTESIAN_POINT('',(0.,0.0725,0.256));
#972=CARTESIAN_POINT('',(0.1255,0.0725,0.256));
#973=CARTESIAN_POINT('',(0.1255,0.0725,-0.0075));
#974=CARTESIAN_POINT('',(-0.1255,0.0725,0.256));
#975=CARTESIAN_POINT('',(-0.1255,0.0725,-0.0075));
#976=CARTESIAN_POINT('',(0.,0.0725,-0.0075));
#977=CARTESIAN_POINT('',(-0.1255,1.38777878078145E-17,0.256));
#978=CARTESIAN_POINT('',(-0.1255,-0.0910501474229153,0.00584177591752555));
#979=CARTESIAN_POINT('',(-0.1255,-0.0726507684480352,-0.000855050358314171));
#980=CARTESIAN_POINT('',(-0.1255,-0.0703015368960704,-0.00171010071662834));
#981=CARTESIAN_POINT('',(-0.1255,-0.0726507684480352,-0.000855050358314172));
#982=CARTESIAN_POINT('',(-0.1255,-0.0732494811544757,-0.0025));
#983=CARTESIAN_POINT('',(-0.1255,-0.053,-0.0025));
#984=CARTESIAN_POINT('',(-0.1255,-0.1785,-0.0025));
#985=CARTESIAN_POINT('',(-0.1255,-0.1785,-0.01));
#986=CARTESIAN_POINT('',(-0.1255,-0.1785,-0.0075));
#987=CARTESIAN_POINT('',(-0.1255,-0.053,-0.0075));
#988=CARTESIAN_POINT('',(-0.1255,0.0207486105268449,0.248448123365846));
#989=CARTESIAN_POINT('',(0.,-0.0726507684480352,-0.000855050358314172));
#990=CARTESIAN_POINT('',(0.,-0.0726507684480352,-0.000855050358314171));
#991=CARTESIAN_POINT('',(0.1255,-0.0726507684480352,-0.000855050358314203));
#992=CARTESIAN_POINT('',(0.1255,-0.0726507684480352,-0.000855050358314172));
#993=CARTESIAN_POINT('',(0.1255,-0.0732494811544757,-0.0025));
#994=CARTESIAN_POINT('',(0.,-0.0732494811544757,-0.0025));
#995=CARTESIAN_POINT('',(0.1255,1.38777878078145E-17,0.256));
#996=CARTESIAN_POINT('',(0.1255,-0.0910501474229153,0.00584177591752555));
#997=CARTESIAN_POINT('',(0.1255,-0.0703015368960704,-0.00171010071662834));
#998=CARTESIAN_POINT('',(0.1255,0.0207486105268449,0.248448123365846));
#999=CARTESIAN_POINT('',(0.1255,-0.053,-0.0075));
#1000=CARTESIAN_POINT('',(0.1255,-0.1785,-0.0075));
#1001=CARTESIAN_POINT('',(0.1255,-0.1785,-0.01));
#1002=CARTESIAN_POINT('',(0.1255,-0.1785,-0.0025));
#1003=CARTESIAN_POINT('',(0.1255,-0.053,-0.0025));
#1004=CARTESIAN_POINT('',(-5.55111512312578E-17,-0.1785,-0.01));
#1005=CARTESIAN_POINT('',(-5.55111512312578E-17,-0.1785,-0.0025));
#1006=CARTESIAN_POINT('',(-5.55111512312578E-17,-0.1785,-0.0075));
#1007=CARTESIAN_POINT('',(0.,-0.053,-0.0075));
#1008=CARTESIAN_POINT('',(0.,-0.053,-0.0025));
#1009=CARTESIAN_POINT('',(0.,-0.0703015368960704,-0.00171010071662834));
#1010=CARTESIAN_POINT('',(0.,-0.0703015368960704,-0.00171010071662834));
#1011=CARTESIAN_POINT('',(0.,-0.0703015368960704,-0.00171010071662834));
#1012=CARTESIAN_POINT('',(0.,0.0228748430760773,0.254289899283371));
#1013=CARTESIAN_POINT('',(0.,0.0228748430760773,0.254289899283371));
#1014=CARTESIAN_POINT('',(0.,-0.0237133469099966,0.126289899283372));
#1015=CARTESIAN_POINT('',(0.,0.,0.));
#1016=CARTESIAN_POINT('',(0.,3.06161699786838E-19,0.025));
#1017=CARTESIAN_POINT('',(0.,3.06161699786838E-19,0.025));
#1018=CARTESIAN_POINT('',(0.005,3.06161699786838E-19,0.025));
#1019=CARTESIAN_POINT('',(0.,3.06161699786838E-19,0.));
#1020=CARTESIAN_POINT('',(0.005,3.06161699786838E-19,0.));
#1021=CARTESIAN_POINT('',(0.,0.,0.025));
#1022=CARTESIAN_POINT('',(0.,2.4492935982947E-19,0.025));
#1023=CARTESIAN_POINT('',(0.004,2.4492935982947E-19,0.025));
#1024=CARTESIAN_POINT('',(0.,0.,0.));
#1025=CARTESIAN_POINT('',(0.,2.4492935982947E-19,0.));
#1026=CARTESIAN_POINT('',(0.004,2.4492935982947E-19,0.));
#1027=CARTESIAN_POINT('',(0.,2.4492935982947E-19,0.));
#1028=CARTESIAN_POINT('',(-0.122992494820279,-0.0130075261750928,0.141988623897765));
#1029=CARTESIAN_POINT('',(0.,2.4492935982947E-19,0.05));
#1030=CARTESIAN_POINT('',(0.,2.4492935982947E-19,0.05));
#1031=CARTESIAN_POINT('',(0.004,2.4492935982947E-19,0.05));
#1032=CARTESIAN_POINT('',(0.,2.4492935982947E-19,0.));
#1033=CARTESIAN_POINT('',(0.004,2.4492935982947E-19,0.));
#1034=CARTESIAN_POINT('',(0.,0.,0.05));
#1035=CARTESIAN_POINT('',(0.,0.,0.));
#1036=CARTESIAN_POINT('',(-0.122610882279127,-0.0103607488589908,0.14656727783496));
#1037=CARTESIAN_POINT('',(-0.328585385146575,-0.005,0.00935887090030903));
#1038=CARTESIAN_POINT('',(-0.328585385146575,0.,0.00935887090030903));
#1039=CARTESIAN_POINT('',(-0.328585385146575,0.,0.137358870900309));
#1040=CARTESIAN_POINT('',(-0.328585385146575,0.,-0.118641129099691));
#1041=CARTESIAN_POINT('',(-0.328585385146575,-0.005,0.137358870900309));
#1042=CARTESIAN_POINT('',(-0.328585385146575,-0.005,0.137358870900309));
#1043=CARTESIAN_POINT('',(-0.328585385146575,-0.005,0.00935887090030903));
#1044=CARTESIAN_POINT('',(-0.328585385146575,-0.005,-0.118641129099691));
#1045=CARTESIAN_POINT('',(-0.328585385146575,-0.005,-0.118641129099691));
#1046=CARTESIAN_POINT('',(-0.456585385146575,-0.005,0.137358870900309));
#1047=CARTESIAN_POINT('',(-0.456585385146575,0.,0.137358870900309));
#1048=CARTESIAN_POINT('',(-0.584585385146575,0.,0.137358870900309));
#1049=CARTESIAN_POINT('',(-0.584585385146575,-0.005,0.137358870900309));
#1050=CARTESIAN_POINT('',(-0.584585385146575,-0.005,0.137358870900309));
#1051=CARTESIAN_POINT('',(-0.456585385146575,-0.005,0.137358870900309));
#1052=CARTESIAN_POINT('',(-0.584585385146575,-0.005,0.00935887090030896));
#1053=CARTESIAN_POINT('',(-0.584585385146575,0.,0.00935887090030896));
#1054=CARTESIAN_POINT('',(-0.584585385146575,0.,-0.118641129099691));
#1055=CARTESIAN_POINT('',(-0.584585385146575,-0.005,-0.118641129099691));
#1056=CARTESIAN_POINT('',(-0.584585385146575,-0.005,-0.118641129099691));
#1057=CARTESIAN_POINT('',(-0.584585385146575,-0.005,0.00935887090030896));
#1058=CARTESIAN_POINT('',(-0.456585385146575,-0.005,-0.118641129099691));
#1059=CARTESIAN_POINT('',(-0.456585385146575,0.,-0.118641129099691));
#1060=CARTESIAN_POINT('',(-0.456585385146575,-0.005,-0.118641129099691));
#1061=CARTESIAN_POINT('',(-0.456585385146575,-0.005,0.00935887090030896));
#1062=CARTESIAN_POINT('',(-0.456585385146575,0.,0.00935887090030896));
#1063=CARTESIAN_POINT('',(0.453504966116137,-0.0212442143802097,0.120023736134374));
#1064=CARTESIAN_POINT('',(-0.122610882279127,-0.00181024527584914,0.170059593354608));
#1065=MECHANICAL_DESIGN_GEOMETRIC_PRESENTATION_REPRESENTATION('',(#635,
#636,#637,#638),#1066);
#1066=(
GEOMETRIC_REPRESENTATION_CONTEXT(3)
GLOBAL_UNCERTAINTY_ASSIGNED_CONTEXT((#1071))
GLOBAL_UNIT_ASSIGNED_CONTEXT((#1078,#1077,#1076))
REPRESENTATION_CONTEXT('Case','TOP_LEVEL_ASSEMBLY_PART')
);
#1067=(
GEOMETRIC_REPRESENTATION_CONTEXT(3)
GLOBAL_UNCERTAINTY_ASSIGNED_CONTEXT((#1072))
GLOBAL_UNIT_ASSIGNED_CONTEXT((#1078,#1077,#1076))
REPRESENTATION_CONTEXT('Part 1','COMPONENT_PART')
);
#1068=(
GEOMETRIC_REPRESENTATION_CONTEXT(3)
GLOBAL_UNCERTAINTY_ASSIGNED_CONTEXT((#1073))
GLOBAL_UNIT_ASSIGNED_CONTEXT((#1078,#1077,#1076))
REPRESENTATION_CONTEXT('Part 1','COMPONENT_PART')
);
#1069=(
GEOMETRIC_REPRESENTATION_CONTEXT(3)
GLOBAL_UNCERTAINTY_ASSIGNED_CONTEXT((#1074))
GLOBAL_UNIT_ASSIGNED_CONTEXT((#1078,#1077,#1076))
REPRESENTATION_CONTEXT('Part 1','COMPONENT_PART')
);
#1070=(
GEOMETRIC_REPRESENTATION_CONTEXT(3)
GLOBAL_UNCERTAINTY_ASSIGNED_CONTEXT((#1075))
GLOBAL_UNIT_ASSIGNED_CONTEXT((#1078,#1077,#1076))
REPRESENTATION_CONTEXT('Part 1','COMPONENT_PART')
);
#1071=UNCERTAINTY_MEASURE_WITH_UNIT(LENGTH_MEASURE(1.E-8),#1078,
'DISTANCE_ACCURACY_VALUE','Maximum Tolerance applied to model');
#1072=UNCERTAINTY_MEASURE_WITH_UNIT(LENGTH_MEASURE(1.E-8),#1078,
'DISTANCE_ACCURACY_VALUE','Maximum Tolerance applied to model');
#1073=UNCERTAINTY_MEASURE_WITH_UNIT(LENGTH_MEASURE(1.E-8),#1078,
'DISTANCE_ACCURACY_VALUE','Maximum Tolerance applied to model');
#1074=UNCERTAINTY_MEASURE_WITH_UNIT(LENGTH_MEASURE(1.E-8),#1078,
'DISTANCE_ACCURACY_VALUE','Maximum Tolerance applied to model');
#1075=UNCERTAINTY_MEASURE_WITH_UNIT(LENGTH_MEASURE(1.E-8),#1078,
'DISTANCE_ACCURACY_VALUE','Maximum Tolerance applied to model');
#1076=(
NAMED_UNIT(*)
SI_UNIT($,.STERADIAN.)
SOLID_ANGLE_UNIT()
);
#1077=(
NAMED_UNIT(*)
PLANE_ANGLE_UNIT()
SI_UNIT($,.RADIAN.)
);
#1078=(
LENGTH_UNIT()
NAMED_UNIT(*)
SI_UNIT($,.METRE.)
);
#1079=PRODUCT_DEFINITION_SHAPE('','',#1089);
#1080=PRODUCT_DEFINITION_SHAPE('','',#1090);
#1081=PRODUCT_DEFINITION_SHAPE(' ','NAUO PRDDFN',#25);
#1082=PRODUCT_DEFINITION_SHAPE('','',#1091);
#1083=PRODUCT_DEFINITION_SHAPE(' ','NAUO PRDDFN',#26);
#1084=PRODUCT_DEFINITION_SHAPE('','',#1092);
#1085=PRODUCT_DEFINITION_SHAPE(' ','NAUO PRDDFN',#27);
#1086=PRODUCT_DEFINITION_SHAPE('','',#1093);
#1087=PRODUCT_DEFINITION_SHAPE(' ','NAUO PRDDFN',#28);
#1088=PRODUCT_DEFINITION_SHAPE(' ','NAUO PRDDFN',#29);
#1089=PRODUCT_DEFINITION('','',#1099,#1094);
#1090=PRODUCT_DEFINITION('','',#1100,#1095);
#1091=PRODUCT_DEFINITION('','',#1101,#1096);
#1092=PRODUCT_DEFINITION('','',#1102,#1097);
#1093=PRODUCT_DEFINITION('','',#1103,#1098);
#1094=PRODUCT_DEFINITION_CONTEXT('',#1125,'design');
#1095=PRODUCT_DEFINITION_CONTEXT('',#1125,'design');
#1096=PRODUCT_DEFINITION_CONTEXT('',#1125,'design');
#1097=PRODUCT_DEFINITION_CONTEXT('',#1125,'design');
#1098=PRODUCT_DEFINITION_CONTEXT('',#1125,'design');
#1099=PRODUCT_DEFINITION_FORMATION_WITH_SPECIFIED_SOURCE('','',#1109,
 .NOT_KNOWN.);
#1100=PRODUCT_DEFINITION_FORMATION_WITH_SPECIFIED_SOURCE('','',#1110,
 .NOT_KNOWN.);
#1101=PRODUCT_DEFINITION_FORMATION_WITH_SPECIFIED_SOURCE('','',#1111,
 .NOT_KNOWN.);
#1102=PRODUCT_DEFINITION_FORMATION_WITH_SPECIFIED_SOURCE('','',#1112,
 .NOT_KNOWN.);
#1103=PRODUCT_DEFINITION_FORMATION_WITH_SPECIFIED_SOURCE('','',#1113,
 .NOT_KNOWN.);
#1104=PRODUCT_RELATED_PRODUCT_CATEGORY('','',(#1109));
#1105=PRODUCT_RELATED_PRODUCT_CATEGORY('','',(#1110));
#1106=PRODUCT_RELATED_PRODUCT_CATEGORY('','',(#1111));
#1107=PRODUCT_RELATED_PRODUCT_CATEGORY('','',(#1112));
#1108=PRODUCT_RELATED_PRODUCT_CATEGORY('','',(#1113));
#1109=PRODUCT('Case','Case','Case',(#1119));
#1110=PRODUCT('Part 1','Part 1','Part 1',(#1120));
#1111=PRODUCT('Part 1','Part 1','Part 1',(#1121));
#1112=PRODUCT('Part 1','Part 1','Part 1',(#1122));
#1113=PRODUCT('Part 1','Part 1','Part 1',(#1123));
#1114=PRODUCT_CATEGORY('','');
#1115=PRODUCT_CATEGORY('','');
#1116=PRODUCT_CATEGORY('','');
#1117=PRODUCT_CATEGORY('','');
#1118=PRODUCT_CATEGORY('','');
#1119=PRODUCT_CONTEXT('',#1125,'mechanical');
#1120=PRODUCT_CONTEXT('',#1125,'mechanical');
#1121=PRODUCT_CONTEXT('',#1125,'mechanical');
#1122=PRODUCT_CONTEXT('',#1125,'mechanical');
#1123=PRODUCT_CONTEXT('',#1125,'mechanical');
#1124=APPLICATION_PROTOCOL_DEFINITION('international standard',
'ap242_managed_model_based_3d_engineering',2020,#1125);
#1125=APPLICATION_CONTEXT('managed model based 3d engineering');
ENDSEC;
END-ISO-10303-21;
