ISO-10303-21;
HEADER;
/* Generated by software containing ST-Developer
 * from STEP Tools, Inc. (www.steptools.com) 
 */
/* OPTION: using custom renumber hook */

FILE_DESCRIPTION(
/* description */ ('STEP AP242 Edition 2',
'CAx-IF Rec.Pracs.---Representation and Presentation of Product Manufa
cturing Information (PMI)---4.0---2014-10-13',
'CAx-IF Rec.Pracs.---3D Tessellated Geometry---0.4---2014-09-14','2;1',
'CAx-IF Rec.Pracs.---User Defined Attributes---1.5---2016-08-15'),
/* implementation_level */ '2;1');

FILE_NAME(
/* name */ '6a716cf2b21ca79e95e4bf7f',
/* time_stamp */ '2026-08-04T04:39:14Z',
/* author */ (''),
/* organization */ (''),
/* preprocessor_version */ 'ST-DEVELOPER v20',
/* originating_system */ 'ONSHAPE BY PTC INC, 1.218',
/* authorisation */ '  ');

FILE_SCHEMA (('AP242_MANAGED_MODEL_BASED_3D_ENGINEERING_MIM_LF { 1 0 10303 442 3 1 4 }'));
ENDSEC;

DATA;
#10=CIRCLE('',#1092,0.005);
#11=CIRCLE('',#1093,0.005);
#12=CIRCLE('',#1095,0.004);
#13=CIRCLE('',#1097,0.004);
#14=CIRCLE('',#1132,0.004);
#15=CIRCLE('',#1133,0.004);
#16=CYLINDRICAL_SURFACE('',#1091,0.005);
#17=CYLINDRICAL_SURFACE('',#1098,0.004);
#18=CYLINDRICAL_SURFACE('',#1131,0.004);
#19=COLOUR_RGB('',0.917647058823529,0.917647058823529,0.917647058823529);
#20=CONTEXT_DEPENDENT_SHAPE_REPRESENTATION(#34,#1690);
#21=CONTEXT_DEPENDENT_SHAPE_REPRESENTATION(#35,#1692);
#22=CONTEXT_DEPENDENT_SHAPE_REPRESENTATION(#36,#1693);
#23=CONTEXT_DEPENDENT_SHAPE_REPRESENTATION(#37,#1695);
#24=CONTEXT_DEPENDENT_SHAPE_REPRESENTATION(#38,#1697);
#25=CONTEXT_DEPENDENT_SHAPE_REPRESENTATION(#39,#1699);
#26=CONTEXT_DEPENDENT_SHAPE_REPRESENTATION(#40,#1701);
#27=NEXT_ASSEMBLY_USAGE_OCCURRENCE('NAUO1','Part 2','Part 2',#1702,#1703,
'');
#28=NEXT_ASSEMBLY_USAGE_OCCURRENCE('NAUO2','Part 1','Part 1',#1702,#1704,
'');
#29=NEXT_ASSEMBLY_USAGE_OCCURRENCE('NAUO3','Part 1','Part 1',#1702,#1704,
'');
#30=NEXT_ASSEMBLY_USAGE_OCCURRENCE('NAUO4','Part 1','Part 1',#1702,#1705,
'');
#31=NEXT_ASSEMBLY_USAGE_OCCURRENCE('NAUO5','Part 2','Part 2',#1702,#1706,
'');
#32=NEXT_ASSEMBLY_USAGE_OCCURRENCE('NAUO6','Part 1','Part 1',#1702,#1707,
'');
#33=NEXT_ASSEMBLY_USAGE_OCCURRENCE('NAUO7','Part 1','Part 1',#1702,#1708,
'');
#34=(
REPRESENTATION_RELATIONSHIP(' ',' ',#1062,#1061)
REPRESENTATION_RELATIONSHIP_WITH_TRANSFORMATION(#41)
SHAPE_REPRESENTATION_RELATIONSHIP()
);
#35=(
REPRESENTATION_RELATIONSHIP(' ',' ',#1063,#1061)
REPRESENTATION_RELATIONSHIP_WITH_TRANSFORMATION(#42)
SHAPE_REPRESENTATION_RELATIONSHIP()
);
#36=(
REPRESENTATION_RELATIONSHIP(' ',' ',#1063,#1061)
REPRESENTATION_RELATIONSHIP_WITH_TRANSFORMATION(#43)
SHAPE_REPRESENTATION_RELATIONSHIP()
);
#37=(
REPRESENTATION_RELATIONSHIP(' ',' ',#1064,#1061)
REPRESENTATION_RELATIONSHIP_WITH_TRANSFORMATION(#44)
SHAPE_REPRESENTATION_RELATIONSHIP()
);
#38=(
REPRESENTATION_RELATIONSHIP(' ',' ',#1065,#1061)
REPRESENTATION_RELATIONSHIP_WITH_TRANSFORMATION(#45)
SHAPE_REPRESENTATION_RELATIONSHIP()
);
#39=(
REPRESENTATION_RELATIONSHIP(' ',' ',#1066,#1061)
REPRESENTATION_RELATIONSHIP_WITH_TRANSFORMATION(#46)
SHAPE_REPRESENTATION_RELATIONSHIP()
);
#40=(
REPRESENTATION_RELATIONSHIP(' ',' ',#1067,#1061)
REPRESENTATION_RELATIONSHIP_WITH_TRANSFORMATION(#47)
SHAPE_REPRESENTATION_RELATIONSHIP()
);
#41=ITEM_DEFINED_TRANSFORMATION(' ',' ',#1068,#1090);
#42=ITEM_DEFINED_TRANSFORMATION(' ',' ',#1068,#1099);
#43=ITEM_DEFINED_TRANSFORMATION(' ',' ',#1068,#1100);
#44=ITEM_DEFINED_TRANSFORMATION(' ',' ',#1068,#1116);
#45=ITEM_DEFINED_TRANSFORMATION(' ',' ',#1068,#1123);
#46=ITEM_DEFINED_TRANSFORMATION(' ',' ',#1068,#1130);
#47=ITEM_DEFINED_TRANSFORMATION(' ',' ',#1068,#1136);
#48=SHAPE_REPRESENTATION_RELATIONSHIP('','',#1062,#54);
#49=SHAPE_REPRESENTATION_RELATIONSHIP('','',#1063,#55);
#50=SHAPE_REPRESENTATION_RELATIONSHIP('','',#1064,#56);
#51=SHAPE_REPRESENTATION_RELATIONSHIP('','',#1065,#57);
#52=SHAPE_REPRESENTATION_RELATIONSHIP('','',#1066,#58);
#53=SHAPE_REPRESENTATION_RELATIONSHIP('','',#1067,#59);
#54=ADVANCED_BREP_SHAPE_REPRESENTATION('',(#1048),#1672);
#55=ADVANCED_BREP_SHAPE_REPRESENTATION('',(#1049),#1673);
#56=ADVANCED_BREP_SHAPE_REPRESENTATION('',(#1050),#1674);
#57=ADVANCED_BREP_SHAPE_REPRESENTATION('',(#1051),#1675);
#58=ADVANCED_BREP_SHAPE_REPRESENTATION('',(#1052),#1676);
#59=ADVANCED_BREP_SHAPE_REPRESENTATION('',(#1053),#1677);
#60=ORIENTED_EDGE('',*,*,#312,.F.);
#61=ORIENTED_EDGE('',*,*,#313,.T.);
#62=ORIENTED_EDGE('',*,*,#314,.T.);
#63=ORIENTED_EDGE('',*,*,#315,.F.);
#64=ORIENTED_EDGE('',*,*,#316,.F.);
#65=ORIENTED_EDGE('',*,*,#317,.T.);
#66=ORIENTED_EDGE('',*,*,#318,.T.);
#67=ORIENTED_EDGE('',*,*,#319,.F.);
#68=ORIENTED_EDGE('',*,*,#320,.F.);
#69=ORIENTED_EDGE('',*,*,#321,.T.);
#70=ORIENTED_EDGE('',*,*,#322,.T.);
#71=ORIENTED_EDGE('',*,*,#323,.F.);
#72=ORIENTED_EDGE('',*,*,#324,.F.);
#73=ORIENTED_EDGE('',*,*,#325,.T.);
#74=ORIENTED_EDGE('',*,*,#326,.T.);
#75=ORIENTED_EDGE('',*,*,#327,.F.);
#76=ORIENTED_EDGE('',*,*,#318,.F.);
#77=ORIENTED_EDGE('',*,*,#328,.T.);
#78=ORIENTED_EDGE('',*,*,#329,.T.);
#79=ORIENTED_EDGE('',*,*,#330,.T.);
#80=ORIENTED_EDGE('',*,*,#331,.T.);
#81=ORIENTED_EDGE('',*,*,#332,.F.);
#82=ORIENTED_EDGE('',*,*,#333,.F.);
#83=ORIENTED_EDGE('',*,*,#334,.F.);
#84=ORIENTED_EDGE('',*,*,#316,.T.);
#85=ORIENTED_EDGE('',*,*,#335,.T.);
#86=ORIENTED_EDGE('',*,*,#336,.T.);
#87=ORIENTED_EDGE('',*,*,#337,.F.);
#88=ORIENTED_EDGE('',*,*,#338,.F.);
#89=ORIENTED_EDGE('',*,*,#339,.F.);
#90=ORIENTED_EDGE('',*,*,#325,.F.);
#91=ORIENTED_EDGE('',*,*,#340,.T.);
#92=ORIENTED_EDGE('',*,*,#341,.T.);
#93=ORIENTED_EDGE('',*,*,#342,.F.);
#94=ORIENTED_EDGE('',*,*,#343,.T.);
#95=ORIENTED_EDGE('',*,*,#344,.T.);
#96=ORIENTED_EDGE('',*,*,#345,.F.);
#97=ORIENTED_EDGE('',*,*,#346,.F.);
#98=ORIENTED_EDGE('',*,*,#347,.F.);
#99=ORIENTED_EDGE('',*,*,#327,.T.);
#100=ORIENTED_EDGE('',*,*,#348,.T.);
#101=ORIENTED_EDGE('',*,*,#349,.T.);
#102=ORIENTED_EDGE('',*,*,#350,.F.);
#103=ORIENTED_EDGE('',*,*,#351,.F.);
#104=ORIENTED_EDGE('',*,*,#352,.T.);
#105=ORIENTED_EDGE('',*,*,#353,.F.);
#106=ORIENTED_EDGE('',*,*,#329,.F.);
#107=ORIENTED_EDGE('',*,*,#354,.T.);
#108=ORIENTED_EDGE('',*,*,#353,.T.);
#109=ORIENTED_EDGE('',*,*,#355,.T.);
#110=ORIENTED_EDGE('',*,*,#341,.F.);
#111=ORIENTED_EDGE('',*,*,#356,.T.);
#112=ORIENTED_EDGE('',*,*,#339,.T.);
#113=ORIENTED_EDGE('',*,*,#357,.T.);
#114=ORIENTED_EDGE('',*,*,#358,.F.);
#115=ORIENTED_EDGE('',*,*,#336,.F.);
#116=ORIENTED_EDGE('',*,*,#359,.T.);
#117=ORIENTED_EDGE('',*,*,#332,.T.);
#118=ORIENTED_EDGE('',*,*,#335,.F.);
#119=ORIENTED_EDGE('',*,*,#319,.T.);
#120=ORIENTED_EDGE('',*,*,#333,.T.);
#121=ORIENTED_EDGE('',*,*,#359,.F.);
#122=ORIENTED_EDGE('',*,*,#360,.F.);
#123=ORIENTED_EDGE('',*,*,#337,.T.);
#124=ORIENTED_EDGE('',*,*,#358,.T.);
#125=ORIENTED_EDGE('',*,*,#331,.F.);
#126=ORIENTED_EDGE('',*,*,#361,.F.);
#127=ORIENTED_EDGE('',*,*,#351,.T.);
#128=ORIENTED_EDGE('',*,*,#362,.F.);
#129=ORIENTED_EDGE('',*,*,#343,.F.);
#130=ORIENTED_EDGE('',*,*,#363,.T.);
#131=ORIENTED_EDGE('',*,*,#349,.F.);
#132=ORIENTED_EDGE('',*,*,#364,.F.);
#133=ORIENTED_EDGE('',*,*,#345,.T.);
#134=ORIENTED_EDGE('',*,*,#346,.T.);
#135=ORIENTED_EDGE('',*,*,#364,.T.);
#136=ORIENTED_EDGE('',*,*,#348,.F.);
#137=ORIENTED_EDGE('',*,*,#326,.F.);
#138=ORIENTED_EDGE('',*,*,#362,.T.);
#139=ORIENTED_EDGE('',*,*,#350,.T.);
#140=ORIENTED_EDGE('',*,*,#363,.F.);
#141=ORIENTED_EDGE('',*,*,#344,.F.);
#142=ORIENTED_EDGE('',*,*,#342,.T.);
#143=ORIENTED_EDGE('',*,*,#357,.F.);
#144=ORIENTED_EDGE('',*,*,#338,.T.);
#145=ORIENTED_EDGE('',*,*,#360,.T.);
#146=ORIENTED_EDGE('',*,*,#330,.F.);
#147=ORIENTED_EDGE('',*,*,#355,.F.);
#148=ORIENTED_EDGE('',*,*,#352,.F.);
#149=ORIENTED_EDGE('',*,*,#361,.T.);
#150=ORIENTED_EDGE('',*,*,#320,.T.);
#151=ORIENTED_EDGE('',*,*,#365,.T.);
#152=ORIENTED_EDGE('',*,*,#313,.F.);
#153=ORIENTED_EDGE('',*,*,#366,.F.);
#154=ORIENTED_EDGE('',*,*,#366,.T.);
#155=ORIENTED_EDGE('',*,*,#312,.T.);
#156=ORIENTED_EDGE('',*,*,#367,.F.);
#157=ORIENTED_EDGE('',*,*,#321,.F.);
#158=ORIENTED_EDGE('',*,*,#367,.T.);
#159=ORIENTED_EDGE('',*,*,#315,.T.);
#160=ORIENTED_EDGE('',*,*,#368,.F.);
#161=ORIENTED_EDGE('',*,*,#322,.F.);
#162=ORIENTED_EDGE('',*,*,#323,.T.);
#163=ORIENTED_EDGE('',*,*,#368,.T.);
#164=ORIENTED_EDGE('',*,*,#314,.F.);
#165=ORIENTED_EDGE('',*,*,#365,.F.);
#166=ORIENTED_EDGE('',*,*,#354,.F.);
#167=ORIENTED_EDGE('',*,*,#328,.F.);
#168=ORIENTED_EDGE('',*,*,#317,.F.);
#169=ORIENTED_EDGE('',*,*,#334,.T.);
#170=ORIENTED_EDGE('',*,*,#356,.F.);
#171=ORIENTED_EDGE('',*,*,#340,.F.);
#172=ORIENTED_EDGE('',*,*,#324,.T.);
#173=ORIENTED_EDGE('',*,*,#347,.T.);
#174=ORIENTED_EDGE('',*,*,#369,.F.);
#175=ORIENTED_EDGE('',*,*,#370,.T.);
#176=ORIENTED_EDGE('',*,*,#371,.F.);
#177=ORIENTED_EDGE('',*,*,#369,.T.);
#178=ORIENTED_EDGE('',*,*,#372,.T.);
#179=ORIENTED_EDGE('',*,*,#370,.F.);
#180=ORIENTED_EDGE('',*,*,#372,.F.);
#181=ORIENTED_EDGE('',*,*,#371,.T.);
#182=ORIENTED_EDGE('',*,*,#373,.T.);
#183=ORIENTED_EDGE('',*,*,#374,.T.);
#184=ORIENTED_EDGE('',*,*,#375,.F.);
#185=ORIENTED_EDGE('',*,*,#376,.F.);
#186=ORIENTED_EDGE('',*,*,#377,.T.);
#187=ORIENTED_EDGE('',*,*,#378,.T.);
#188=ORIENTED_EDGE('',*,*,#374,.F.);
#189=ORIENTED_EDGE('',*,*,#379,.F.);
#190=ORIENTED_EDGE('',*,*,#380,.T.);
#191=ORIENTED_EDGE('',*,*,#381,.T.);
#192=ORIENTED_EDGE('',*,*,#377,.F.);
#193=ORIENTED_EDGE('',*,*,#382,.F.);
#194=ORIENTED_EDGE('',*,*,#383,.T.);
#195=ORIENTED_EDGE('',*,*,#376,.T.);
#196=ORIENTED_EDGE('',*,*,#384,.F.);
#197=ORIENTED_EDGE('',*,*,#380,.F.);
#198=ORIENTED_EDGE('',*,*,#385,.F.);
#199=ORIENTED_EDGE('',*,*,#386,.T.);
#200=ORIENTED_EDGE('',*,*,#387,.T.);
#201=ORIENTED_EDGE('',*,*,#388,.F.);
#202=ORIENTED_EDGE('',*,*,#389,.F.);
#203=ORIENTED_EDGE('',*,*,#390,.F.);
#204=ORIENTED_EDGE('',*,*,#391,.T.);
#205=ORIENTED_EDGE('',*,*,#392,.T.);
#206=ORIENTED_EDGE('',*,*,#387,.F.);
#207=ORIENTED_EDGE('',*,*,#393,.F.);
#208=ORIENTED_EDGE('',*,*,#394,.T.);
#209=ORIENTED_EDGE('',*,*,#395,.T.);
#210=ORIENTED_EDGE('',*,*,#396,.F.);
#211=ORIENTED_EDGE('',*,*,#397,.F.);
#212=ORIENTED_EDGE('',*,*,#394,.F.);
#213=ORIENTED_EDGE('',*,*,#398,.T.);
#214=ORIENTED_EDGE('',*,*,#399,.F.);
#215=ORIENTED_EDGE('',*,*,#400,.F.);
#216=ORIENTED_EDGE('',*,*,#389,.T.);
#217=ORIENTED_EDGE('',*,*,#401,.T.);
#218=ORIENTED_EDGE('',*,*,#402,.T.);
#219=ORIENTED_EDGE('',*,*,#403,.T.);
#220=ORIENTED_EDGE('',*,*,#401,.F.);
#221=ORIENTED_EDGE('',*,*,#392,.F.);
#222=ORIENTED_EDGE('',*,*,#404,.F.);
#223=ORIENTED_EDGE('',*,*,#405,.F.);
#224=ORIENTED_EDGE('',*,*,#390,.T.);
#225=ORIENTED_EDGE('',*,*,#400,.T.);
#226=ORIENTED_EDGE('',*,*,#406,.T.);
#227=ORIENTED_EDGE('',*,*,#407,.T.);
#228=ORIENTED_EDGE('',*,*,#398,.F.);
#229=ORIENTED_EDGE('',*,*,#393,.T.);
#230=ORIENTED_EDGE('',*,*,#386,.F.);
#231=ORIENTED_EDGE('',*,*,#408,.F.);
#232=ORIENTED_EDGE('',*,*,#409,.F.);
#233=ORIENTED_EDGE('',*,*,#388,.T.);
#234=ORIENTED_EDGE('',*,*,#395,.F.);
#235=ORIENTED_EDGE('',*,*,#397,.T.);
#236=ORIENTED_EDGE('',*,*,#383,.F.);
#237=ORIENTED_EDGE('',*,*,#382,.T.);
#238=ORIENTED_EDGE('',*,*,#379,.T.);
#239=ORIENTED_EDGE('',*,*,#373,.F.);
#240=ORIENTED_EDGE('',*,*,#405,.T.);
#241=ORIENTED_EDGE('',*,*,#410,.T.);
#242=ORIENTED_EDGE('',*,*,#402,.F.);
#243=ORIENTED_EDGE('',*,*,#391,.F.);
#244=ORIENTED_EDGE('',*,*,#411,.F.);
#245=ORIENTED_EDGE('',*,*,#406,.F.);
#246=ORIENTED_EDGE('',*,*,#385,.T.);
#247=ORIENTED_EDGE('',*,*,#409,.T.);
#248=ORIENTED_EDGE('',*,*,#381,.F.);
#249=ORIENTED_EDGE('',*,*,#384,.T.);
#250=ORIENTED_EDGE('',*,*,#375,.T.);
#251=ORIENTED_EDGE('',*,*,#378,.F.);
#252=ORIENTED_EDGE('',*,*,#396,.T.);
#253=ORIENTED_EDGE('',*,*,#403,.F.);
#254=ORIENTED_EDGE('',*,*,#410,.F.);
#255=ORIENTED_EDGE('',*,*,#404,.T.);
#256=ORIENTED_EDGE('',*,*,#399,.T.);
#257=ORIENTED_EDGE('',*,*,#407,.F.);
#258=ORIENTED_EDGE('',*,*,#411,.T.);
#259=ORIENTED_EDGE('',*,*,#408,.T.);
#260=ORIENTED_EDGE('',*,*,#412,.F.);
#261=ORIENTED_EDGE('',*,*,#413,.T.);
#262=ORIENTED_EDGE('',*,*,#414,.T.);
#263=ORIENTED_EDGE('',*,*,#415,.T.);
#264=ORIENTED_EDGE('',*,*,#416,.F.);
#265=ORIENTED_EDGE('',*,*,#417,.T.);
#266=ORIENTED_EDGE('',*,*,#418,.F.);
#267=ORIENTED_EDGE('',*,*,#419,.F.);
#268=ORIENTED_EDGE('',*,*,#414,.F.);
#269=ORIENTED_EDGE('',*,*,#420,.T.);
#270=ORIENTED_EDGE('',*,*,#419,.T.);
#271=ORIENTED_EDGE('',*,*,#421,.F.);
#272=ORIENTED_EDGE('',*,*,#422,.F.);
#273=ORIENTED_EDGE('',*,*,#412,.T.);
#274=ORIENTED_EDGE('',*,*,#423,.T.);
#275=ORIENTED_EDGE('',*,*,#417,.F.);
#276=ORIENTED_EDGE('',*,*,#423,.F.);
#277=ORIENTED_EDGE('',*,*,#415,.F.);
#278=ORIENTED_EDGE('',*,*,#421,.T.);
#279=ORIENTED_EDGE('',*,*,#418,.T.);
#280=ORIENTED_EDGE('',*,*,#420,.F.);
#281=ORIENTED_EDGE('',*,*,#413,.F.);
#282=ORIENTED_EDGE('',*,*,#422,.T.);
#283=ORIENTED_EDGE('',*,*,#416,.T.);
#284=ORIENTED_EDGE('',*,*,#424,.T.);
#285=ORIENTED_EDGE('',*,*,#425,.F.);
#286=ORIENTED_EDGE('',*,*,#426,.F.);
#287=ORIENTED_EDGE('',*,*,#427,.T.);
#288=ORIENTED_EDGE('',*,*,#428,.F.);
#289=ORIENTED_EDGE('',*,*,#429,.F.);
#290=ORIENTED_EDGE('',*,*,#426,.T.);
#291=ORIENTED_EDGE('',*,*,#430,.T.);
#292=ORIENTED_EDGE('',*,*,#431,.T.);
#293=ORIENTED_EDGE('',*,*,#432,.T.);
#294=ORIENTED_EDGE('',*,*,#433,.F.);
#295=ORIENTED_EDGE('',*,*,#424,.F.);
#296=ORIENTED_EDGE('',*,*,#433,.T.);
#297=ORIENTED_EDGE('',*,*,#434,.T.);
#298=ORIENTED_EDGE('',*,*,#430,.F.);
#299=ORIENTED_EDGE('',*,*,#425,.T.);
#300=ORIENTED_EDGE('',*,*,#435,.F.);
#301=ORIENTED_EDGE('',*,*,#431,.F.);
#302=ORIENTED_EDGE('',*,*,#427,.F.);
#303=ORIENTED_EDGE('',*,*,#429,.T.);
#304=ORIENTED_EDGE('',*,*,#428,.T.);
#305=ORIENTED_EDGE('',*,*,#434,.F.);
#306=ORIENTED_EDGE('',*,*,#432,.F.);
#307=ORIENTED_EDGE('',*,*,#435,.T.);
#308=ORIENTED_EDGE('',*,*,#436,.F.);
#309=ORIENTED_EDGE('',*,*,#437,.T.);
#310=ORIENTED_EDGE('',*,*,#436,.T.);
#311=ORIENTED_EDGE('',*,*,#437,.F.);
#312=EDGE_CURVE('',#438,#439,#524,.T.);
#313=EDGE_CURVE('',#438,#440,#525,.T.);
#314=EDGE_CURVE('',#440,#441,#526,.T.);
#315=EDGE_CURVE('',#439,#441,#527,.T.);
#316=EDGE_CURVE('',#442,#443,#528,.T.);
#317=EDGE_CURVE('',#442,#444,#529,.T.);
#318=EDGE_CURVE('',#444,#445,#530,.T.);
#319=EDGE_CURVE('',#443,#445,#531,.T.);
#320=EDGE_CURVE('',#446,#447,#532,.T.);
#321=EDGE_CURVE('',#446,#448,#533,.T.);
#322=EDGE_CURVE('',#448,#449,#534,.T.);
#323=EDGE_CURVE('',#447,#449,#535,.T.);
#324=EDGE_CURVE('',#450,#451,#536,.T.);
#325=EDGE_CURVE('',#450,#452,#537,.T.);
#326=EDGE_CURVE('',#452,#453,#538,.T.);
#327=EDGE_CURVE('',#451,#453,#539,.T.);
#328=EDGE_CURVE('',#444,#454,#540,.T.);
#329=EDGE_CURVE('',#454,#455,#541,.F.);
#330=EDGE_CURVE('',#455,#456,#542,.T.);
#331=EDGE_CURVE('',#456,#457,#543,.T.);
#332=EDGE_CURVE('',#458,#457,#544,.T.);
#333=EDGE_CURVE('',#445,#458,#545,.T.);
#334=EDGE_CURVE('',#442,#459,#546,.T.);
#335=EDGE_CURVE('',#443,#460,#547,.T.);
#336=EDGE_CURVE('',#460,#461,#548,.T.);
#337=EDGE_CURVE('',#462,#461,#549,.T.);
#338=EDGE_CURVE('',#463,#462,#550,.T.);
#339=EDGE_CURVE('',#459,#463,#551,.F.);
#340=EDGE_CURVE('',#450,#464,#552,.T.);
#341=EDGE_CURVE('',#464,#465,#553,.T.);
#342=EDGE_CURVE('',#466,#465,#554,.T.);
#343=EDGE_CURVE('',#466,#467,#555,.F.);
#344=EDGE_CURVE('',#467,#468,#556,.T.);
#345=EDGE_CURVE('',#469,#468,#557,.T.);
#346=EDGE_CURVE('',#452,#469,#558,.T.);
#347=EDGE_CURVE('',#451,#470,#559,.T.);
#348=EDGE_CURVE('',#453,#471,#560,.T.);
#349=EDGE_CURVE('',#471,#472,#561,.T.);
#350=EDGE_CURVE('',#473,#472,#562,.T.);
#351=EDGE_CURVE('',#474,#473,#563,.F.);
#352=EDGE_CURVE('',#474,#475,#564,.T.);
#353=EDGE_CURVE('',#470,#475,#565,.T.);
#354=EDGE_CURVE('',#454,#470,#566,.T.);
#355=EDGE_CURVE('',#475,#455,#567,.F.);
#356=EDGE_CURVE('',#464,#459,#568,.T.);
#357=EDGE_CURVE('',#463,#465,#569,.F.);
#358=EDGE_CURVE('',#461,#457,#570,.T.);
#359=EDGE_CURVE('',#460,#458,#571,.T.);
#360=EDGE_CURVE('',#462,#456,#572,.F.);
#361=EDGE_CURVE('',#474,#466,#573,.F.);
#362=EDGE_CURVE('',#467,#473,#574,.F.);
#363=EDGE_CURVE('',#468,#472,#575,.T.);
#364=EDGE_CURVE('',#469,#471,#576,.T.);
#365=EDGE_CURVE('',#447,#440,#577,.T.);
#366=EDGE_CURVE('',#446,#438,#578,.T.);
#367=EDGE_CURVE('',#448,#439,#579,.T.);
#368=EDGE_CURVE('',#449,#441,#580,.T.);
#369=EDGE_CURVE('',#476,#476,#10,.T.);
#370=EDGE_CURVE('',#477,#477,#11,.T.);
#371=EDGE_CURVE('',#478,#478,#12,.T.);
#372=EDGE_CURVE('',#479,#479,#13,.T.);
#373=EDGE_CURVE('',#480,#481,#581,.T.);
#374=EDGE_CURVE('',#481,#482,#582,.T.);
#375=EDGE_CURVE('',#483,#482,#583,.T.);
#376=EDGE_CURVE('',#480,#483,#584,.T.);
#377=EDGE_CURVE('',#484,#485,#585,.T.);
#378=EDGE_CURVE('',#485,#482,#586,.T.);
#379=EDGE_CURVE('',#484,#481,#587,.T.);
#380=EDGE_CURVE('',#486,#487,#588,.T.);
#381=EDGE_CURVE('',#487,#485,#589,.T.);
#382=EDGE_CURVE('',#486,#484,#590,.T.);
#383=EDGE_CURVE('',#486,#480,#591,.T.);
#384=EDGE_CURVE('',#487,#483,#592,.T.);
#385=EDGE_CURVE('',#488,#489,#593,.T.);
#386=EDGE_CURVE('',#488,#490,#594,.T.);
#387=EDGE_CURVE('',#490,#491,#595,.F.);
#388=EDGE_CURVE('',#489,#491,#596,.T.);
#389=EDGE_CURVE('',#492,#493,#597,.T.);
#390=EDGE_CURVE('',#494,#492,#598,.T.);
#391=EDGE_CURVE('',#494,#495,#599,.T.);
#392=EDGE_CURVE('',#495,#493,#600,.T.);
#393=EDGE_CURVE('',#496,#490,#601,.T.);
#394=EDGE_CURVE('',#496,#497,#602,.F.);
#395=EDGE_CURVE('',#497,#491,#603,.T.);
#396=EDGE_CURVE('',#498,#499,#604,.T.);
#397=EDGE_CURVE('',#497,#498,#605,.F.);
#398=EDGE_CURVE('',#496,#500,#606,.F.);
#399=EDGE_CURVE('',#501,#500,#607,.T.);
#400=EDGE_CURVE('',#492,#501,#608,.T.);
#401=EDGE_CURVE('',#493,#499,#609,.T.);
#402=EDGE_CURVE('',#495,#502,#610,.T.);
#403=EDGE_CURVE('',#502,#499,#611,.T.);
#404=EDGE_CURVE('',#503,#501,#612,.T.);
#405=EDGE_CURVE('',#494,#503,#613,.T.);
#406=EDGE_CURVE('',#488,#504,#614,.T.);
#407=EDGE_CURVE('',#504,#500,#615,.T.);
#408=EDGE_CURVE('',#505,#498,#616,.T.);
#409=EDGE_CURVE('',#489,#505,#617,.T.);
#410=EDGE_CURVE('',#503,#502,#618,.T.);
#411=EDGE_CURVE('',#504,#505,#619,.T.);
#412=EDGE_CURVE('',#506,#507,#620,.T.);
#413=EDGE_CURVE('',#506,#508,#621,.T.);
#414=EDGE_CURVE('',#508,#509,#622,.T.);
#415=EDGE_CURVE('',#509,#507,#623,.T.);
#416=EDGE_CURVE('',#510,#511,#624,.T.);
#417=EDGE_CURVE('',#510,#512,#625,.T.);
#418=EDGE_CURVE('',#513,#512,#626,.T.);
#419=EDGE_CURVE('',#511,#513,#627,.T.);
#420=EDGE_CURVE('',#508,#511,#628,.T.);
#421=EDGE_CURVE('',#509,#513,#629,.T.);
#422=EDGE_CURVE('',#506,#510,#630,.T.);
#423=EDGE_CURVE('',#507,#512,#631,.T.);
#424=EDGE_CURVE('',#514,#515,#632,.T.);
#425=EDGE_CURVE('',#516,#515,#633,.T.);
#426=EDGE_CURVE('',#517,#516,#634,.T.);
#427=EDGE_CURVE('',#517,#514,#635,.T.);
#428=EDGE_CURVE('',#518,#519,#636,.T.);
#429=EDGE_CURVE('',#517,#518,#637,.T.);
#430=EDGE_CURVE('',#516,#519,#638,.T.);
#431=EDGE_CURVE('',#514,#520,#639,.T.);
#432=EDGE_CURVE('',#520,#521,#640,.T.);
#433=EDGE_CURVE('',#515,#521,#641,.T.);
#434=EDGE_CURVE('',#521,#519,#642,.T.);
#435=EDGE_CURVE('',#520,#518,#643,.T.);
#436=EDGE_CURVE('',#522,#522,#14,.T.);
#437=EDGE_CURVE('',#523,#523,#15,.T.);
#438=VERTEX_POINT('',#1398);
#439=VERTEX_POINT('',#1399);
#440=VERTEX_POINT('',#1401);
#441=VERTEX_POINT('',#1403);
#442=VERTEX_POINT('',#1406);
#443=VERTEX_POINT('',#1407);
#444=VERTEX_POINT('',#1409);
#445=VERTEX_POINT('',#1411);
#446=VERTEX_POINT('',#1415);
#447=VERTEX_POINT('',#1416);
#448=VERTEX_POINT('',#1418);
#449=VERTEX_POINT('',#1420);
#450=VERTEX_POINT('',#1423);
#451=VERTEX_POINT('',#1424);
#452=VERTEX_POINT('',#1426);
#453=VERTEX_POINT('',#1428);
#454=VERTEX_POINT('',#1432);
#455=VERTEX_POINT('',#1434);
#456=VERTEX_POINT('',#1436);
#457=VERTEX_POINT('',#1438);
#458=VERTEX_POINT('',#1440);
#459=VERTEX_POINT('',#1444);
#460=VERTEX_POINT('',#1446);
#461=VERTEX_POINT('',#1448);
#462=VERTEX_POINT('',#1450);
#463=VERTEX_POINT('',#1452);
#464=VERTEX_POINT('',#1456);
#465=VERTEX_POINT('',#1458);
#466=VERTEX_POINT('',#1460);
#467=VERTEX_POINT('',#1462);
#468=VERTEX_POINT('',#1464);
#469=VERTEX_POINT('',#1466);
#470=VERTEX_POINT('',#1470);
#471=VERTEX_POINT('',#1472);
#472=VERTEX_POINT('',#1474);
#473=VERTEX_POINT('',#1476);
#474=VERTEX_POINT('',#1478);
#475=VERTEX_POINT('',#1480);
#476=VERTEX_POINT('',#1515);
#477=VERTEX_POINT('',#1517);
#478=VERTEX_POINT('',#1520);
#479=VERTEX_POINT('',#1523);
#480=VERTEX_POINT('',#1529);
#481=VERTEX_POINT('',#1530);
#482=VERTEX_POINT('',#1532);
#483=VERTEX_POINT('',#1534);
#484=VERTEX_POINT('',#1538);
#485=VERTEX_POINT('',#1539);
#486=VERTEX_POINT('',#1544);
#487=VERTEX_POINT('',#1545);
#488=VERTEX_POINT('',#1553);
#489=VERTEX_POINT('',#1554);
#490=VERTEX_POINT('',#1556);
#491=VERTEX_POINT('',#1558);
#492=VERTEX_POINT('',#1562);
#493=VERTEX_POINT('',#1563);
#494=VERTEX_POINT('',#1565);
#495=VERTEX_POINT('',#1567);
#496=VERTEX_POINT('',#1571);
#497=VERTEX_POINT('',#1573);
#498=VERTEX_POINT('',#1577);
#499=VERTEX_POINT('',#1578);
#500=VERTEX_POINT('',#1581);
#501=VERTEX_POINT('',#1583);
#502=VERTEX_POINT('',#1588);
#503=VERTEX_POINT('',#1592);
#504=VERTEX_POINT('',#1596);
#505=VERTEX_POINT('',#1600);
#506=VERTEX_POINT('',#1610);
#507=VERTEX_POINT('',#1611);
#508=VERTEX_POINT('',#1613);
#509=VERTEX_POINT('',#1615);
#510=VERTEX_POINT('',#1619);
#511=VERTEX_POINT('',#1620);
#512=VERTEX_POINT('',#1622);
#513=VERTEX_POINT('',#1624);
#514=VERTEX_POINT('',#1637);
#515=VERTEX_POINT('',#1638);
#516=VERTEX_POINT('',#1640);
#517=VERTEX_POINT('',#1642);
#518=VERTEX_POINT('',#1646);
#519=VERTEX_POINT('',#1647);
#520=VERTEX_POINT('',#1652);
#521=VERTEX_POINT('',#1654);
#522=VERTEX_POINT('',#1664);
#523=VERTEX_POINT('',#1666);
#524=LINE('',#1397,#644);
#525=LINE('',#1400,#645);
#526=LINE('',#1402,#646);
#527=LINE('',#1404,#647);
#528=LINE('',#1405,#648);
#529=LINE('',#1408,#649);
#530=LINE('',#1410,#650);
#531=LINE('',#1412,#651);
#532=LINE('',#1414,#652);
#533=LINE('',#1417,#653);
#534=LINE('',#1419,#654);
#535=LINE('',#1421,#655);
#536=LINE('',#1422,#656);
#537=LINE('',#1425,#657);
#538=LINE('',#1427,#658);
#539=LINE('',#1429,#659);
#540=LINE('',#1431,#660);
#541=LINE('',#1433,#661);
#542=LINE('',#1435,#662);
#543=LINE('',#1437,#663);
#544=LINE('',#1439,#664);
#545=LINE('',#1441,#665);
#546=LINE('',#1443,#666);
#547=LINE('',#1445,#667);
#548=LINE('',#1447,#668);
#549=LINE('',#1449,#669);
#550=LINE('',#1451,#670);
#551=LINE('',#1453,#671);
#552=LINE('',#1455,#672);
#553=LINE('',#1457,#673);
#554=LINE('',#1459,#674);
#555=LINE('',#1461,#675);
#556=LINE('',#1463,#676);
#557=LINE('',#1465,#677);
#558=LINE('',#1467,#678);
#559=LINE('',#1469,#679);
#560=LINE('',#1471,#680);
#561=LINE('',#1473,#681);
#562=LINE('',#1475,#682);
#563=LINE('',#1477,#683);
#564=LINE('',#1479,#684);
#565=LINE('',#1481,#685);
#566=LINE('',#1483,#686);
#567=LINE('',#1484,#687);
#568=LINE('',#1486,#688);
#569=LINE('',#1487,#689);
#570=LINE('',#1489,#690);
#571=LINE('',#1490,#691);
#572=LINE('',#1493,#692);
#573=LINE('',#1495,#693);
#574=LINE('',#1496,#694);
#575=LINE('',#1498,#695);
#576=LINE('',#1499,#696);
#577=LINE('',#1504,#697);
#578=LINE('',#1505,#698);
#579=LINE('',#1507,#699);
#580=LINE('',#1509,#700);
#581=LINE('',#1528,#701);
#582=LINE('',#1531,#702);
#583=LINE('',#1533,#703);
#584=LINE('',#1535,#704);
#585=LINE('',#1537,#705);
#586=LINE('',#1540,#706);
#587=LINE('',#1541,#707);
#588=LINE('',#1543,#708);
#589=LINE('',#1546,#709);
#590=LINE('',#1547,#710);
#591=LINE('',#1549,#711);
#592=LINE('',#1550,#712);
#593=LINE('',#1552,#713);
#594=LINE('',#1555,#714);
#595=LINE('',#1557,#715);
#596=LINE('',#1559,#716);
#597=LINE('',#1561,#717);
#598=LINE('',#1564,#718);
#599=LINE('',#1566,#719);
#600=LINE('',#1568,#720);
#601=LINE('',#1570,#721);
#602=LINE('',#1572,#722);
#603=LINE('',#1574,#723);
#604=LINE('',#1576,#724);
#605=LINE('',#1579,#725);
#606=LINE('',#1580,#726);
#607=LINE('',#1582,#727);
#608=LINE('',#1584,#728);
#609=LINE('',#1585,#729);
#610=LINE('',#1587,#730);
#611=LINE('',#1589,#731);
#612=LINE('',#1591,#732);
#613=LINE('',#1593,#733);
#614=LINE('',#1595,#734);
#615=LINE('',#1597,#735);
#616=LINE('',#1599,#736);
#617=LINE('',#1601,#737);
#618=LINE('',#1603,#738);
#619=LINE('',#1605,#739);
#620=LINE('',#1609,#740);
#621=LINE('',#1612,#741);
#622=LINE('',#1614,#742);
#623=LINE('',#1616,#743);
#624=LINE('',#1618,#744);
#625=LINE('',#1621,#745);
#626=LINE('',#1623,#746);
#627=LINE('',#1625,#747);
#628=LINE('',#1627,#748);
#629=LINE('',#1628,#749);
#630=LINE('',#1630,#750);
#631=LINE('',#1631,#751);
#632=LINE('',#1636,#752);
#633=LINE('',#1639,#753);
#634=LINE('',#1641,#754);
#635=LINE('',#1643,#755);
#636=LINE('',#1645,#756);
#637=LINE('',#1648,#757);
#638=LINE('',#1649,#758);
#639=LINE('',#1651,#759);
#640=LINE('',#1653,#760);
#641=LINE('',#1655,#761);
#642=LINE('',#1657,#762);
#643=LINE('',#1659,#763);
#644=VECTOR('',#1141,1.);
#645=VECTOR('',#1142,1.);
#646=VECTOR('',#1143,1.);
#647=VECTOR('',#1144,1.);
#648=VECTOR('',#1145,1.);
#649=VECTOR('',#1146,1.);
#650=VECTOR('',#1147,1.);
#651=VECTOR('',#1148,1.);
#652=VECTOR('',#1151,1.);
#653=VECTOR('',#1152,1.);
#654=VECTOR('',#1153,1.);
#655=VECTOR('',#1154,1.);
#656=VECTOR('',#1155,1.);
#657=VECTOR('',#1156,1.);
#658=VECTOR('',#1157,1.);
#659=VECTOR('',#1158,1.);
#660=VECTOR('',#1161,1.);
#661=VECTOR('',#1162,1.);
#662=VECTOR('',#1163,1.);
#663=VECTOR('',#1164,1.);
#664=VECTOR('',#1165,1.);
#665=VECTOR('',#1166,1.);
#666=VECTOR('',#1169,1.);
#667=VECTOR('',#1170,1.);
#668=VECTOR('',#1171,1.);
#669=VECTOR('',#1172,1.);
#670=VECTOR('',#1173,1.);
#671=VECTOR('',#1174,1.);
#672=VECTOR('',#1177,1.);
#673=VECTOR('',#1178,1.);
#674=VECTOR('',#1179,1.);
#675=VECTOR('',#1180,1.);
#676=VECTOR('',#1181,1.);
#677=VECTOR('',#1182,1.);
#678=VECTOR('',#1183,1.);
#679=VECTOR('',#1186,1.);
#680=VECTOR('',#1187,1.);
#681=VECTOR('',#1188,1.);
#682=VECTOR('',#1189,1.);
#683=VECTOR('',#1190,1.);
#684=VECTOR('',#1191,1.);
#685=VECTOR('',#1192,1.);
#686=VECTOR('',#1195,1.);
#687=VECTOR('',#1196,1.);
#688=VECTOR('',#1199,1.);
#689=VECTOR('',#1200,1.);
#690=VECTOR('',#1203,1.);
#691=VECTOR('',#1204,1.);
#692=VECTOR('',#1209,1.);
#693=VECTOR('',#1212,1.);
#694=VECTOR('',#1213,1.);
#695=VECTOR('',#1216,1.);
#696=VECTOR('',#1217,1.);
#697=VECTOR('',#1226,1.);
#698=VECTOR('',#1227,1.);
#699=VECTOR('',#1230,1.);
#700=VECTOR('',#1233,1.);
#701=VECTOR('',#1262,1.);
#702=VECTOR('',#1263,1.);
#703=VECTOR('',#1264,1.);
#704=VECTOR('',#1265,1.);
#705=VECTOR('',#1268,1.);
#706=VECTOR('',#1269,1.);
#707=VECTOR('',#1270,1.);
#708=VECTOR('',#1273,1.);
#709=VECTOR('',#1274,1.);
#710=VECTOR('',#1275,1.);
#711=VECTOR('',#1278,1.);
#712=VECTOR('',#1279,1.);
#713=VECTOR('',#1282,1.);
#714=VECTOR('',#1283,1.);
#715=VECTOR('',#1284,1.);
#716=VECTOR('',#1285,1.);
#717=VECTOR('',#1288,1.);
#718=VECTOR('',#1289,1.);
#719=VECTOR('',#1290,1.);
#720=VECTOR('',#1291,1.);
#721=VECTOR('',#1294,1.);
#722=VECTOR('',#1295,1.);
#723=VECTOR('',#1296,1.);
#724=VECTOR('',#1299,1.);
#725=VECTOR('',#1300,1.);
#726=VECTOR('',#1301,1.);
#727=VECTOR('',#1302,1.);
#728=VECTOR('',#1303,1.);
#729=VECTOR('',#1304,1.);
#730=VECTOR('',#1307,1.);
#731=VECTOR('',#1308,1.);
#732=VECTOR('',#1311,1.);
#733=VECTOR('',#1312,1.);
#734=VECTOR('',#1315,1.);
#735=VECTOR('',#1316,1.);
#736=VECTOR('',#1319,1.);
#737=VECTOR('',#1320,1.);
#738=VECTOR('',#1323,1.);
#739=VECTOR('',#1326,1.);
#740=VECTOR('',#1333,1.);
#741=VECTOR('',#1334,1.);
#742=VECTOR('',#1335,1.);
#743=VECTOR('',#1336,1.);
#744=VECTOR('',#1339,1.);
#745=VECTOR('',#1340,1.);
#746=VECTOR('',#1341,1.);
#747=VECTOR('',#1342,1.);
#748=VECTOR('',#1345,1.);
#749=VECTOR('',#1346,1.);
#750=VECTOR('',#1349,1.);
#751=VECTOR('',#1350,1.);
#752=VECTOR('',#1359,1.);
#753=VECTOR('',#1360,1.);
#754=VECTOR('',#1361,1.);
#755=VECTOR('',#1362,1.);
#756=VECTOR('',#1365,1.);
#757=VECTOR('',#1366,1.);
#758=VECTOR('',#1367,1.);
#759=VECTOR('',#1370,1.);
#760=VECTOR('',#1371,1.);
#761=VECTOR('',#1372,1.);
#762=VECTOR('',#1375,1.);
#763=VECTOR('',#1378,1.);
#764=EDGE_LOOP('',(#60,#61,#62,#63));
#765=EDGE_LOOP('',(#64,#65,#66,#67));
#766=EDGE_LOOP('',(#68,#69,#70,#71));
#767=EDGE_LOOP('',(#72,#73,#74,#75));
#768=EDGE_LOOP('',(#76,#77,#78,#79,#80,#81,#82));
#769=EDGE_LOOP('',(#83,#84,#85,#86,#87,#88,#89));
#770=EDGE_LOOP('',(#90,#91,#92,#93,#94,#95,#96,#97));
#771=EDGE_LOOP('',(#98,#99,#100,#101,#102,#103,#104,#105));
#772=EDGE_LOOP('',(#106,#107,#108,#109));
#773=EDGE_LOOP('',(#110,#111,#112,#113));
#774=EDGE_LOOP('',(#114,#115,#116,#117));
#775=EDGE_LOOP('',(#118,#119,#120,#121));
#776=EDGE_LOOP('',(#122,#123,#124,#125));
#777=EDGE_LOOP('',(#126,#127,#128,#129));
#778=EDGE_LOOP('',(#130,#131,#132,#133));
#779=EDGE_LOOP('',(#134,#135,#136,#137));
#780=EDGE_LOOP('',(#138,#139,#140,#141));
#781=EDGE_LOOP('',(#142,#143,#144,#145,#146,#147,#148,#149));
#782=EDGE_LOOP('',(#150,#151,#152,#153));
#783=EDGE_LOOP('',(#154,#155,#156,#157));
#784=EDGE_LOOP('',(#158,#159,#160,#161));
#785=EDGE_LOOP('',(#162,#163,#164,#165));
#786=EDGE_LOOP('',(#166,#167,#168,#169,#170,#171,#172,#173));
#787=EDGE_LOOP('',(#174));
#788=EDGE_LOOP('',(#175));
#789=EDGE_LOOP('',(#176));
#790=EDGE_LOOP('',(#177));
#791=EDGE_LOOP('',(#178));
#792=EDGE_LOOP('',(#179));
#793=EDGE_LOOP('',(#180));
#794=EDGE_LOOP('',(#181));
#795=EDGE_LOOP('',(#182,#183,#184,#185));
#796=EDGE_LOOP('',(#186,#187,#188,#189));
#797=EDGE_LOOP('',(#190,#191,#192,#193));
#798=EDGE_LOOP('',(#194,#195,#196,#197));
#799=EDGE_LOOP('',(#198,#199,#200,#201));
#800=EDGE_LOOP('',(#202,#203,#204,#205));
#801=EDGE_LOOP('',(#206,#207,#208,#209));
#802=EDGE_LOOP('',(#210,#211,#212,#213,#214,#215,#216,#217));
#803=EDGE_LOOP('',(#218,#219,#220,#221));
#804=EDGE_LOOP('',(#222,#223,#224,#225));
#805=EDGE_LOOP('',(#226,#227,#228,#229,#230));
#806=EDGE_LOOP('',(#231,#232,#233,#234,#235));
#807=EDGE_LOOP('',(#236,#237,#238,#239));
#808=EDGE_LOOP('',(#240,#241,#242,#243));
#809=EDGE_LOOP('',(#244,#245,#246,#247));
#810=EDGE_LOOP('',(#248,#249,#250,#251));
#811=EDGE_LOOP('',(#252,#253,#254,#255,#256,#257,#258,#259));
#812=EDGE_LOOP('',(#260,#261,#262,#263));
#813=EDGE_LOOP('',(#264,#265,#266,#267));
#814=EDGE_LOOP('',(#268,#269,#270,#271));
#815=EDGE_LOOP('',(#272,#273,#274,#275));
#816=EDGE_LOOP('',(#276,#277,#278,#279));
#817=EDGE_LOOP('',(#280,#281,#282,#283));
#818=EDGE_LOOP('',(#284,#285,#286,#287));
#819=EDGE_LOOP('',(#288,#289,#290,#291));
#820=EDGE_LOOP('',(#292,#293,#294,#295));
#821=EDGE_LOOP('',(#296,#297,#298,#299));
#822=EDGE_LOOP('',(#300,#301,#302,#303));
#823=EDGE_LOOP('',(#304,#305,#306,#307));
#824=EDGE_LOOP('',(#308));
#825=EDGE_LOOP('',(#309));
#826=EDGE_LOOP('',(#310));
#827=EDGE_LOOP('',(#311));
#828=FACE_BOUND('',#764,.T.);
#829=FACE_BOUND('',#765,.T.);
#830=FACE_BOUND('',#766,.T.);
#831=FACE_BOUND('',#767,.T.);
#832=FACE_BOUND('',#768,.T.);
#833=FACE_BOUND('',#769,.T.);
#834=FACE_BOUND('',#770,.T.);
#835=FACE_BOUND('',#771,.T.);
#836=FACE_BOUND('',#772,.T.);
#837=FACE_BOUND('',#773,.T.);
#838=FACE_BOUND('',#774,.T.);
#839=FACE_BOUND('',#775,.T.);
#840=FACE_BOUND('',#776,.T.);
#841=FACE_BOUND('',#777,.T.);
#842=FACE_BOUND('',#778,.T.);
#843=FACE_BOUND('',#779,.T.);
#844=FACE_BOUND('',#780,.T.);
#845=FACE_BOUND('',#781,.T.);
#846=FACE_BOUND('',#782,.T.);
#847=FACE_BOUND('',#783,.T.);
#848=FACE_BOUND('',#784,.T.);
#849=FACE_BOUND('',#785,.T.);
#850=FACE_BOUND('',#786,.T.);
#851=FACE_BOUND('',#787,.T.);
#852=FACE_BOUND('',#788,.T.);
#853=FACE_BOUND('',#789,.T.);
#854=FACE_BOUND('',#790,.T.);
#855=FACE_BOUND('',#791,.T.);
#856=FACE_BOUND('',#792,.T.);
#857=FACE_BOUND('',#793,.T.);
#858=FACE_BOUND('',#794,.T.);
#859=FACE_BOUND('',#795,.T.);
#860=FACE_BOUND('',#796,.T.);
#861=FACE_BOUND('',#797,.T.);
#862=FACE_BOUND('',#798,.T.);
#863=FACE_BOUND('',#799,.T.);
#864=FACE_BOUND('',#800,.T.);
#865=FACE_BOUND('',#801,.T.);
#866=FACE_BOUND('',#802,.T.);
#867=FACE_BOUND('',#803,.T.);
#868=FACE_BOUND('',#804,.T.);
#869=FACE_BOUND('',#805,.T.);
#870=FACE_BOUND('',#806,.T.);
#871=FACE_BOUND('',#807,.T.);
#872=FACE_BOUND('',#808,.T.);
#873=FACE_BOUND('',#809,.T.);
#874=FACE_BOUND('',#810,.T.);
#875=FACE_BOUND('',#811,.T.);
#876=FACE_BOUND('',#812,.T.);
#877=FACE_BOUND('',#813,.T.);
#878=FACE_BOUND('',#814,.T.);
#879=FACE_BOUND('',#815,.T.);
#880=FACE_BOUND('',#816,.T.);
#881=FACE_BOUND('',#817,.T.);
#882=FACE_BOUND('',#818,.T.);
#883=FACE_BOUND('',#819,.T.);
#884=FACE_BOUND('',#820,.T.);
#885=FACE_BOUND('',#821,.T.);
#886=FACE_BOUND('',#822,.T.);
#887=FACE_BOUND('',#823,.T.);
#888=FACE_BOUND('',#824,.T.);
#889=FACE_BOUND('',#825,.T.);
#890=FACE_BOUND('',#826,.T.);
#891=FACE_BOUND('',#827,.T.);
#892=PLANE('',#1069);
#893=PLANE('',#1070);
#894=PLANE('',#1071);
#895=PLANE('',#1072);
#896=PLANE('',#1073);
#897=PLANE('',#1074);
#898=PLANE('',#1075);
#899=PLANE('',#1076);
#900=PLANE('',#1077);
#901=PLANE('',#1078);
#902=PLANE('',#1079);
#903=PLANE('',#1080);
#904=PLANE('',#1081);
#905=PLANE('',#1082);
#906=PLANE('',#1083);
#907=PLANE('',#1084);
#908=PLANE('',#1085);
#909=PLANE('',#1086);
#910=PLANE('',#1087);
#911=PLANE('',#1088);
#912=PLANE('',#1089);
#913=PLANE('',#1094);
#914=PLANE('',#1096);
#915=PLANE('',#1101);
#916=PLANE('',#1102);
#917=PLANE('',#1103);
#918=PLANE('',#1104);
#919=PLANE('',#1105);
#920=PLANE('',#1106);
#921=PLANE('',#1107);
#922=PLANE('',#1108);
#923=PLANE('',#1109);
#924=PLANE('',#1110);
#925=PLANE('',#1111);
#926=PLANE('',#1112);
#927=PLANE('',#1113);
#928=PLANE('',#1114);
#929=PLANE('',#1115);
#930=PLANE('',#1117);
#931=PLANE('',#1118);
#932=PLANE('',#1119);
#933=PLANE('',#1120);
#934=PLANE('',#1121);
#935=PLANE('',#1122);
#936=PLANE('',#1124);
#937=PLANE('',#1125);
#938=PLANE('',#1126);
#939=PLANE('',#1127);
#940=PLANE('',#1128);
#941=PLANE('',#1129);
#942=PLANE('',#1134);
#943=PLANE('',#1135);
#944=ADVANCED_FACE('',(#828,#829),#892,.T.);
#945=ADVANCED_FACE('',(#830,#831),#893,.F.);
#946=ADVANCED_FACE('',(#832),#894,.T.);
#947=ADVANCED_FACE('',(#833),#895,.F.);
#948=ADVANCED_FACE('',(#834),#896,.T.);
#949=ADVANCED_FACE('',(#835),#897,.F.);
#950=ADVANCED_FACE('',(#836),#898,.T.);
#951=ADVANCED_FACE('',(#837),#899,.T.);
#952=ADVANCED_FACE('',(#838),#900,.T.);
#953=ADVANCED_FACE('',(#839),#901,.T.);
#954=ADVANCED_FACE('',(#840),#902,.F.);
#955=ADVANCED_FACE('',(#841),#903,.F.);
#956=ADVANCED_FACE('',(#842),#904,.F.);
#957=ADVANCED_FACE('',(#843),#905,.F.);
#958=ADVANCED_FACE('',(#844),#906,.T.);
#959=ADVANCED_FACE('',(#845),#907,.F.);
#960=ADVANCED_FACE('',(#846),#908,.T.);
#961=ADVANCED_FACE('',(#847),#909,.F.);
#962=ADVANCED_FACE('',(#848),#910,.F.);
#963=ADVANCED_FACE('',(#849),#911,.T.);
#964=ADVANCED_FACE('',(#850),#912,.T.);
#965=ADVANCED_FACE('',(#851,#852),#16,.T.);
#966=ADVANCED_FACE('',(#853,#854),#913,.T.);
#967=ADVANCED_FACE('',(#855,#856),#914,.F.);
#968=ADVANCED_FACE('',(#857,#858),#17,.F.);
#969=ADVANCED_FACE('',(#859),#915,.T.);
#970=ADVANCED_FACE('',(#860),#916,.F.);
#971=ADVANCED_FACE('',(#861),#917,.F.);
#972=ADVANCED_FACE('',(#862),#918,.T.);
#973=ADVANCED_FACE('',(#863),#919,.T.);
#974=ADVANCED_FACE('',(#864),#920,.F.);
#975=ADVANCED_FACE('',(#865),#921,.T.);
#976=ADVANCED_FACE('',(#866),#922,.T.);
#977=ADVANCED_FACE('',(#867),#923,.F.);
#978=ADVANCED_FACE('',(#868),#924,.T.);
#979=ADVANCED_FACE('',(#869),#925,.F.);
#980=ADVANCED_FACE('',(#870),#926,.T.);
#981=ADVANCED_FACE('',(#871,#872),#927,.F.);
#982=ADVANCED_FACE('',(#873,#874),#928,.T.);
#983=ADVANCED_FACE('',(#875),#929,.F.);
#984=ADVANCED_FACE('',(#876),#930,.T.);
#985=ADVANCED_FACE('',(#877),#931,.F.);
#986=ADVANCED_FACE('',(#878),#932,.T.);
#987=ADVANCED_FACE('',(#879),#933,.F.);
#988=ADVANCED_FACE('',(#880),#934,.T.);
#989=ADVANCED_FACE('',(#881),#935,.T.);
#990=ADVANCED_FACE('',(#882),#936,.F.);
#991=ADVANCED_FACE('',(#883),#937,.T.);
#992=ADVANCED_FACE('',(#884),#938,.F.);
#993=ADVANCED_FACE('',(#885),#939,.F.);
#994=ADVANCED_FACE('',(#886),#940,.T.);
#995=ADVANCED_FACE('',(#887),#941,.F.);
#996=ADVANCED_FACE('',(#888,#889),#18,.T.);
#997=ADVANCED_FACE('',(#890),#942,.T.);
#998=ADVANCED_FACE('',(#891),#943,.F.);
#999=CLOSED_SHELL('',(#944,#945,#946,#947,#948,#949,#950,#951,#952,#953,
#954,#955,#956,#957,#958,#959,#960,#961,#962,#963,#964));
#1000=CLOSED_SHELL('',(#965,#966,#967,#968));
#1001=CLOSED_SHELL('',(#969,#970,#971,#972,#973,#974,#975,#976,#977,#978,
#979,#980,#981,#982,#983));
#1002=CLOSED_SHELL('',(#984,#985,#986,#987,#988,#989));
#1003=CLOSED_SHELL('',(#990,#991,#992,#993,#994,#995));
#1004=CLOSED_SHELL('',(#996,#997,#998));
#1005=STYLED_ITEM('',(#1011),#1048);
#1006=STYLED_ITEM('',(#1012),#1049);
#1007=STYLED_ITEM('',(#1013),#1050);
#1008=STYLED_ITEM('',(#1014),#1051);
#1009=STYLED_ITEM('',(#1015),#1052);
#1010=STYLED_ITEM('',(#1016),#1053);
#1011=PRESENTATION_STYLE_ASSIGNMENT((#1017));
#1012=PRESENTATION_STYLE_ASSIGNMENT((#1018));
#1013=PRESENTATION_STYLE_ASSIGNMENT((#1019));
#1014=PRESENTATION_STYLE_ASSIGNMENT((#1020));
#1015=PRESENTATION_STYLE_ASSIGNMENT((#1021));
#1016=PRESENTATION_STYLE_ASSIGNMENT((#1022));
#1017=SURFACE_STYLE_USAGE(.BOTH.,#1023);
#1018=SURFACE_STYLE_USAGE(.BOTH.,#1024);
#1019=SURFACE_STYLE_USAGE(.BOTH.,#1025);
#1020=SURFACE_STYLE_USAGE(.BOTH.,#1026);
#1021=SURFACE_STYLE_USAGE(.BOTH.,#1027);
#1022=SURFACE_STYLE_USAGE(.BOTH.,#1028);
#1023=SURFACE_SIDE_STYLE('',(#1029));
#1024=SURFACE_SIDE_STYLE('',(#1030));
#1025=SURFACE_SIDE_STYLE('',(#1031));
#1026=SURFACE_SIDE_STYLE('',(#1032));
#1027=SURFACE_SIDE_STYLE('',(#1033));
#1028=SURFACE_SIDE_STYLE('',(#1034));
#1029=SURFACE_STYLE_FILL_AREA(#1035);
#1030=SURFACE_STYLE_FILL_AREA(#1036);
#1031=SURFACE_STYLE_FILL_AREA(#1037);
#1032=SURFACE_STYLE_FILL_AREA(#1038);
#1033=SURFACE_STYLE_FILL_AREA(#1039);
#1034=SURFACE_STYLE_FILL_AREA(#1040);
#1035=FILL_AREA_STYLE('',(#1041));
#1036=FILL_AREA_STYLE('',(#1042));
#1037=FILL_AREA_STYLE('',(#1043));
#1038=FILL_AREA_STYLE('',(#1044));
#1039=FILL_AREA_STYLE('',(#1045));
#1040=FILL_AREA_STYLE('',(#1046));
#1041=FILL_AREA_STYLE_COLOUR('',#1047);
#1042=FILL_AREA_STYLE_COLOUR('',#19);
#1043=FILL_AREA_STYLE_COLOUR('',#1047);
#1044=FILL_AREA_STYLE_COLOUR('',#1047);
#1045=FILL_AREA_STYLE_COLOUR('',#1047);
#1046=FILL_AREA_STYLE_COLOUR('',#1047);
#1047=DRAUGHTING_PRE_DEFINED_COLOUR('black');
#1048=MANIFOLD_SOLID_BREP('Part 2',#999);
#1049=MANIFOLD_SOLID_BREP('Part 1',#1000);
#1050=MANIFOLD_SOLID_BREP('Part 1',#1001);
#1051=MANIFOLD_SOLID_BREP('Part 2',#1002);
#1052=MANIFOLD_SOLID_BREP('Part 1',#1003);
#1053=MANIFOLD_SOLID_BREP('Part 1',#1004);
#1054=SHAPE_DEFINITION_REPRESENTATION(#1688,#1061);
#1055=SHAPE_DEFINITION_REPRESENTATION(#1689,#1062);
#1056=SHAPE_DEFINITION_REPRESENTATION(#1691,#1063);
#1057=SHAPE_DEFINITION_REPRESENTATION(#1694,#1064);
#1058=SHAPE_DEFINITION_REPRESENTATION(#1696,#1065);
#1059=SHAPE_DEFINITION_REPRESENTATION(#1698,#1066);
#1060=SHAPE_DEFINITION_REPRESENTATION(#1700,#1067);
#1061=SHAPE_REPRESENTATION('Casing',(#1068,#1090,#1099,#1100,#1116,#1123,
#1130,#1136),#1671);
#1062=SHAPE_REPRESENTATION('Part 2',(#1068),#1672);
#1063=SHAPE_REPRESENTATION('Part 1',(#1068),#1673);
#1064=SHAPE_REPRESENTATION('Part 1',(#1068),#1674);
#1065=SHAPE_REPRESENTATION('Part 2',(#1068),#1675);
#1066=SHAPE_REPRESENTATION('Part 1',(#1068),#1676);
#1067=SHAPE_REPRESENTATION('Part 1',(#1068),#1677);
#1068=AXIS2_PLACEMENT_3D('',#1395,#1137,#1138);
#1069=AXIS2_PLACEMENT_3D('',#1396,#1139,#1140);
#1070=AXIS2_PLACEMENT_3D('',#1413,#1149,#1150);
#1071=AXIS2_PLACEMENT_3D('',#1430,#1159,#1160);
#1072=AXIS2_PLACEMENT_3D('',#1442,#1167,#1168);
#1073=AXIS2_PLACEMENT_3D('',#1454,#1175,#1176);
#1074=AXIS2_PLACEMENT_3D('',#1468,#1184,#1185);
#1075=AXIS2_PLACEMENT_3D('',#1482,#1193,#1194);
#1076=AXIS2_PLACEMENT_3D('',#1485,#1197,#1198);
#1077=AXIS2_PLACEMENT_3D('',#1488,#1201,#1202);
#1078=AXIS2_PLACEMENT_3D('',#1491,#1205,#1206);
#1079=AXIS2_PLACEMENT_3D('',#1492,#1207,#1208);
#1080=AXIS2_PLACEMENT_3D('',#1494,#1210,#1211);
#1081=AXIS2_PLACEMENT_3D('',#1497,#1214,#1215);
#1082=AXIS2_PLACEMENT_3D('',#1500,#1218,#1219);
#1083=AXIS2_PLACEMENT_3D('',#1501,#1220,#1221);
#1084=AXIS2_PLACEMENT_3D('',#1502,#1222,#1223);
#1085=AXIS2_PLACEMENT_3D('',#1503,#1224,#1225);
#1086=AXIS2_PLACEMENT_3D('',#1506,#1228,#1229);
#1087=AXIS2_PLACEMENT_3D('',#1508,#1231,#1232);
#1088=AXIS2_PLACEMENT_3D('',#1510,#1234,#1235);
#1089=AXIS2_PLACEMENT_3D('',#1511,#1236,#1237);
#1090=AXIS2_PLACEMENT_3D('',#1512,#1238,#1239);
#1091=AXIS2_PLACEMENT_3D('',#1513,#1240,#1241);
#1092=AXIS2_PLACEMENT_3D('',#1514,#1242,#1243);
#1093=AXIS2_PLACEMENT_3D('',#1516,#1244,#1245);
#1094=AXIS2_PLACEMENT_3D('',#1518,#1246,#1247);
#1095=AXIS2_PLACEMENT_3D('',#1519,#1248,#1249);
#1096=AXIS2_PLACEMENT_3D('',#1521,#1250,#1251);
#1097=AXIS2_PLACEMENT_3D('',#1522,#1252,#1253);
#1098=AXIS2_PLACEMENT_3D('',#1524,#1254,#1255);
#1099=AXIS2_PLACEMENT_3D('',#1525,#1256,#1257);
#1100=AXIS2_PLACEMENT_3D('',#1526,#1258,#1259);
#1101=AXIS2_PLACEMENT_3D('',#1527,#1260,#1261);
#1102=AXIS2_PLACEMENT_3D('',#1536,#1266,#1267);
#1103=AXIS2_PLACEMENT_3D('',#1542,#1271,#1272);
#1104=AXIS2_PLACEMENT_3D('',#1548,#1276,#1277);
#1105=AXIS2_PLACEMENT_3D('',#1551,#1280,#1281);
#1106=AXIS2_PLACEMENT_3D('',#1560,#1286,#1287);
#1107=AXIS2_PLACEMENT_3D('',#1569,#1292,#1293);
#1108=AXIS2_PLACEMENT_3D('',#1575,#1297,#1298);
#1109=AXIS2_PLACEMENT_3D('',#1586,#1305,#1306);
#1110=AXIS2_PLACEMENT_3D('',#1590,#1309,#1310);
#1111=AXIS2_PLACEMENT_3D('',#1594,#1313,#1314);
#1112=AXIS2_PLACEMENT_3D('',#1598,#1317,#1318);
#1113=AXIS2_PLACEMENT_3D('',#1602,#1321,#1322);
#1114=AXIS2_PLACEMENT_3D('',#1604,#1324,#1325);
#1115=AXIS2_PLACEMENT_3D('',#1606,#1327,#1328);
#1116=AXIS2_PLACEMENT_3D('',#1607,#1329,#1330);
#1117=AXIS2_PLACEMENT_3D('',#1608,#1331,#1332);
#1118=AXIS2_PLACEMENT_3D('',#1617,#1337,#1338);
#1119=AXIS2_PLACEMENT_3D('',#1626,#1343,#1344);
#1120=AXIS2_PLACEMENT_3D('',#1629,#1347,#1348);
#1121=AXIS2_PLACEMENT_3D('',#1632,#1351,#1352);
#1122=AXIS2_PLACEMENT_3D('',#1633,#1353,#1354);
#1123=AXIS2_PLACEMENT_3D('',#1634,#1355,#1356);
#1124=AXIS2_PLACEMENT_3D('',#1635,#1357,#1358);
#1125=AXIS2_PLACEMENT_3D('',#1644,#1363,#1364);
#1126=AXIS2_PLACEMENT_3D('',#1650,#1368,#1369);
#1127=AXIS2_PLACEMENT_3D('',#1656,#1373,#1374);
#1128=AXIS2_PLACEMENT_3D('',#1658,#1376,#1377);
#1129=AXIS2_PLACEMENT_3D('',#1660,#1379,#1380);
#1130=AXIS2_PLACEMENT_3D('',#1661,#1381,#1382);
#1131=AXIS2_PLACEMENT_3D('',#1662,#1383,#1384);
#1132=AXIS2_PLACEMENT_3D('',#1663,#1385,#1386);
#1133=AXIS2_PLACEMENT_3D('',#1665,#1387,#1388);
#1134=AXIS2_PLACEMENT_3D('',#1667,#1389,#1390);
#1135=AXIS2_PLACEMENT_3D('',#1668,#1391,#1392);
#1136=AXIS2_PLACEMENT_3D('',#1669,#1393,#1394);
#1137=DIRECTION('',(0.,0.,1.));
#1138=DIRECTION('',(1.,0.,0.));
#1139=DIRECTION('',(0.,1.,0.));
#1140=DIRECTION('',(0.,0.,1.));
#1141=DIRECTION('',(0.,0.,-1.));
#1142=DIRECTION('',(-1.,0.,0.));
#1143=DIRECTION('',(0.,0.,-1.));
#1144=DIRECTION('',(-1.,0.,0.));
#1145=DIRECTION('',(0.,0.,-1.));
#1146=DIRECTION('',(1.,0.,0.));
#1147=DIRECTION('',(0.,0.,-1.));
#1148=DIRECTION('',(1.,0.,0.));
#1149=DIRECTION('',(0.,1.,0.));
#1150=DIRECTION('',(0.,0.,1.));
#1151=DIRECTION('',(-1.,0.,0.));
#1152=DIRECTION('',(0.,0.,-1.));
#1153=DIRECTION('',(-1.,0.,0.));
#1154=DIRECTION('',(0.,0.,-1.));
#1155=DIRECTION('',(1.,0.,0.));
#1156=DIRECTION('',(0.,0.,-1.));
#1157=DIRECTION('',(1.,0.,0.));
#1158=DIRECTION('',(0.,0.,-1.));
#1159=DIRECTION('',(1.,0.,0.));
#1160=DIRECTION('',(0.,0.,-1.));
#1161=DIRECTION('',(0.,-1.,0.));
#1162=DIRECTION('',(0.,0.342020143325668,0.939692620785908));
#1163=DIRECTION('',(0.,-0.939692620785908,0.342020143325668));
#1164=DIRECTION('',(0.,-1.,0.));
#1165=DIRECTION('',(0.,0.,1.));
#1166=DIRECTION('',(0.,-1.,0.));
#1167=DIRECTION('',(1.,0.,0.));
#1168=DIRECTION('',(0.,0.,-1.));
#1169=DIRECTION('',(0.,-1.,0.));
#1170=DIRECTION('',(0.,-1.,0.));
#1171=DIRECTION('',(0.,0.,1.));
#1172=DIRECTION('',(0.,-1.,0.));
#1173=DIRECTION('',(0.,-0.939692620785908,0.342020143325668));
#1174=DIRECTION('',(0.,0.342020143325668,0.939692620785908));
#1175=DIRECTION('',(1.,0.,0.));
#1176=DIRECTION('',(0.,0.,-1.));
#1177=DIRECTION('',(0.,-1.,0.));
#1178=DIRECTION('',(0.,-0.342020143325668,-0.939692620785908));
#1179=DIRECTION('',(0.,0.939692620785908,-0.342020143325668));
#1180=DIRECTION('',(0.,0.342020143325668,0.939692620785908));
#1181=DIRECTION('',(0.,-1.,0.));
#1182=DIRECTION('',(0.,0.,1.));
#1183=DIRECTION('',(0.,-1.,0.));
#1184=DIRECTION('',(1.,0.,0.));
#1185=DIRECTION('',(0.,0.,-1.));
#1186=DIRECTION('',(0.,-1.,0.));
#1187=DIRECTION('',(0.,-1.,0.));
#1188=DIRECTION('',(0.,0.,1.));
#1189=DIRECTION('',(0.,-1.,0.));
#1190=DIRECTION('',(0.,0.342020143325668,0.939692620785908));
#1191=DIRECTION('',(0.,0.939692620785908,-0.342020143325668));
#1192=DIRECTION('',(0.,-0.342020143325668,-0.939692620785908));
#1193=DIRECTION('',(0.,-0.939692620785908,0.342020143325668));
#1194=DIRECTION('',(1.,0.,0.));
#1195=DIRECTION('',(-1.,0.,0.));
#1196=DIRECTION('',(-1.,0.,0.));
#1197=DIRECTION('',(0.,-0.939692620785908,0.342020143325668));
#1198=DIRECTION('',(1.,0.,0.));
#1199=DIRECTION('',(-1.,0.,0.));
#1200=DIRECTION('',(-1.,0.,0.));
#1201=DIRECTION('',(0.,-1.,0.));
#1202=DIRECTION('',(0.,0.,-1.));
#1203=DIRECTION('',(1.,0.,0.));
#1204=DIRECTION('',(1.,0.,0.));
#1205=DIRECTION('',(0.,0.,-1.));
#1206=DIRECTION('',(1.,0.,0.));
#1207=DIRECTION('',(0.,0.,-1.));
#1208=DIRECTION('',(1.,0.,0.));
#1209=DIRECTION('',(-1.,0.,0.));
#1210=DIRECTION('',(0.,-0.939692620785908,0.342020143325668));
#1211=DIRECTION('',(0.,0.342020143325668,0.939692620785908));
#1212=DIRECTION('',(1.,0.,0.));
#1213=DIRECTION('',(-1.,0.,0.));
#1214=DIRECTION('',(0.,-1.,0.));
#1215=DIRECTION('',(0.,0.,-1.));
#1216=DIRECTION('',(1.,0.,0.));
#1217=DIRECTION('',(1.,0.,0.));
#1218=DIRECTION('',(0.,0.,-1.));
#1219=DIRECTION('',(1.,0.,0.));
#1220=DIRECTION('',(0.,0.,-1.));
#1221=DIRECTION('',(1.,0.,0.));
#1222=DIRECTION('',(0.,-0.342020143325668,-0.939692620785908));
#1223=DIRECTION('',(0.,0.939692620785908,-0.342020143325668));
#1224=DIRECTION('',(0.,0.,-1.));
#1225=DIRECTION('',(-1.,0.,0.));
#1226=DIRECTION('',(0.,1.,0.));
#1227=DIRECTION('',(0.,1.,0.));
#1228=DIRECTION('',(1.,0.,0.));
#1229=DIRECTION('',(0.,0.,-1.));
#1230=DIRECTION('',(0.,1.,0.));
#1231=DIRECTION('',(0.,0.,-1.));
#1232=DIRECTION('',(-1.,0.,0.));
#1233=DIRECTION('',(0.,1.,0.));
#1234=DIRECTION('',(1.,0.,0.));
#1235=DIRECTION('',(0.,0.,-1.));
#1236=DIRECTION('',(0.,0.,1.));
#1237=DIRECTION('',(1.,0.,0.));
#1238=DIRECTION('',(0.,0.,1.));
#1239=DIRECTION('',(1.,0.,0.));
#1240=DIRECTION('',(0.,0.,-1.));
#1241=DIRECTION('',(-1.,0.,0.));
#1242=DIRECTION('',(0.,0.,1.));
#1243=DIRECTION('',(1.,0.,0.));
#1244=DIRECTION('',(0.,0.,1.));
#1245=DIRECTION('',(1.,0.,0.));
#1246=DIRECTION('',(0.,0.,1.));
#1247=DIRECTION('',(1.,0.,0.));
#1248=DIRECTION('',(0.,0.,1.));
#1249=DIRECTION('',(1.,0.,0.));
#1250=DIRECTION('',(0.,0.,1.));
#1251=DIRECTION('',(1.,0.,0.));
#1252=DIRECTION('',(0.,0.,1.));
#1253=DIRECTION('',(1.,0.,0.));
#1254=DIRECTION('',(0.,0.,1.));
#1255=DIRECTION('',(1.,0.,0.));
#1256=DIRECTION('',(0.,0.258819045102521,0.965925826289068));
#1257=DIRECTION('',(1.,0.,0.));
#1258=DIRECTION('',(0.,0.258819045102521,0.965925826289068));
#1259=DIRECTION('',(1.,0.,0.));
#1260=DIRECTION('',(1.,0.,0.));
#1261=DIRECTION('',(0.,0.,-1.));
#1262=DIRECTION('',(0.,0.,-1.));
#1263=DIRECTION('',(0.,1.,0.));
#1264=DIRECTION('',(0.,0.,-1.));
#1265=DIRECTION('',(0.,1.,0.));
#1266=DIRECTION('',(0.,0.,-1.));
#1267=DIRECTION('',(-1.,0.,0.));
#1268=DIRECTION('',(0.,1.,0.));
#1269=DIRECTION('',(-1.,0.,0.));
#1270=DIRECTION('',(-1.,0.,0.));
#1271=DIRECTION('',(1.,0.,0.));
#1272=DIRECTION('',(0.,0.,-1.));
#1273=DIRECTION('',(0.,1.,0.));
#1274=DIRECTION('',(0.,0.,-1.));
#1275=DIRECTION('',(0.,0.,-1.));
#1276=DIRECTION('',(0.,0.,-1.));
#1277=DIRECTION('',(-1.,0.,0.));
#1278=DIRECTION('',(-1.,0.,0.));
#1279=DIRECTION('',(-1.,0.,0.));
#1280=DIRECTION('',(0.,0.,1.));
#1281=DIRECTION('',(1.,0.,0.));
#1282=DIRECTION('',(1.,0.,0.));
#1283=DIRECTION('',(0.,-1.,0.));
#1284=DIRECTION('',(-1.,0.,0.));
#1285=DIRECTION('',(0.,-1.,0.));
#1286=DIRECTION('',(0.,0.,1.));
#1287=DIRECTION('',(1.,0.,0.));
#1288=DIRECTION('',(1.,0.,0.));
#1289=DIRECTION('',(0.,-1.,0.));
#1290=DIRECTION('',(1.,0.,0.));
#1291=DIRECTION('',(0.,-1.,0.));
#1292=DIRECTION('',(0.,-0.342020143325668,-0.939692620785908));
#1293=DIRECTION('',(0.,0.939692620785908,-0.342020143325668));
#1294=DIRECTION('',(0.,-0.939692620785908,0.342020143325668));
#1295=DIRECTION('',(-1.,0.,0.));
#1296=DIRECTION('',(0.,-0.939692620785908,0.342020143325668));
#1297=DIRECTION('',(0.,-0.939692620785908,0.342020143325668));
#1298=DIRECTION('',(1.,0.,0.));
#1299=DIRECTION('',(-1.,0.,0.));
#1300=DIRECTION('',(0.,0.342020143325668,0.939692620785908));
#1301=DIRECTION('',(0.,0.342020143325668,0.939692620785908));
#1302=DIRECTION('',(-1.,0.,0.));
#1303=DIRECTION('',(0.,-0.342020143325668,-0.939692620785908));
#1304=DIRECTION('',(0.,-0.342020143325668,-0.939692620785908));
#1305=DIRECTION('',(1.,0.,0.));
#1306=DIRECTION('',(0.,0.,-1.));
#1307=DIRECTION('',(0.,0.,-1.));
#1308=DIRECTION('',(0.,-1.,0.));
#1309=DIRECTION('',(1.,0.,0.));
#1310=DIRECTION('',(0.,0.,-1.));
#1311=DIRECTION('',(0.,-1.,0.));
#1312=DIRECTION('',(0.,0.,-1.));
#1313=DIRECTION('',(1.,0.,0.));
#1314=DIRECTION('',(0.,0.,-1.));
#1315=DIRECTION('',(0.,0.,-1.));
#1316=DIRECTION('',(0.,-1.,0.));
#1317=DIRECTION('',(1.,0.,0.));
#1318=DIRECTION('',(0.,0.,-1.));
#1319=DIRECTION('',(0.,-1.,0.));
#1320=DIRECTION('',(0.,0.,-1.));
#1321=DIRECTION('',(0.,1.,0.));
#1322=DIRECTION('',(0.,0.,1.));
#1323=DIRECTION('',(1.,0.,0.));
#1324=DIRECTION('',(0.,1.,0.));
#1325=DIRECTION('',(0.,0.,1.));
#1326=DIRECTION('',(1.,0.,0.));
#1327=DIRECTION('',(0.,0.,1.));
#1328=DIRECTION('',(1.,0.,0.));
#1329=DIRECTION('',(0.,0.,1.));
#1330=DIRECTION('',(1.,0.,0.));
#1331=DIRECTION('',(1.,0.,0.));
#1332=DIRECTION('',(0.,0.,-1.));
#1333=DIRECTION('',(0.,0.,-1.));
#1334=DIRECTION('',(0.,-1.,0.));
#1335=DIRECTION('',(0.,0.,-1.));
#1336=DIRECTION('',(0.,1.,0.));
#1337=DIRECTION('',(1.,0.,0.));
#1338=DIRECTION('',(0.,0.,-1.));
#1339=DIRECTION('',(0.,-1.,0.));
#1340=DIRECTION('',(0.,0.,-1.));
#1341=DIRECTION('',(0.,1.,0.));
#1342=DIRECTION('',(0.,0.,-1.));
#1343=DIRECTION('',(0.,-1.,0.));
#1344=DIRECTION('',(1.,0.,0.));
#1345=DIRECTION('',(-1.,0.,0.));
#1346=DIRECTION('',(-1.,0.,0.));
#1347=DIRECTION('',(0.,-1.,0.));
#1348=DIRECTION('',(1.,0.,0.));
#1349=DIRECTION('',(-1.,0.,0.));
#1350=DIRECTION('',(-1.,0.,0.));
#1351=DIRECTION('',(0.,0.,-1.));
#1352=DIRECTION('',(-1.,0.,0.));
#1353=DIRECTION('',(0.,0.,1.));
#1354=DIRECTION('',(1.,0.,0.));
#1355=DIRECTION('',(0.,0.342020143325669,0.939692620785908));
#1356=DIRECTION('',(1.,0.,0.));
#1357=DIRECTION('',(0.,0.,-1.));
#1358=DIRECTION('',(-1.,0.,0.));
#1359=DIRECTION('',(-1.,0.,0.));
#1360=DIRECTION('',(0.,1.,0.));
#1361=DIRECTION('',(-1.,0.,0.));
#1362=DIRECTION('',(0.,1.,0.));
#1363=DIRECTION('',(0.,-1.,0.));
#1364=DIRECTION('',(1.,0.,0.));
#1365=DIRECTION('',(-1.,0.,0.));
#1366=DIRECTION('',(0.,0.,-1.));
#1367=DIRECTION('',(0.,0.,-1.));
#1368=DIRECTION('',(0.,-1.,0.));
#1369=DIRECTION('',(1.,0.,0.));
#1370=DIRECTION('',(0.,0.,-1.));
#1371=DIRECTION('',(-1.,0.,0.));
#1372=DIRECTION('',(0.,0.,-1.));
#1373=DIRECTION('',(1.,0.,0.));
#1374=DIRECTION('',(0.,0.,-1.));
#1375=DIRECTION('',(0.,-1.,0.));
#1376=DIRECTION('',(1.,0.,0.));
#1377=DIRECTION('',(0.,0.,-1.));
#1378=DIRECTION('',(0.,-1.,0.));
#1379=DIRECTION('',(0.,0.,1.));
#1380=DIRECTION('',(1.,0.,0.));
#1381=DIRECTION('',(0.,0.342020143325669,0.939692620785908));
#1382=DIRECTION('',(1.,0.,0.));
#1383=DIRECTION('',(0.,0.,-1.));
#1384=DIRECTION('',(-1.,0.,0.));
#1385=DIRECTION('',(0.,0.,1.));
#1386=DIRECTION('',(1.,0.,0.));
#1387=DIRECTION('',(0.,0.,1.));
#1388=DIRECTION('',(1.,0.,0.));
#1389=DIRECTION('',(0.,0.,1.));
#1390=DIRECTION('',(1.,0.,0.));
#1391=DIRECTION('',(0.,0.,1.));
#1392=DIRECTION('',(1.,0.,0.));
#1393=DIRECTION('',(0.,0.258819045102521,0.965925826289068));
#1394=DIRECTION('',(1.,0.,0.));
#1395=CARTESIAN_POINT('',(0.,0.,0.));
#1396=CARTESIAN_POINT('',(0.,0.1,0.5));
#1397=CARTESIAN_POINT('',(0.176324977151172,0.1,0.167924136441148));
#1398=CARTESIAN_POINT('',(0.176324977151172,0.1,0.179324136441148));
#1399=CARTESIAN_POINT('',(0.176324977151172,0.1,0.156524136441148));
#1400=CARTESIAN_POINT('',(0.156324977151172,0.1,0.179324136441148));
#1401=CARTESIAN_POINT('',(0.136324977151172,0.1,0.179324136441148));
#1402=CARTESIAN_POINT('',(0.136324977151172,0.1,0.167924136441148));
#1403=CARTESIAN_POINT('',(0.136324977151172,0.1,0.156524136441148));
#1404=CARTESIAN_POINT('',(0.156324977151172,0.1,0.156524136441148));
#1405=CARTESIAN_POINT('',(-0.21,0.1,0.5));
#1406=CARTESIAN_POINT('',(-0.21,0.1,0.1925));
#1407=CARTESIAN_POINT('',(-0.21,0.1,-0.01));
#1408=CARTESIAN_POINT('',(0.,0.1,0.1925));
#1409=CARTESIAN_POINT('',(0.21,0.1,0.1925));
#1410=CARTESIAN_POINT('',(0.21,0.1,0.5));
#1411=CARTESIAN_POINT('',(0.21,0.1,-0.01));
#1412=CARTESIAN_POINT('',(0.,0.1,-0.01));
#1413=CARTESIAN_POINT('',(0.,0.0975,0.5));
#1414=CARTESIAN_POINT('',(0.,0.0975,0.179324136441148));
#1415=CARTESIAN_POINT('',(0.176324977151172,0.0975,0.179324136441148));
#1416=CARTESIAN_POINT('',(0.136324977151172,0.0975,0.179324136441148));
#1417=CARTESIAN_POINT('',(0.176324977151172,0.0975,0.5));
#1418=CARTESIAN_POINT('',(0.176324977151172,0.0975,0.156524136441148));
#1419=CARTESIAN_POINT('',(0.,0.0975,0.156524136441148));
#1420=CARTESIAN_POINT('',(0.136324977151172,0.0975,0.156524136441148));
#1421=CARTESIAN_POINT('',(0.136324977151172,0.0975,0.5));
#1422=CARTESIAN_POINT('',(0.,0.0975,0.1925));
#1423=CARTESIAN_POINT('',(-0.2075,0.0975,0.1925));
#1424=CARTESIAN_POINT('',(0.2075,0.0975,0.1925));
#1425=CARTESIAN_POINT('',(-0.2075,0.0975,0.5));
#1426=CARTESIAN_POINT('',(-0.2075,0.0975,-0.0075));
#1427=CARTESIAN_POINT('',(-5.55111512312578E-17,0.0975,-0.0075));
#1428=CARTESIAN_POINT('',(0.2075,0.0975,-0.0075));
#1429=CARTESIAN_POINT('',(0.2075,0.0975,0.5));
#1430=CARTESIAN_POINT('',(0.21,1.38777878078145E-17,0.5));
#1431=CARTESIAN_POINT('',(0.21,1.38777878078145E-17,0.1925));
#1432=CARTESIAN_POINT('',(0.21,-0.0246148410413764,0.1925));
#1433=CARTESIAN_POINT('',(0.21,-0.0953015368960704,-0.00171010071662834));
#1434=CARTESIAN_POINT('',(0.21,-0.0953015368960704,-0.00171010071662836));
#1435=CARTESIAN_POINT('',(0.21,-0.0953015368960704,-0.00171010071662834));
#1436=CARTESIAN_POINT('',(0.21,-0.1,0.));
#1437=CARTESIAN_POINT('',(0.21,1.38777878078145E-17,0.));
#1438=CARTESIAN_POINT('',(0.21,-0.3,0.));
#1439=CARTESIAN_POINT('',(0.21,-0.3,-0.01));
#1440=CARTESIAN_POINT('',(0.21,-0.3,-0.01));
#1441=CARTESIAN_POINT('',(0.21,1.38777878078145E-17,-0.01));
#1442=CARTESIAN_POINT('',(-0.21,1.38777878078145E-17,0.5));
#1443=CARTESIAN_POINT('',(-0.21,1.38777878078145E-17,0.1925));
#1444=CARTESIAN_POINT('',(-0.21,-0.0246148410413764,0.1925));
#1445=CARTESIAN_POINT('',(-0.21,1.38777878078145E-17,-0.01));
#1446=CARTESIAN_POINT('',(-0.21,-0.3,-0.01));
#1447=CARTESIAN_POINT('',(-0.21,-0.3,-0.01));
#1448=CARTESIAN_POINT('',(-0.21,-0.3,0.));
#1449=CARTESIAN_POINT('',(-0.21,1.38777878078145E-17,0.));
#1450=CARTESIAN_POINT('',(-0.21,-0.1,0.));
#1451=CARTESIAN_POINT('',(-0.21,-0.0953015368960704,-0.00171010071662834));
#1452=CARTESIAN_POINT('',(-0.21,-0.0953015368960704,-0.00171010071662834));
#1453=CARTESIAN_POINT('',(-0.21,-0.0953015368960704,-0.00171010071662834));
#1454=CARTESIAN_POINT('',(-0.2075,1.38777878078145E-17,0.5));
#1455=CARTESIAN_POINT('',(-0.2075,1.38777878078145E-17,0.1925));
#1456=CARTESIAN_POINT('',(-0.2075,-0.0246148410413765,0.1925));
#1457=CARTESIAN_POINT('',(-0.2075,0.0770931433696155,0.471940390547443));
#1458=CARTESIAN_POINT('',(-0.2075,-0.0953015368960704,-0.00171010071662834));
#1459=CARTESIAN_POINT('',(-0.2075,-0.172394680265686,0.0263495087359285));
#1460=CARTESIAN_POINT('',(-0.2075,-0.0976507684480352,-0.000855050358314171));
#1461=CARTESIAN_POINT('',(-0.2075,-0.0976507684480352,-0.000855050358314172));
#1462=CARTESIAN_POINT('',(-0.2075,-0.0982494811544757,-0.0025));
#1463=CARTESIAN_POINT('',(-0.2075,-0.1,-0.0025));
#1464=CARTESIAN_POINT('',(-0.2075,-0.2975,-0.0025));
#1465=CARTESIAN_POINT('',(-0.2075,-0.2975,-0.01));
#1466=CARTESIAN_POINT('',(-0.2075,-0.2975,-0.0075));
#1467=CARTESIAN_POINT('',(-0.2075,-0.1,-0.0075));
#1468=CARTESIAN_POINT('',(0.2075,1.38777878078145E-17,0.5));
#1469=CARTESIAN_POINT('',(0.2075,1.38777878078145E-17,0.1925));
#1470=CARTESIAN_POINT('',(0.2075,-0.0246148410413765,0.1925));
#1471=CARTESIAN_POINT('',(0.2075,-0.1,-0.0075));
#1472=CARTESIAN_POINT('',(0.2075,-0.2975,-0.0075));
#1473=CARTESIAN_POINT('',(0.2075,-0.2975,-0.01));
#1474=CARTESIAN_POINT('',(0.2075,-0.2975,-0.0025));
#1475=CARTESIAN_POINT('',(0.2075,-0.1,-0.0025));
#1476=CARTESIAN_POINT('',(0.2075,-0.0982494811544757,-0.0025));
#1477=CARTESIAN_POINT('',(0.2075,-0.0976507684480352,-0.000855050358314172));
#1478=CARTESIAN_POINT('',(0.2075,-0.0976507684480352,-0.000855050358314175));
#1479=CARTESIAN_POINT('',(0.2075,-0.172394680265686,0.0263495087359285));
#1480=CARTESIAN_POINT('',(0.2075,-0.0953015368960704,-0.00171010071662834));
#1481=CARTESIAN_POINT('',(0.2075,0.0770931433696155,0.471940390547443));
#1482=CARTESIAN_POINT('',(0.,-0.00430897832951987,0.248289899283372));
#1483=CARTESIAN_POINT('',(0.,-0.0246148410413765,0.1925));
#1484=CARTESIAN_POINT('',(0.,-0.0953015368960704,-0.00171010071662834));
#1485=CARTESIAN_POINT('',(0.,-0.00430897832951987,0.248289899283372));
#1486=CARTESIAN_POINT('',(0.,-0.0246148410413765,0.1925));
#1487=CARTESIAN_POINT('',(0.,-0.0953015368960704,-0.00171010071662834));
#1488=CARTESIAN_POINT('',(-5.55111512312578E-17,-0.3,-0.01));
#1489=CARTESIAN_POINT('',(-5.55111512312578E-17,-0.3,0.));
#1490=CARTESIAN_POINT('',(-5.55111512312578E-17,-0.3,-0.01));
#1491=CARTESIAN_POINT('',(-5.55111512312578E-17,-0.1,-0.01));
#1492=CARTESIAN_POINT('',(-5.55111512312578E-17,-0.1,0.));
#1493=CARTESIAN_POINT('',(0.,-0.1,0.));
#1494=CARTESIAN_POINT('',(0.,-0.0976507684480352,-0.000855050358314172));
#1495=CARTESIAN_POINT('',(0.,-0.0976507684480352,-0.000855050358314171));
#1496=CARTESIAN_POINT('',(-5.55111512312578E-17,-0.0982494811544757,-0.0025));
#1497=CARTESIAN_POINT('',(-5.55111512312578E-17,-0.2975,-0.01));
#1498=CARTESIAN_POINT('',(-5.55111512312578E-17,-0.2975,-0.0025));
#1499=CARTESIAN_POINT('',(-5.55111512312578E-17,-0.2975,-0.0075));
#1500=CARTESIAN_POINT('',(-5.55111512312578E-17,-0.1,-0.0075));
#1501=CARTESIAN_POINT('',(-5.55111512312578E-17,-0.1,-0.0025));
#1502=CARTESIAN_POINT('',(0.,-0.0953015368960704,-0.00171010071662834));
#1503=CARTESIAN_POINT('',(0.156324977151172,0.05,0.179324136441148));
#1504=CARTESIAN_POINT('',(0.136324977151172,0.05,0.179324136441148));
#1505=CARTESIAN_POINT('',(0.176324977151172,0.05,0.179324136441148));
#1506=CARTESIAN_POINT('',(0.176324977151172,0.05,0.167924136441148));
#1507=CARTESIAN_POINT('',(0.176324977151172,0.05,0.156524136441148));
#1508=CARTESIAN_POINT('',(0.156324977151172,0.05,0.156524136441148));
#1509=CARTESIAN_POINT('',(0.136324977151172,0.05,0.156524136441148));
#1510=CARTESIAN_POINT('',(0.136324977151172,0.05,0.167924136441148));
#1511=CARTESIAN_POINT('',(0.,-0.1,0.1925));
#1512=CARTESIAN_POINT('',(0.,0.,0.));
#1513=CARTESIAN_POINT('',(0.,3.06161699786838E-19,0.025));
#1514=CARTESIAN_POINT('',(0.,3.06161699786838E-19,0.025));
#1515=CARTESIAN_POINT('',(0.005,3.06161699786838E-19,0.025));
#1516=CARTESIAN_POINT('',(0.,3.06161699786838E-19,0.));
#1517=CARTESIAN_POINT('',(0.005,3.06161699786838E-19,0.));
#1518=CARTESIAN_POINT('',(0.,0.,0.025));
#1519=CARTESIAN_POINT('',(0.,2.4492935982947E-19,0.025));
#1520=CARTESIAN_POINT('',(0.004,2.4492935982947E-19,0.025));
#1521=CARTESIAN_POINT('',(0.,0.,0.));
#1522=CARTESIAN_POINT('',(0.,2.4492935982947E-19,0.));
#1523=CARTESIAN_POINT('',(0.004,2.4492935982947E-19,0.));
#1524=CARTESIAN_POINT('',(0.,2.4492935982947E-19,0.));
#1525=CARTESIAN_POINT('',(-0.204185591125489,-0.00618458548124483,0.218906599070712));
#1526=CARTESIAN_POINT('',(-0.204185591125489,0.000285890646318208,0.243054744727939));
#1527=CARTESIAN_POINT('',(-0.168667181744576,0.095,0.35541));
#1528=CARTESIAN_POINT('',(-0.168667181744576,0.0975,0.5));
#1529=CARTESIAN_POINT('',(-0.168667181744576,0.0975,0.46082));
#1530=CARTESIAN_POINT('',(-0.168667181744576,0.0975,0.25));
#1531=CARTESIAN_POINT('',(-0.168667181744576,0.095,0.25));
#1532=CARTESIAN_POINT('',(-0.168667181744576,0.1,0.25));
#1533=CARTESIAN_POINT('',(-0.168667181744576,0.1,0.35541));
#1534=CARTESIAN_POINT('',(-0.168667181744576,0.1,0.46082));
#1535=CARTESIAN_POINT('',(-0.168667181744576,0.095,0.46082));
#1536=CARTESIAN_POINT('',(-0.0010271817445755,0.095,0.25));
#1537=CARTESIAN_POINT('',(0.166612818255425,0.095,0.25));
#1538=CARTESIAN_POINT('',(0.166612818255425,0.0975,0.25));
#1539=CARTESIAN_POINT('',(0.166612818255425,0.1,0.25));
#1540=CARTESIAN_POINT('',(-0.0010271817445755,0.1,0.25));
#1541=CARTESIAN_POINT('',(0.,0.0975,0.25));
#1542=CARTESIAN_POINT('',(0.166612818255425,0.095,0.35541));
#1543=CARTESIAN_POINT('',(0.166612818255425,0.095,0.46082));
#1544=CARTESIAN_POINT('',(0.166612818255425,0.0975,0.46082));
#1545=CARTESIAN_POINT('',(0.166612818255425,0.1,0.46082));
#1546=CARTESIAN_POINT('',(0.166612818255425,0.1,0.35541));
#1547=CARTESIAN_POINT('',(0.166612818255425,0.0975,0.5));
#1548=CARTESIAN_POINT('',(-0.0010271817445755,0.095,0.46082));
#1549=CARTESIAN_POINT('',(0.,0.0975,0.46082));
#1550=CARTESIAN_POINT('',(-0.0010271817445755,0.1,0.46082));
#1551=CARTESIAN_POINT('',(0.,1.38777878078145E-17,0.5));
#1552=CARTESIAN_POINT('',(0.,0.1,0.5));
#1553=CARTESIAN_POINT('',(-0.21,0.1,0.5));
#1554=CARTESIAN_POINT('',(0.21,0.1,0.5));
#1555=CARTESIAN_POINT('',(-0.21,1.38777878078145E-17,0.5));
#1556=CARTESIAN_POINT('',(-0.21,0.0819851171331012,0.5));
#1557=CARTESIAN_POINT('',(0.,0.0819851171331012,0.5));
#1558=CARTESIAN_POINT('',(0.21,0.0819851171331012,0.5));
#1559=CARTESIAN_POINT('',(0.21,1.38777878078145E-17,0.5));
#1560=CARTESIAN_POINT('',(0.,1.38777878078145E-17,0.4975));
#1561=CARTESIAN_POINT('',(0.,0.0863960804098152,0.4975));
#1562=CARTESIAN_POINT('',(-0.2075,0.0863960804098152,0.4975));
#1563=CARTESIAN_POINT('',(0.2075,0.0863960804098152,0.4975));
#1564=CARTESIAN_POINT('',(-0.2075,1.38777878078145E-17,0.4975));
#1565=CARTESIAN_POINT('',(-0.2075,0.0975,0.4975));
#1566=CARTESIAN_POINT('',(0.,0.0975,0.4975));
#1567=CARTESIAN_POINT('',(0.2075,0.0975,0.4975));
#1568=CARTESIAN_POINT('',(0.2075,1.38777878078145E-17,0.4975));
#1569=CARTESIAN_POINT('',(0.,0.0866835802370307,0.498289899283372));
#1570=CARTESIAN_POINT('',(-0.21,0.0866835802370307,0.498289899283372));
#1571=CARTESIAN_POINT('',(-0.21,0.0866835802370307,0.498289899283372));
#1572=CARTESIAN_POINT('',(0.,0.0866835802370307,0.498289899283372));
#1573=CARTESIAN_POINT('',(0.21,0.0866835802370307,0.498289899283372));
#1574=CARTESIAN_POINT('',(0.21,0.0866835802370307,0.498289899283372));
#1575=CARTESIAN_POINT('',(0.,-0.00430897832951987,0.248289899283372));
#1576=CARTESIAN_POINT('',(0.,-0.0246148410413765,0.1925));
#1577=CARTESIAN_POINT('',(0.21,-0.0246148410413764,0.1925));
#1578=CARTESIAN_POINT('',(0.2075,-0.0246148410413765,0.1925));
#1579=CARTESIAN_POINT('',(0.21,-0.0953015368960704,-0.00171010071662834));
#1580=CARTESIAN_POINT('',(-0.21,-0.0953015368960704,-0.00171010071662834));
#1581=CARTESIAN_POINT('',(-0.21,-0.0246148410413765,0.1925));
#1582=CARTESIAN_POINT('',(0.,-0.0246148410413765,0.1925));
#1583=CARTESIAN_POINT('',(-0.2075,-0.0246148410413765,0.1925));
#1584=CARTESIAN_POINT('',(-0.2075,0.0770931433696155,0.471940390547443));
#1585=CARTESIAN_POINT('',(0.2075,0.0770931433696155,0.471940390547443));
#1586=CARTESIAN_POINT('',(0.2075,1.38777878078145E-17,0.5));
#1587=CARTESIAN_POINT('',(0.2075,0.0975,0.5));
#1588=CARTESIAN_POINT('',(0.2075,0.0975,0.1925));
#1589=CARTESIAN_POINT('',(0.2075,1.38777878078145E-17,0.1925));
#1590=CARTESIAN_POINT('',(-0.2075,1.38777878078145E-17,0.5));
#1591=CARTESIAN_POINT('',(-0.2075,1.38777878078145E-17,0.1925));
#1592=CARTESIAN_POINT('',(-0.2075,0.0975,0.1925));
#1593=CARTESIAN_POINT('',(-0.2075,0.0975,0.5));
#1594=CARTESIAN_POINT('',(-0.21,1.38777878078145E-17,0.5));
#1595=CARTESIAN_POINT('',(-0.21,0.1,0.5));
#1596=CARTESIAN_POINT('',(-0.21,0.1,0.1925));
#1597=CARTESIAN_POINT('',(-0.21,1.38777878078145E-17,0.1925));
#1598=CARTESIAN_POINT('',(0.21,1.38777878078145E-17,0.5));
#1599=CARTESIAN_POINT('',(0.21,1.38777878078145E-17,0.1925));
#1600=CARTESIAN_POINT('',(0.21,0.1,0.1925));
#1601=CARTESIAN_POINT('',(0.21,0.1,0.5));
#1602=CARTESIAN_POINT('',(0.,0.0975,0.5));
#1603=CARTESIAN_POINT('',(0.,0.0975,0.1925));
#1604=CARTESIAN_POINT('',(0.,0.1,0.5));
#1605=CARTESIAN_POINT('',(0.,0.1,0.1925));
#1606=CARTESIAN_POINT('',(0.,-0.1,0.1925));
#1607=CARTESIAN_POINT('',(0.,0.,0.));
#1608=CARTESIAN_POINT('',(-0.164585385146575,-0.005,0.146358870900309));
#1609=CARTESIAN_POINT('',(-0.164585385146575,0.,0.146358870900309));
#1610=CARTESIAN_POINT('',(-0.164585385146575,0.,0.2));
#1611=CARTESIAN_POINT('',(-0.164585385146575,0.,-0.118641129099691));
#1612=CARTESIAN_POINT('',(-0.164585385146575,-0.005,0.2));
#1613=CARTESIAN_POINT('',(-0.164585385146575,-0.005,0.2));
#1614=CARTESIAN_POINT('',(-0.164585385146575,-0.005,0.146358870900309));
#1615=CARTESIAN_POINT('',(-0.164585385146575,-0.005,-0.118641129099691));
#1616=CARTESIAN_POINT('',(-0.164585385146575,-0.005,-0.118641129099691));
#1617=CARTESIAN_POINT('',(-0.584585385146575,-0.005,0.146358870900309));
#1618=CARTESIAN_POINT('',(-0.584585385146575,-0.005,0.2));
#1619=CARTESIAN_POINT('',(-0.584585385146575,0.,0.2));
#1620=CARTESIAN_POINT('',(-0.584585385146575,-0.005,0.2));
#1621=CARTESIAN_POINT('',(-0.584585385146575,0.,0.146358870900309));
#1622=CARTESIAN_POINT('',(-0.584585385146575,0.,-0.118641129099691));
#1623=CARTESIAN_POINT('',(-0.584585385146575,-0.005,-0.118641129099691));
#1624=CARTESIAN_POINT('',(-0.584585385146575,-0.005,-0.118641129099691));
#1625=CARTESIAN_POINT('',(-0.584585385146575,-0.005,0.146358870900309));
#1626=CARTESIAN_POINT('',(-0.374585385146575,-0.005,0.146358870900309));
#1627=CARTESIAN_POINT('',(-0.374585385146575,-0.005,0.2));
#1628=CARTESIAN_POINT('',(-0.374585385146575,-0.005,-0.118641129099691));
#1629=CARTESIAN_POINT('',(-0.374585385146575,0.,0.146358870900309));
#1630=CARTESIAN_POINT('',(-0.374585385146575,0.,0.2));
#1631=CARTESIAN_POINT('',(-0.374585385146575,0.,-0.118641129099691));
#1632=CARTESIAN_POINT('',(-0.374585385146575,-0.005,-0.118641129099691));
#1633=CARTESIAN_POINT('',(0.,0.,0.2));
#1634=CARTESIAN_POINT('',(0.374585385146575,-0.0540094397465782,0.111739003803528));
#1635=CARTESIAN_POINT('',(-0.374585385146575,-0.005,0.411358870900309));
#1636=CARTESIAN_POINT('',(-0.374585385146575,0.,0.411358870900309));
#1637=CARTESIAN_POINT('',(-0.164585385146575,0.,0.411358870900309));
#1638=CARTESIAN_POINT('',(-0.584585385146575,0.,0.411358870900309));
#1639=CARTESIAN_POINT('',(-0.584585385146575,-0.005,0.411358870900309));
#1640=CARTESIAN_POINT('',(-0.584585385146575,-0.005,0.411358870900309));
#1641=CARTESIAN_POINT('',(-0.374585385146575,-0.005,0.411358870900309));
#1642=CARTESIAN_POINT('',(-0.164585385146575,-0.005,0.411358870900309));
#1643=CARTESIAN_POINT('',(-0.164585385146575,-0.005,0.411358870900309));
#1644=CARTESIAN_POINT('',(-0.374585385146575,-0.005,0.146358870900309));
#1645=CARTESIAN_POINT('',(-0.374585385146575,-0.005,0.2));
#1646=CARTESIAN_POINT('',(-0.164585385146575,-0.005,0.2));
#1647=CARTESIAN_POINT('',(-0.584585385146575,-0.005,0.2));
#1648=CARTESIAN_POINT('',(-0.164585385146575,-0.005,0.146358870900309));
#1649=CARTESIAN_POINT('',(-0.584585385146575,-0.005,0.146358870900309));
#1650=CARTESIAN_POINT('',(-0.374585385146575,0.,0.146358870900309));
#1651=CARTESIAN_POINT('',(-0.164585385146575,0.,0.146358870900309));
#1652=CARTESIAN_POINT('',(-0.164585385146575,0.,0.2));
#1653=CARTESIAN_POINT('',(-0.374585385146575,0.,0.2));
#1654=CARTESIAN_POINT('',(-0.584585385146575,0.,0.2));
#1655=CARTESIAN_POINT('',(-0.584585385146575,0.,0.146358870900309));
#1656=CARTESIAN_POINT('',(-0.584585385146575,-0.005,0.146358870900309));
#1657=CARTESIAN_POINT('',(-0.584585385146575,-0.005,0.2));
#1658=CARTESIAN_POINT('',(-0.164585385146575,-0.005,0.146358870900309));
#1659=CARTESIAN_POINT('',(-0.164585385146575,-0.005,0.2));
#1660=CARTESIAN_POINT('',(0.,0.,0.2));
#1661=CARTESIAN_POINT('',(0.374585385146575,-0.0540094397465782,0.111739003803528));
#1662=CARTESIAN_POINT('',(0.,2.4492935982947E-19,0.05));
#1663=CARTESIAN_POINT('',(0.,2.4492935982947E-19,0.05));
#1664=CARTESIAN_POINT('',(0.004,2.4492935982947E-19,0.05));
#1665=CARTESIAN_POINT('',(0.,2.4492935982947E-19,0.));
#1666=CARTESIAN_POINT('',(0.004,2.4492935982947E-19,0.));
#1667=CARTESIAN_POINT('',(0.,0.,0.05));
#1668=CARTESIAN_POINT('',(0.,0.,0.));
#1669=CARTESIAN_POINT('',(-0.204185591125489,-0.00618458548124481,0.218906599070712));
#1670=MECHANICAL_DESIGN_GEOMETRIC_PRESENTATION_REPRESENTATION('',(#1005,
#1006,#1007,#1008,#1009,#1010),#1671);
#1671=(
GEOMETRIC_REPRESENTATION_CONTEXT(3)
GLOBAL_UNCERTAINTY_ASSIGNED_CONTEXT((#1678))
GLOBAL_UNIT_ASSIGNED_CONTEXT((#1687,#1686,#1685))
REPRESENTATION_CONTEXT('Casing','TOP_LEVEL_ASSEMBLY_PART')
);
#1672=(
GEOMETRIC_REPRESENTATION_CONTEXT(3)
GLOBAL_UNCERTAINTY_ASSIGNED_CONTEXT((#1679))
GLOBAL_UNIT_ASSIGNED_CONTEXT((#1687,#1686,#1685))
REPRESENTATION_CONTEXT('Part 2','COMPONENT_PART')
);
#1673=(
GEOMETRIC_REPRESENTATION_CONTEXT(3)
GLOBAL_UNCERTAINTY_ASSIGNED_CONTEXT((#1680))
GLOBAL_UNIT_ASSIGNED_CONTEXT((#1687,#1686,#1685))
REPRESENTATION_CONTEXT('Part 1','COMPONENT_PART')
);
#1674=(
GEOMETRIC_REPRESENTATION_CONTEXT(3)
GLOBAL_UNCERTAINTY_ASSIGNED_CONTEXT((#1681))
GLOBAL_UNIT_ASSIGNED_CONTEXT((#1687,#1686,#1685))
REPRESENTATION_CONTEXT('Part 1','COMPONENT_PART')
);
#1675=(
GEOMETRIC_REPRESENTATION_CONTEXT(3)
GLOBAL_UNCERTAINTY_ASSIGNED_CONTEXT((#1682))
GLOBAL_UNIT_ASSIGNED_CONTEXT((#1687,#1686,#1685))
REPRESENTATION_CONTEXT('Part 2','COMPONENT_PART')
);
#1676=(
GEOMETRIC_REPRESENTATION_CONTEXT(3)
GLOBAL_UNCERTAINTY_ASSIGNED_CONTEXT((#1683))
GLOBAL_UNIT_ASSIGNED_CONTEXT((#1687,#1686,#1685))
REPRESENTATION_CONTEXT('Part 1','COMPONENT_PART')
);
#1677=(
GEOMETRIC_REPRESENTATION_CONTEXT(3)
GLOBAL_UNCERTAINTY_ASSIGNED_CONTEXT((#1684))
GLOBAL_UNIT_ASSIGNED_CONTEXT((#1687,#1686,#1685))
REPRESENTATION_CONTEXT('Part 1','COMPONENT_PART')
);
#1678=UNCERTAINTY_MEASURE_WITH_UNIT(LENGTH_MEASURE(1.E-8),#1687,
'DISTANCE_ACCURACY_VALUE','Maximum Tolerance applied to model');
#1679=UNCERTAINTY_MEASURE_WITH_UNIT(LENGTH_MEASURE(1.E-8),#1687,
'DISTANCE_ACCURACY_VALUE','Maximum Tolerance applied to model');
#1680=UNCERTAINTY_MEASURE_WITH_UNIT(LENGTH_MEASURE(1.E-8),#1687,
'DISTANCE_ACCURACY_VALUE','Maximum Tolerance applied to model');
#1681=UNCERTAINTY_MEASURE_WITH_UNIT(LENGTH_MEASURE(1.E-8),#1687,
'DISTANCE_ACCURACY_VALUE','Maximum Tolerance applied to model');
#1682=UNCERTAINTY_MEASURE_WITH_UNIT(LENGTH_MEASURE(1.E-8),#1687,
'DISTANCE_ACCURACY_VALUE','Maximum Tolerance applied to model');
#1683=UNCERTAINTY_MEASURE_WITH_UNIT(LENGTH_MEASURE(1.E-8),#1687,
'DISTANCE_ACCURACY_VALUE','Maximum Tolerance applied to model');
#1684=UNCERTAINTY_MEASURE_WITH_UNIT(LENGTH_MEASURE(1.E-8),#1687,
'DISTANCE_ACCURACY_VALUE','Maximum Tolerance applied to model');
#1685=(
NAMED_UNIT(*)
SI_UNIT($,.STERADIAN.)
SOLID_ANGLE_UNIT()
);
#1686=(
NAMED_UNIT(*)
PLANE_ANGLE_UNIT()
SI_UNIT($,.RADIAN.)
);
#1687=(
LENGTH_UNIT()
NAMED_UNIT(*)
SI_UNIT($,.METRE.)
);
#1688=PRODUCT_DEFINITION_SHAPE('','',#1702);
#1689=PRODUCT_DEFINITION_SHAPE('','',#1703);
#1690=PRODUCT_DEFINITION_SHAPE(' ','NAUO PRDDFN',#27);
#1691=PRODUCT_DEFINITION_SHAPE('','',#1704);
#1692=PRODUCT_DEFINITION_SHAPE(' ','NAUO PRDDFN',#28);
#1693=PRODUCT_DEFINITION_SHAPE(' ','NAUO PRDDFN',#29);
#1694=PRODUCT_DEFINITION_SHAPE('','',#1705);
#1695=PRODUCT_DEFINITION_SHAPE(' ','NAUO PRDDFN',#30);
#1696=PRODUCT_DEFINITION_SHAPE('','',#1706);
#1697=PRODUCT_DEFINITION_SHAPE(' ','NAUO PRDDFN',#31);
#1698=PRODUCT_DEFINITION_SHAPE('','',#1707);
#1699=PRODUCT_DEFINITION_SHAPE(' ','NAUO PRDDFN',#32);
#1700=PRODUCT_DEFINITION_SHAPE('','',#1708);
#1701=PRODUCT_DEFINITION_SHAPE(' ','NAUO PRDDFN',#33);
#1702=PRODUCT_DEFINITION('','',#1716,#1709);
#1703=PRODUCT_DEFINITION('','',#1717,#1710);
#1704=PRODUCT_DEFINITION('','',#1718,#1711);
#1705=PRODUCT_DEFINITION('','',#1719,#1712);
#1706=PRODUCT_DEFINITION('','',#1720,#1713);
#1707=PRODUCT_DEFINITION('','',#1721,#1714);
#1708=PRODUCT_DEFINITION('','',#1722,#1715);
#1709=PRODUCT_DEFINITION_CONTEXT('',#1752,'design');
#1710=PRODUCT_DEFINITION_CONTEXT('',#1752,'design');
#1711=PRODUCT_DEFINITION_CONTEXT('',#1752,'design');
#1712=PRODUCT_DEFINITION_CONTEXT('',#1752,'design');
#1713=PRODUCT_DEFINITION_CONTEXT('',#1752,'design');
#1714=PRODUCT_DEFINITION_CONTEXT('',#1752,'design');
#1715=PRODUCT_DEFINITION_CONTEXT('',#1752,'design');
#1716=PRODUCT_DEFINITION_FORMATION_WITH_SPECIFIED_SOURCE('','',#1730,
 .NOT_KNOWN.);
#1717=PRODUCT_DEFINITION_FORMATION_WITH_SPECIFIED_SOURCE('','',#1731,
 .NOT_KNOWN.);
#1718=PRODUCT_DEFINITION_FORMATION_WITH_SPECIFIED_SOURCE('','',#1732,
 .NOT_KNOWN.);
#1719=PRODUCT_DEFINITION_FORMATION_WITH_SPECIFIED_SOURCE('','',#1733,
 .NOT_KNOWN.);
#1720=PRODUCT_DEFINITION_FORMATION_WITH_SPECIFIED_SOURCE('','',#1734,
 .NOT_KNOWN.);
#1721=PRODUCT_DEFINITION_FORMATION_WITH_SPECIFIED_SOURCE('','',#1735,
 .NOT_KNOWN.);
#1722=PRODUCT_DEFINITION_FORMATION_WITH_SPECIFIED_SOURCE('','',#1736,
 .NOT_KNOWN.);
#1723=PRODUCT_RELATED_PRODUCT_CATEGORY('','',(#1730));
#1724=PRODUCT_RELATED_PRODUCT_CATEGORY('','',(#1731));
#1725=PRODUCT_RELATED_PRODUCT_CATEGORY('','',(#1732));
#1726=PRODUCT_RELATED_PRODUCT_CATEGORY('','',(#1733));
#1727=PRODUCT_RELATED_PRODUCT_CATEGORY('','',(#1734));
#1728=PRODUCT_RELATED_PRODUCT_CATEGORY('','',(#1735));
#1729=PRODUCT_RELATED_PRODUCT_CATEGORY('','',(#1736));
#1730=PRODUCT('Casing','Casing','Casing',(#1744));
#1731=PRODUCT('Part 2','Part 2','Part 2',(#1745));
#1732=PRODUCT('Part 1','Part 1','Part 1',(#1746));
#1733=PRODUCT('Part 1','Part 1','Part 1',(#1747));
#1734=PRODUCT('Part 2','Part 2','Part 2',(#1748));
#1735=PRODUCT('Part 1','Part 1','Part 1',(#1749));
#1736=PRODUCT('Part 1','Part 1','Part 1',(#1750));
#1737=PRODUCT_CATEGORY('','');
#1738=PRODUCT_CATEGORY('','');
#1739=PRODUCT_CATEGORY('','');
#1740=PRODUCT_CATEGORY('','');
#1741=PRODUCT_CATEGORY('','');
#1742=PRODUCT_CATEGORY('','');
#1743=PRODUCT_CATEGORY('','');
#1744=PRODUCT_CONTEXT('',#1752,'mechanical');
#1745=PRODUCT_CONTEXT('',#1752,'mechanical');
#1746=PRODUCT_CONTEXT('',#1752,'mechanical');
#1747=PRODUCT_CONTEXT('',#1752,'mechanical');
#1748=PRODUCT_CONTEXT('',#1752,'mechanical');
#1749=PRODUCT_CONTEXT('',#1752,'mechanical');
#1750=PRODUCT_CONTEXT('',#1752,'mechanical');
#1751=APPLICATION_PROTOCOL_DEFINITION('international standard',
'ap242_managed_model_based_3d_engineering',2020,#1752);
#1752=APPLICATION_CONTEXT('managed model based 3d engineering');
ENDSEC;
END-ISO-10303-21;
